<?xml version="1.0" encoding="UTF-8" standalone="no"?>
<!DOCTYPE svg PUBLIC "-//W3C//DTD SVG 20010904//EN"
              "http://www.w3.org/TR/2001/REC-SVG-20010904/DTD/svg10.dtd">

<svg xmlns="http://www.w3.org/2000/svg"
     width="80.8568mm" height="42.9261mm"
     viewBox="0 0 955 507">
  <path id="Selezione #24"
        fill="none" stroke="black" stroke-width="1"
        d="M 950.00,120.00
           C 950.00,120.00 950.00,121.00 950.00,121.00
             950.00,121.00 951.00,120.00 951.00,120.00
             951.00,120.00 950.00,120.00 950.00,120.00 Z
           M 158.00,154.00
           C 156.57,154.85 153.91,156.23 153.03,157.63
             151.60,159.90 153.57,170.15 154.23,173.00
             157.75,188.15 163.93,202.46 173.12,215.00
             190.68,238.96 206.49,251.24 233.00,264.11
             245.93,270.38 255.71,274.44 270.00,277.20
             282.32,279.57 293.54,280.00 306.00,280.00
             306.00,280.00 306.00,272.00 306.00,272.00
             295.75,274.49 273.36,270.69 263.00,267.71
             227.01,257.36 192.20,233.86 173.28,201.00
             169.04,193.62 163.80,181.26 161.89,173.00
             160.64,167.64 160.52,157.90 158.00,154.00 Z
           M 803.00,210.00
           C 800.26,224.54 795.89,228.58 786.17,239.00
             781.23,244.29 778.52,247.63 772.83,252.50
             756.15,266.78 736.93,275.43 716.00,281.43
             705.17,284.53 703.32,286.98 691.00,287.00
             691.00,287.00 674.00,287.00 674.00,287.00
             663.27,286.87 646.17,283.91 636.00,280.48
             636.00,280.48 619.00,274.00 619.00,274.00
             616.92,282.99 622.82,283.79 631.00,286.66
             642.77,290.78 659.53,293.85 672.00,294.00
             712.92,294.47 755.06,281.59 784.72,252.42
             793.58,243.71 807.15,225.12 810.00,213.00
             810.00,213.00 803.00,210.00 803.00,210.00 Z" />
</svg>
