<?xml version="1.0" encoding="UTF-8" standalone="no"?>
<!DOCTYPE svg PUBLIC "-//W3C//DTD SVG 20010904//EN"
              "http://www.w3.org/TR/2001/REC-SVG-20010904/DTD/svg10.dtd">

<svg xmlns="http://www.w3.org/2000/svg"
     width="80.8568mm" height="42.9261mm"
     viewBox="0 0 955 507">
  <path id="Selezione #7"
        fill="none" stroke="black" stroke-width="1"
        d="M 643.00,24.00
           C 643.00,24.00 640.00,23.00 640.00,23.00
             640.00,23.00 632.00,29.00 632.00,29.00
             632.00,29.00 627.00,42.00 627.00,42.00
             635.97,39.02 630.35,31.14 639.00,30.00
             643.66,24.06 643.30,24.91 650.00,24.05
             651.67,24.11 653.32,23.54 655.00,24.05
             655.00,24.05 661.00,26.36 661.00,26.36
             665.46,28.09 668.39,28.60 669.00,34.00
             674.63,37.02 672.85,38.65 673.67,44.00
             673.94,45.74 674.58,47.13 674.21,48.96
             673.83,50.86 672.30,52.45 671.54,54.28
             670.74,56.21 670.89,58.45 668.69,60.26
             667.20,61.49 665.77,61.62 664.00,62.00
             660.74,68.86 659.85,66.05 654.00,66.88
             652.27,67.13 650.86,67.78 649.04,67.57
             647.32,67.38 639.55,63.87 638.29,62.69
             638.29,62.69 635.14,58.45 635.14,58.45
             633.85,56.80 632.40,55.91 631.59,53.87
             631.59,53.87 630.00,45.00 630.00,45.00
             630.00,45.00 628.00,51.00 628.00,51.00
             628.00,51.00 630.00,51.00 630.00,51.00
             627.71,60.18 635.90,60.57 637.03,68.42
             638.23,76.81 632.65,102.25 635.00,112.00
             635.00,112.00 638.00,110.00 638.00,110.00
             638.00,110.00 639.29,93.00 639.29,93.00
             639.29,93.00 640.83,84.00 640.83,84.00
             640.83,84.00 642.00,67.00 642.00,67.00
             642.00,67.00 647.00,69.41 647.00,69.41
             647.00,69.41 662.78,67.64 662.78,67.64
             662.78,67.64 666.00,64.00 666.00,64.00
             671.58,72.81 673.83,83.31 677.54,93.00
             681.22,102.61 677.75,103.47 688.00,109.00
             688.00,109.00 688.00,105.00 688.00,105.00
             684.55,103.73 684.74,98.25 683.94,95.04
             682.32,88.53 680.15,84.77 677.40,78.91
             675.74,75.37 676.43,73.38 673.00,71.00
             673.00,71.00 671.00,61.00 671.00,61.00
             671.00,61.00 673.00,61.00 673.00,61.00
             673.00,61.00 674.00,59.00 674.00,59.00
             674.01,55.06 674.22,54.77 677.00,52.00
             676.70,48.63 677.68,46.40 675.00,44.00
             676.75,37.32 676.30,34.50 670.00,31.00
             669.66,29.23 669.92,28.83 668.59,27.22
             667.03,25.32 658.48,21.26 656.00,20.83
             652.94,20.29 645.04,21.72 643.00,24.00 Z
           M 676.00,45.00
           C 676.00,45.00 676.00,46.00 676.00,46.00
             676.00,46.00 675.00,45.00 675.00,45.00
             675.00,45.00 676.00,45.00 676.00,45.00 Z
           M 642.00,66.00
           C 642.00,66.00 642.00,67.00 642.00,67.00
             642.00,67.00 641.00,66.00 641.00,66.00
             641.00,66.00 642.00,66.00 642.00,66.00 Z
           M 641.00,67.00
           C 641.00,67.00 641.00,68.00 641.00,68.00
             641.00,68.00 640.00,67.00 640.00,67.00
             640.00,67.00 641.00,67.00 641.00,67.00 Z
           M 634.00,113.00
           C 634.00,113.00 634.00,114.00 634.00,114.00
             634.00,114.00 635.00,113.00 635.00,113.00
             635.00,113.00 634.00,113.00 634.00,113.00 Z" />
</svg>
