<?xml version="1.0" encoding="UTF-8" standalone="no"?>
<!DOCTYPE svg PUBLIC "-//W3C//DTD SVG 20010904//EN"
              "http://www.w3.org/TR/2001/REC-SVG-20010904/DTD/svg10.dtd">

<svg xmlns="http://www.w3.org/2000/svg"
     width="80.8568mm" height="42.9261mm"
     viewBox="0 0 955 507">
  <path id="Selezione #9"
        fill="none" stroke="black" stroke-width="1"
        d="M 652.00,27.00
           C 652.00,27.00 657.00,29.00 657.00,29.00
             655.69,25.89 655.13,26.31 652.00,27.00 Z
           M 656.00,27.00
           C 656.00,27.00 656.00,28.00 656.00,28.00
             656.00,28.00 655.00,27.00 655.00,27.00
             655.00,27.00 656.00,27.00 656.00,27.00 Z
           M 643.00,31.00
           C 643.00,31.00 648.00,29.00 648.00,29.00
             644.84,26.93 644.18,27.64 643.00,31.00 Z
           M 661.00,29.00
           C 661.00,29.00 665.00,34.00 665.00,34.00
             664.96,30.25 664.51,30.13 661.00,29.00 Z
           M 636.00,37.00
           C 636.00,37.00 640.00,32.00 640.00,32.00
             636.58,33.20 636.62,33.46 636.00,37.00 Z
           M 667.00,36.00
           C 667.00,36.00 669.00,42.00 669.00,42.00
             671.47,38.56 670.74,37.51 667.00,36.00 Z
           M 632.00,42.00
           C 632.00,42.00 635.00,46.00 635.00,46.00
             635.00,46.00 636.00,41.00 636.00,41.00
             636.00,41.00 632.00,42.00 632.00,42.00 Z
           M 669.00,45.00
           C 669.00,45.00 669.00,51.00 669.00,51.00
             671.93,48.77 671.79,48.55 671.00,45.00
             671.00,45.00 669.00,45.00 669.00,45.00 Z
           M 634.00,50.00
           C 634.03,53.41 634.05,53.28 637.00,55.00
             637.00,55.00 636.00,50.00 636.00,50.00
             636.00,50.00 634.00,50.00 634.00,50.00 Z
           M 635.00,52.00
           C 635.00,52.00 635.00,53.00 635.00,53.00
             635.00,53.00 634.00,52.00 634.00,52.00
             634.00,52.00 635.00,52.00 635.00,52.00 Z
           M 667.00,54.00
           C 667.00,54.00 665.00,59.00 665.00,59.00
             668.36,57.82 669.07,57.16 667.00,54.00 Z
           M 639.00,58.00
           C 640.20,61.39 640.46,61.47 644.00,61.00
             644.00,61.00 639.00,58.00 639.00,58.00 Z
           M 641.00,59.00
           C 641.00,59.00 641.00,60.00 641.00,60.00
             641.00,60.00 640.00,59.00 640.00,59.00
             640.00,59.00 641.00,59.00 641.00,59.00 Z
           M 660.00,60.00
           C 660.00,60.00 656.00,63.00 656.00,63.00
             656.00,63.00 660.00,65.00 660.00,65.00
             660.00,65.00 660.00,60.00 660.00,60.00 Z
           M 647.00,62.00
           C 649.04,65.00 649.55,64.73 653.00,64.00
             653.00,64.00 647.00,62.00 647.00,62.00 Z
           M 651.00,63.00
           C 651.00,63.00 651.00,64.00 651.00,64.00
             651.00,64.00 650.00,63.00 650.00,63.00
             650.00,63.00 651.00,63.00 651.00,63.00 Z
           M 658.00,70.00
           C 658.21,74.44 658.01,77.41 662.00,80.00
             662.00,80.00 660.00,82.00 660.00,82.00
             664.42,87.43 663.31,90.88 664.86,96.05
             664.86,96.05 667.60,102.17 667.60,102.17
             669.39,107.02 668.62,109.26 672.00,114.00
             676.17,103.97 671.94,100.09 668.47,91.00
             668.47,91.00 665.78,81.00 665.78,81.00
             664.35,76.46 662.74,71.61 658.00,70.00 Z
           M 661.00,71.00
           C 661.00,71.00 661.00,72.00 661.00,72.00
             661.00,72.00 660.00,71.00 660.00,71.00
             660.00,71.00 661.00,71.00 661.00,71.00 Z
           M 649.00,92.00
           C 644.45,95.92 646.78,110.34 648.00,116.00
             648.00,116.00 650.00,116.00 650.00,116.00
             650.00,116.00 650.87,101.00 650.87,101.00
             650.87,101.00 654.00,71.00 654.00,71.00
             652.36,71.29 651.17,71.21 649.93,72.60
             646.91,75.97 647.82,87.86 649.00,92.00 Z
           M 651.00,76.00
           C 651.00,76.00 651.00,77.00 651.00,77.00
             651.00,77.00 650.00,76.00 650.00,76.00
             650.00,76.00 651.00,76.00 651.00,76.00 Z
           M 664.00,79.00
           C 664.00,79.00 664.00,80.00 664.00,80.00
             664.00,80.00 663.00,79.00 663.00,79.00
             663.00,79.00 664.00,79.00 664.00,79.00 Z
           M 664.00,81.00
           C 664.00,81.00 664.00,82.00 664.00,82.00
             664.00,82.00 663.00,81.00 663.00,81.00
             663.00,81.00 664.00,81.00 664.00,81.00 Z
           M 665.00,83.00
           C 665.00,83.00 665.00,84.00 665.00,84.00
             665.00,84.00 664.00,83.00 664.00,83.00
             664.00,83.00 665.00,83.00 665.00,83.00 Z
           M 666.00,93.00
           C 666.00,93.00 666.00,94.00 666.00,94.00
             666.00,94.00 665.00,93.00 665.00,93.00
             665.00,93.00 666.00,93.00 666.00,93.00 Z
           M 649.00,97.00
           C 649.00,97.00 649.00,98.00 649.00,98.00
             649.00,98.00 648.00,97.00 648.00,97.00
             648.00,97.00 649.00,97.00 649.00,97.00 Z
           M 649.00,113.00
           C 649.00,113.00 649.00,114.00 649.00,114.00
             649.00,114.00 648.00,113.00 648.00,113.00
             648.00,113.00 649.00,113.00 649.00,113.00 Z" />
</svg>
