<?xml version="1.0" encoding="UTF-8" standalone="no"?>
<!DOCTYPE svg PUBLIC "-//W3C//DTD SVG 20010904//EN"
              "http://www.w3.org/TR/2001/REC-SVG-20010904/DTD/svg10.dtd">

<svg xmlns="http://www.w3.org/2000/svg"
     width="80.8568mm" height="42.9261mm"
     viewBox="0 0 955 507">
  <path id="Selezione #10"
        fill="none" stroke="black" stroke-width="1"
        d="M 641.00,26.00
           C 641.00,26.00 640.00,31.00 640.00,31.00
             643.24,29.05 644.15,25.96 648.00,28.00
             655.96,24.40 653.94,25.45 661.00,29.00
             661.00,29.00 661.00,27.00 661.00,27.00
             661.00,27.00 654.95,24.17 654.95,24.17
             654.95,24.17 641.00,26.00 641.00,26.00 Z
           M 637.00,25.00
           C 637.00,25.00 637.00,26.00 637.00,26.00
             637.00,26.00 638.00,25.00 638.00,25.00
             638.00,25.00 637.00,25.00 637.00,25.00 Z
           M 662.00,27.00
           C 662.00,27.00 670.20,39.09 670.20,39.09
             670.20,39.09 670.20,45.00 670.20,45.00
             675.14,51.15 665.51,51.73 671.00,56.00
             671.00,56.00 670.00,53.00 670.00,53.00
             670.00,53.00 675.00,50.00 675.00,50.00
             675.00,50.00 671.00,43.00 671.00,43.00
             674.22,39.12 673.38,38.17 671.00,34.00
             671.00,34.00 668.00,35.00 668.00,35.00
             667.73,29.43 667.83,28.00 662.00,27.00 Z
           M 634.00,39.00
           C 629.25,40.72 629.11,44.07 633.00,47.00
             633.00,47.00 632.12,51.00 632.12,51.00
             635.22,45.86 631.73,45.98 632.12,42.47
             632.12,42.47 637.19,32.83 637.19,32.83
             638.12,31.88 638.47,32.19 639.00,32.00
             639.00,32.00 639.00,30.00 639.00,30.00
             633.81,31.96 633.43,33.73 634.00,39.00 Z
           M 631.00,52.00
           C 632.61,55.79 632.91,56.31 637.00,57.00
             635.87,63.55 639.52,64.07 645.00,63.00
             647.30,66.79 647.78,66.98 652.00,68.00
             652.00,68.00 664.00,64.00 664.00,64.00
             664.00,64.00 663.00,61.00 663.00,61.00
             667.08,60.71 667.82,60.64 671.00,58.00
             671.00,58.00 668.00,60.00 668.00,60.00
             661.80,59.84 663.72,62.02 659.74,63.87
             658.04,64.33 656.68,63.89 655.00,63.87
             652.65,64.40 651.07,65.55 649.42,65.31
             648.07,65.11 646.39,63.69 645.05,63.08
             640.77,61.15 639.07,63.55 638.00,56.00
             638.00,56.00 631.00,52.00 631.00,52.00 Z
           M 630.00,59.00
           C 630.00,59.00 630.00,60.00 630.00,60.00
             630.00,60.00 631.00,59.00 631.00,59.00
             631.00,59.00 630.00,59.00 630.00,59.00 Z
           M 5.00,65.00
           C 5.00,65.00 5.00,66.00 5.00,66.00
             5.00,66.00 6.00,65.00 6.00,65.00
             6.00,65.00 5.00,65.00 5.00,65.00 Z
           M 666.00,65.00
           C 661.74,70.77 662.62,69.50 663.00,76.00
             669.36,82.44 665.05,87.54 671.00,92.00
             671.00,92.00 673.00,100.00 673.00,100.00
             673.00,100.00 674.00,94.00 674.00,94.00
             674.00,94.00 678.00,102.00 678.00,102.00
             679.08,98.19 677.85,95.74 676.80,92.00
             676.80,92.00 673.34,83.17 673.34,83.17
             671.08,77.04 670.44,70.14 666.00,65.00 Z
           M 6.00,68.00
           C 6.00,68.00 6.00,69.00 6.00,69.00
             6.00,69.00 7.00,68.00 7.00,68.00
             7.00,68.00 6.00,68.00 6.00,68.00 Z
           M 643.00,69.00
           C 640.85,75.53 640.00,94.45 640.00,102.00
             640.00,102.00 643.00,100.00 643.00,100.00
             643.00,100.00 644.00,104.00 644.00,104.00
             647.45,96.54 647.82,87.23 648.11,79.17
             647.92,77.31 648.82,73.70 648.11,72.40
             647.54,70.34 644.85,69.69 643.00,69.00 Z
           M 644.00,72.00
           C 644.00,72.00 644.00,73.00 644.00,73.00
             644.00,73.00 643.00,72.00 643.00,72.00
             643.00,72.00 644.00,72.00 644.00,72.00 Z
           M 6.00,75.00
           C 6.00,75.00 6.00,76.00 6.00,76.00
             6.00,76.00 7.00,75.00 7.00,75.00
             7.00,75.00 6.00,75.00 6.00,75.00 Z
           M 683.00,80.00
           C 683.00,80.00 683.00,81.00 683.00,81.00
             683.00,81.00 684.00,80.00 684.00,80.00
             684.00,80.00 683.00,80.00 683.00,80.00 Z
           M 676.00,91.00
           C 676.00,91.00 676.00,92.00 676.00,92.00
             676.00,92.00 675.00,91.00 675.00,91.00
             675.00,91.00 676.00,91.00 676.00,91.00 Z
           M 673.00,101.00
           C 673.00,101.00 673.00,102.00 673.00,102.00
             673.00,102.00 674.00,101.00 674.00,101.00
             674.00,101.00 673.00,101.00 673.00,101.00 Z
           M 645.00,105.00
           C 645.00,105.00 645.00,106.00 645.00,106.00
             645.00,106.00 646.00,105.00 646.00,105.00
             646.00,105.00 645.00,105.00 645.00,105.00 Z
           M 32.00,128.00
           C 32.00,128.00 32.00,129.00 32.00,129.00
             32.00,129.00 33.00,128.00 33.00,128.00
             33.00,128.00 32.00,128.00 32.00,128.00 Z
           M 952.00,128.00
           C 952.00,128.00 952.00,129.00 952.00,129.00
             952.00,129.00 953.00,128.00 953.00,128.00
             953.00,128.00 952.00,128.00 952.00,128.00 Z
           M 951.00,157.00
           C 951.00,157.00 951.00,158.00 951.00,158.00
             951.00,158.00 952.00,157.00 952.00,157.00
             952.00,157.00 951.00,157.00 951.00,157.00 Z
           M 950.00,169.00
           C 950.00,169.00 950.00,170.00 950.00,170.00
             950.00,170.00 951.00,169.00 951.00,169.00
             951.00,169.00 950.00,169.00 950.00,169.00 Z
           M 912.00,194.00
           C 912.00,194.00 912.00,195.00 912.00,195.00
             912.00,195.00 913.00,194.00 913.00,194.00
             913.00,194.00 912.00,194.00 912.00,194.00 Z
           M 904.00,199.00
           C 904.00,199.00 904.00,200.00 904.00,200.00
             904.00,200.00 905.00,199.00 905.00,199.00
             905.00,199.00 904.00,199.00 904.00,199.00 Z
           M 892.00,204.00
           C 892.00,204.00 892.00,205.00 892.00,205.00
             892.00,205.00 893.00,204.00 893.00,204.00
             893.00,204.00 892.00,204.00 892.00,204.00 Z" />
</svg>
