<?xml version="1.0" encoding="UTF-8" standalone="no"?>
<!DOCTYPE svg PUBLIC "-//W3C//DTD SVG 20010904//EN"
              "http://www.w3.org/TR/2001/REC-SVG-20010904/DTD/svg10.dtd">

<svg xmlns="http://www.w3.org/2000/svg"
     width="80.8568mm" height="42.9261mm"
     viewBox="0 0 955 507">
  <path id="Selezione #14"
        fill="none" stroke="black" stroke-width="1"
        d="M 650.00,28.00
           C 647.76,30.37 645.79,33.06 643.00,30.00
             643.00,30.00 639.78,35.92 639.78,35.92
             634.36,46.02 637.75,46.83 638.00,57.00
             642.43,57.24 642.76,58.34 645.00,62.00
             645.00,62.00 655.00,63.00 655.00,63.00
             655.00,63.00 656.00,62.00 656.00,62.00
             656.00,62.00 655.00,60.00 655.00,60.00
             655.00,60.00 664.00,58.00 664.00,58.00
             664.39,54.16 665.83,53.87 669.00,52.00
             667.50,46.71 668.17,46.84 670.00,42.00
             670.00,42.00 665.00,39.00 665.00,39.00
             665.00,39.00 667.00,35.00 667.00,35.00
             667.00,35.00 650.00,28.00 650.00,28.00 Z
           M 659.00,30.00
           C 659.00,30.00 659.00,31.00 659.00,31.00
             659.00,31.00 660.00,30.00 660.00,30.00
             660.00,30.00 659.00,30.00 659.00,30.00 Z
           M 635.00,39.00
           C 635.00,39.00 635.00,40.00 635.00,40.00
             635.00,40.00 636.00,39.00 636.00,39.00
             636.00,39.00 635.00,39.00 635.00,39.00 Z
           M 668.00,51.00
           C 668.00,51.00 668.00,52.00 668.00,52.00
             668.00,52.00 667.00,51.00 667.00,51.00
             667.00,51.00 668.00,51.00 668.00,51.00 Z
           M 647.00,60.00
           C 647.00,60.00 647.00,61.00 647.00,61.00
             647.00,61.00 646.00,60.00 646.00,60.00
             646.00,60.00 647.00,60.00 647.00,60.00 Z
           M 654.00,61.00
           C 654.00,61.00 654.00,62.00 654.00,62.00
             654.00,62.00 653.00,61.00 653.00,61.00
             653.00,61.00 654.00,61.00 654.00,61.00 Z
           M 633.00,67.00
           C 633.00,67.00 633.00,68.00 633.00,68.00
             633.00,68.00 634.00,67.00 634.00,67.00
             634.00,67.00 633.00,67.00 633.00,67.00 Z
           M 821.00,128.00
           C 821.00,128.00 821.00,129.00 821.00,129.00
             821.00,129.00 822.00,128.00 822.00,128.00
             822.00,128.00 821.00,128.00 821.00,128.00 Z" />
</svg>
