<?xml version="1.0" encoding="UTF-8" standalone="no"?>
<!DOCTYPE svg PUBLIC "-//W3C//DTD SVG 20010904//EN"
              "http://www.w3.org/TR/2001/REC-SVG-20010904/DTD/svg10.dtd">

<svg xmlns="http://www.w3.org/2000/svg"
     width="80.8568mm" height="42.9261mm"
     viewBox="0 0 955 507">
  <path id="Selezione #15"
        fill="none" stroke="black" stroke-width="1"
        d="M 1.00,59.00
           C 1.00,59.00 1.00,60.00 1.00,60.00
             1.00,60.00 2.00,59.00 2.00,59.00
             2.00,59.00 1.00,59.00 1.00,59.00 Z
           M 1.00,61.00
           C 1.00,61.00 3.00,65.00 3.00,65.00
             3.51,62.36 3.18,62.43 1.00,61.00 Z
           M 430.00,190.00
           C 430.00,190.00 431.00,192.00 431.00,192.00
             425.07,196.10 428.60,206.46 437.00,204.93
             449.05,202.74 448.83,183.15 435.58,186.51
             433.40,187.06 431.74,188.66 430.00,190.00 Z
           M 533.00,189.00
           C 533.00,189.00 534.00,192.00 534.00,192.00
             530.68,194.98 532.47,200.01 533.00,204.00
             533.00,204.00 539.00,206.00 539.00,206.00
             540.94,204.30 543.34,203.02 544.83,200.87
             548.09,196.17 547.56,187.77 540.99,186.33
             536.96,185.45 536.12,187.99 533.00,189.00 Z
           M 543.00,202.00
           C 543.00,202.00 543.00,203.00 543.00,203.00
             543.00,203.00 542.00,202.00 542.00,202.00
             542.00,202.00 543.00,202.00 543.00,202.00 Z" />
</svg>
