<?xml version="1.0" encoding="UTF-8" standalone="no"?>
<!DOCTYPE svg PUBLIC "-//W3C//DTD SVG 20010904//EN"
              "http://www.w3.org/TR/2001/REC-SVG-20010904/DTD/svg10.dtd">

<svg xmlns="http://www.w3.org/2000/svg"
     width="80.8568mm" height="42.9261mm"
     viewBox="0 0 955 507">
  <path id="Selezione #16"
        fill="none" stroke="black" stroke-width="1"
        d="M 543.00,143.55
           C 533.74,145.90 527.28,152.54 521.33,159.75
             521.33,159.75 511.58,172.44 511.58,172.44
             507.01,180.09 502.11,196.97 502.00,206.00
             501.90,214.47 502.61,223.39 506.91,230.96
             512.35,240.52 528.46,246.32 539.01,244.17
             548.03,242.33 555.92,234.61 560.85,227.15
             571.24,211.43 574.01,189.10 568.99,171.00
             568.99,171.00 564.60,157.28 564.60,157.28
             563.63,155.43 561.84,153.62 560.50,151.97
             555.22,145.43 551.86,142.79 543.00,143.55 Z
           M 441.00,144.44
           C 437.92,144.93 434.89,145.29 432.00,146.53
             414.43,154.09 399.23,181.08 399.00,200.00
             398.92,206.75 399.54,214.61 401.87,221.00
             403.42,225.24 405.75,227.41 408.65,230.59
             415.08,237.63 419.09,240.57 429.00,240.96
             456.45,242.04 473.46,208.96 472.98,185.01
             472.88,180.28 472.53,174.53 471.22,170.00
             467.45,156.95 455.64,143.26 441.00,144.44 Z
           M 436.00,185.45
           C 450.00,184.08 449.54,201.87 438.00,205.35
             431.47,207.31 426.43,202.64 427.38,196.00
             428.11,190.87 431.34,187.29 436.00,185.45 Z
           M 538.99,185.45
           C 552.49,186.29 547.92,204.60 538.99,205.73
             528.88,207.01 527.68,188.40 538.99,185.45 Z" />
</svg>
