<?xml version="1.0" encoding="UTF-8" standalone="no"?>
<!DOCTYPE svg PUBLIC "-//W3C//DTD SVG 20010904//EN"
              "http://www.w3.org/TR/2001/REC-SVG-20010904/DTD/svg10.dtd">

<svg xmlns="http://www.w3.org/2000/svg"
     width="80.8568mm" height="42.9261mm"
     viewBox="0 0 955 507">
  <path id="Selezione #18"
        fill="none" stroke="black" stroke-width="1"
        d="M 397.00,131.00
           C 397.00,131.00 397.00,132.00 397.00,132.00
             397.00,132.00 398.00,131.00 398.00,131.00
             398.00,131.00 397.00,131.00 397.00,131.00 Z
           M 475.00,138.00
           C 475.00,138.00 475.00,139.00 475.00,139.00
             475.00,139.00 476.00,138.00 476.00,138.00
             476.00,138.00 475.00,138.00 475.00,138.00 Z
           M 501.00,197.00
           C 501.00,197.00 506.48,180.00 506.48,180.00
             508.24,175.60 509.78,172.85 512.58,169.00
             520.69,157.86 538.08,134.16 554.00,144.14
             556.67,145.82 558.38,147.63 560.38,150.01
             563.23,153.40 565.03,155.91 566.77,160.00
             571.07,170.10 573.11,181.06 573.00,192.00
             573.00,192.00 569.00,219.00 569.00,219.00
             564.30,221.62 565.18,223.83 561.06,229.00
             553.86,238.06 547.16,245.20 535.00,245.91
             530.86,246.15 527.93,245.41 524.00,244.29
             521.11,243.47 517.57,242.57 515.04,241.00
             499.27,231.25 501.00,213.99 501.00,198.00
             499.82,200.98 500.01,202.84 500.00,206.00
             499.99,213.37 499.76,220.89 502.09,228.00
             506.63,241.82 519.48,246.84 533.00,247.00
             536.65,247.04 540.48,247.13 544.00,246.01
             554.49,242.67 565.70,227.98 569.53,218.00
             569.53,218.00 573.63,202.00 573.63,202.00
             576.63,186.98 573.21,167.18 565.40,154.00
             561.52,147.46 557.85,142.34 550.00,140.53
             539.87,138.19 533.05,143.40 526.01,149.93
             518.51,156.89 519.52,156.09 513.76,164.00
             505.38,175.53 501.01,182.36 501.00,197.00 Z
           M 442.00,141.46
           C 437.61,142.03 433.07,142.14 429.00,144.08
             422.38,147.25 418.05,152.24 413.58,157.83
             413.58,157.83 406.45,167.00 406.45,167.00
             401.36,175.12 396.12,189.38 396.00,199.00
             395.77,218.84 403.28,242.93 427.00,243.96
             458.18,245.32 475.67,213.62 476.00,186.00
             476.23,166.32 465.17,140.50 442.00,141.46 Z
           M 437.00,143.53
           C 441.11,142.89 445.99,142.69 450.00,143.53
             461.40,146.82 471.18,160.85 473.49,172.00
             473.49,172.00 474.23,181.96 474.23,181.96
             475.70,199.11 466.92,224.20 452.96,234.70
             447.55,238.77 438.70,241.61 432.01,242.54
             409.31,245.68 395.98,220.66 397.09,201.00
             398.30,179.61 414.34,147.73 437.00,143.53 Z
           M 642.00,156.00
           C 642.00,156.00 642.00,157.00 642.00,157.00
             642.00,157.00 643.00,156.00 643.00,156.00
             643.00,156.00 642.00,156.00 642.00,156.00 Z
           M 641.00,158.00
           C 641.00,158.00 641.00,159.00 641.00,159.00
             641.00,159.00 642.00,158.00 642.00,158.00
             642.00,158.00 641.00,158.00 641.00,158.00 Z
           M 634.00,180.00
           C 634.00,180.00 634.00,181.00 634.00,181.00
             634.00,181.00 635.00,180.00 635.00,180.00
             635.00,180.00 634.00,180.00 634.00,180.00 Z
           M 618.00,254.00
           C 618.00,254.00 618.00,255.00 618.00,255.00
             618.00,255.00 619.00,254.00 619.00,254.00
             619.00,254.00 618.00,254.00 618.00,254.00 Z" />
</svg>
