<?xml version="1.0" encoding="UTF-8" standalone="no"?>
<!DOCTYPE svg PUBLIC "-//W3C//DTD SVG 20010904//EN"
              "http://www.w3.org/TR/2001/REC-SVG-20010904/DTD/svg10.dtd">

<svg xmlns="http://www.w3.org/2000/svg"
     width="80.8568mm" height="42.9261mm"
     viewBox="0 0 955 507">
  <path id="Selezione #21"
        fill="none" stroke="black" stroke-width="1"
        d="M 1.00,59.00
           C 1.00,59.00 1.00,60.00 1.00,60.00
             1.00,60.00 2.00,59.00 2.00,59.00
             2.00,59.00 1.00,59.00 1.00,59.00 Z
           M 1.00,61.00
           C 1.00,61.00 1.00,62.00 1.00,62.00
             1.00,62.00 2.00,61.00 2.00,61.00
             2.00,61.00 1.00,61.00 1.00,61.00 Z
           M 657.00,68.00
           C 657.00,68.00 657.00,69.00 657.00,69.00
             657.00,69.00 658.00,68.00 658.00,68.00
             658.00,68.00 657.00,68.00 657.00,68.00 Z
           M 651.00,69.00
           C 651.00,69.00 651.00,70.00 651.00,70.00
             651.00,70.00 652.00,69.00 652.00,69.00
             652.00,69.00 651.00,69.00 651.00,69.00 Z
           M 443.00,188.00
           C 443.00,188.00 443.00,189.00 443.00,189.00
             443.00,189.00 444.00,188.00 444.00,188.00
             444.00,188.00 443.00,188.00 443.00,188.00 Z
           M 805.00,209.00
           C 805.00,209.00 805.00,210.00 805.00,210.00
             805.00,210.00 806.00,209.00 806.00,209.00
             806.00,209.00 805.00,209.00 805.00,209.00 Z
           M 802.00,210.00
           C 802.00,210.00 802.00,211.00 802.00,211.00
             802.00,211.00 803.00,210.00 803.00,210.00
             803.00,210.00 802.00,210.00 802.00,210.00 Z
           M 808.00,211.00
           C 808.00,211.00 808.00,212.00 808.00,212.00
             808.00,212.00 809.00,211.00 809.00,211.00
             809.00,211.00 808.00,211.00 808.00,211.00 Z
           M 810.00,215.00
           C 810.00,215.00 810.00,216.00 810.00,216.00
             810.00,216.00 811.00,215.00 811.00,215.00
             811.00,215.00 810.00,215.00 810.00,215.00 Z
           M 794.00,242.00
           C 794.00,242.00 794.00,243.00 794.00,243.00
             794.00,243.00 795.00,242.00 795.00,242.00
             795.00,242.00 794.00,242.00 794.00,242.00 Z
           M 774.00,250.00
           C 774.00,250.00 772.00,252.00 772.00,252.00
             772.00,252.00 772.00,253.00 772.00,253.00
             772.00,253.00 774.00,250.00 774.00,250.00 Z
           M 768.00,255.00
           C 768.00,255.00 768.00,256.00 768.00,256.00
             768.00,256.00 769.00,255.00 769.00,255.00
             769.00,255.00 768.00,255.00 768.00,255.00 Z
           M 220.00,258.00
           C 220.00,258.00 220.00,259.00 220.00,259.00
             220.00,259.00 221.00,258.00 221.00,258.00
             221.00,258.00 220.00,258.00 220.00,258.00 Z
           M 224.00,260.00
           C 224.00,260.00 224.00,261.00 224.00,261.00
             224.00,261.00 225.00,260.00 225.00,260.00
             225.00,260.00 224.00,260.00 224.00,260.00 Z
           M 254.00,264.00
           C 254.00,264.00 254.00,265.00 254.00,265.00
             254.00,265.00 255.00,264.00 255.00,264.00
             255.00,264.00 254.00,264.00 254.00,264.00 Z
           M 238.00,267.00
           C 238.00,267.00 238.00,268.00 238.00,268.00
             238.00,268.00 239.00,267.00 239.00,267.00
             239.00,267.00 238.00,267.00 238.00,267.00 Z
           M 767.00,267.00
           C 767.00,267.00 767.00,268.00 767.00,268.00
             767.00,268.00 768.00,267.00 768.00,267.00
             768.00,267.00 767.00,267.00 767.00,267.00 Z
           M 242.00,269.00
           C 242.00,269.00 242.00,270.00 242.00,270.00
             242.00,270.00 243.00,269.00 243.00,269.00
             243.00,269.00 242.00,269.00 242.00,269.00 Z
           M 278.00,270.00
           C 278.00,270.00 278.00,271.00 278.00,271.00
             278.00,271.00 279.00,270.00 279.00,270.00
             279.00,270.00 278.00,270.00 278.00,270.00 Z
           M 247.00,271.00
           C 247.00,271.00 247.00,272.00 247.00,272.00
             247.00,272.00 248.00,271.00 248.00,271.00
             248.00,271.00 247.00,271.00 247.00,271.00 Z
           M 285.00,271.00
           C 285.00,271.00 285.00,272.00 285.00,272.00
             285.00,272.00 286.00,271.00 286.00,271.00
             286.00,271.00 285.00,271.00 285.00,271.00 Z
           M 742.00,271.00
           C 742.00,271.00 742.00,272.00 742.00,272.00
             742.00,272.00 743.00,271.00 743.00,271.00
             743.00,271.00 742.00,271.00 742.00,271.00 Z
           M 761.00,271.00
           C 761.00,271.00 761.00,272.00 761.00,272.00
             761.00,272.00 762.00,271.00 762.00,271.00
             762.00,271.00 761.00,271.00 761.00,271.00 Z
           M 250.00,272.00
           C 250.00,272.00 250.00,273.00 250.00,273.00
             250.00,273.00 251.00,272.00 251.00,272.00
             251.00,272.00 250.00,272.00 250.00,272.00 Z
           M 256.00,274.00
           C 256.00,274.00 256.00,275.00 256.00,275.00
             256.00,275.00 257.00,274.00 257.00,274.00
             257.00,274.00 256.00,274.00 256.00,274.00 Z
           M 622.00,274.00
           C 622.00,274.00 622.00,275.00 622.00,275.00
             622.00,275.00 623.00,274.00 623.00,274.00
             623.00,274.00 622.00,274.00 622.00,274.00 Z
           M 735.00,274.00
           C 735.00,274.00 735.00,275.00 735.00,275.00
             735.00,275.00 736.00,274.00 736.00,274.00
             736.00,274.00 735.00,274.00 735.00,274.00 Z
           M 263.00,276.00
           C 263.00,276.00 263.00,277.00 263.00,277.00
             263.00,277.00 264.00,276.00 264.00,276.00
             264.00,276.00 263.00,276.00 263.00,276.00 Z
           M 273.00,278.00
           C 273.00,278.00 273.00,279.00 273.00,279.00
             273.00,279.00 274.00,278.00 274.00,278.00
             274.00,278.00 273.00,278.00 273.00,278.00 Z
           M 634.00,279.00
           C 634.00,279.00 634.00,280.00 634.00,280.00
             634.00,280.00 635.00,279.00 635.00,279.00
             635.00,279.00 634.00,279.00 634.00,279.00 Z
           M 306.00,280.00
           C 306.00,280.00 306.00,281.00 306.00,281.00
             306.00,281.00 307.00,280.00 307.00,280.00
             307.00,280.00 306.00,280.00 306.00,280.00 Z
           M 744.00,280.00
           C 744.00,280.00 744.00,281.00 744.00,281.00
             744.00,281.00 745.00,280.00 745.00,280.00
             745.00,280.00 744.00,280.00 744.00,280.00 Z
           M 641.00,281.00
           C 641.00,281.00 641.00,282.00 641.00,282.00
             641.00,282.00 642.00,281.00 642.00,281.00
             642.00,281.00 641.00,281.00 641.00,281.00 Z
           M 741.00,281.00
           C 741.00,281.00 741.00,282.00 741.00,282.00
             741.00,282.00 742.00,281.00 742.00,281.00
             742.00,281.00 741.00,281.00 741.00,281.00 Z
           M 618.00,282.00
           C 618.00,282.00 618.00,283.00 618.00,283.00
             618.00,283.00 619.00,282.00 619.00,282.00
             619.00,282.00 618.00,282.00 618.00,282.00 Z
           M 645.00,282.00
           C 645.00,282.00 645.00,283.00 645.00,283.00
             645.00,283.00 646.00,282.00 646.00,282.00
             646.00,282.00 645.00,282.00 645.00,282.00 Z
           M 739.00,282.00
           C 739.00,282.00 739.00,283.00 739.00,283.00
             739.00,283.00 740.00,282.00 740.00,282.00
             740.00,282.00 739.00,282.00 739.00,282.00 Z
           M 649.00,283.00
           C 649.00,283.00 649.00,284.00 649.00,284.00
             649.00,284.00 650.00,283.00 650.00,283.00
             650.00,283.00 649.00,283.00 649.00,283.00 Z
           M 734.00,284.00
           C 734.00,284.00 734.00,285.00 734.00,285.00
             734.00,285.00 735.00,284.00 735.00,284.00
             735.00,284.00 734.00,284.00 734.00,284.00 Z
           M 731.00,285.00
           C 731.00,285.00 731.00,286.00 731.00,286.00
             731.00,286.00 732.00,285.00 732.00,285.00
             732.00,285.00 731.00,285.00 731.00,285.00 Z
           M 726.00,287.00
           C 726.00,287.00 726.00,288.00 726.00,288.00
             726.00,288.00 727.00,287.00 727.00,287.00
             727.00,287.00 726.00,287.00 726.00,287.00 Z
           M 703.00,292.00
           C 703.00,292.00 703.00,293.00 703.00,293.00
             703.00,293.00 704.00,292.00 704.00,292.00
             704.00,292.00 703.00,292.00 703.00,292.00 Z
           M 352.04,370.66
           C 340.93,375.66 340.44,392.74 342.67,403.00
             344.25,410.29 344.80,414.84 353.00,415.00
             353.00,415.00 370.00,415.00 370.00,415.00
             371.82,415.00 375.80,415.26 377.17,414.01
             379.58,411.82 377.12,401.92 376.37,399.00
             373.63,388.30 365.83,368.41 352.04,370.66 Z
           M 641.00,476.00
           C 641.00,476.00 641.00,477.00 641.00,477.00
             641.00,477.00 642.00,476.00 642.00,476.00
             642.00,476.00 641.00,476.00 641.00,476.00 Z
           M 630.00,477.00
           C 630.00,477.00 630.00,478.00 630.00,478.00
             630.00,478.00 631.00,477.00 631.00,477.00
             631.00,477.00 630.00,477.00 630.00,477.00 Z
           M 635.00,477.00
           C 635.00,477.00 635.00,478.00 635.00,478.00
             635.00,478.00 636.00,477.00 636.00,477.00
             636.00,477.00 635.00,477.00 635.00,477.00 Z
           M 638.00,477.00
           C 638.00,477.00 638.00,478.00 638.00,478.00
             638.00,478.00 639.00,477.00 639.00,477.00
             639.00,477.00 638.00,477.00 638.00,477.00 Z
           M 661.00,477.00
           C 661.00,477.00 661.00,478.00 661.00,478.00
             661.00,478.00 662.00,477.00 662.00,477.00
             662.00,477.00 661.00,477.00 661.00,477.00 Z
           M 628.00,478.00
           C 628.00,478.00 628.00,479.00 628.00,479.00
             628.00,479.00 629.00,478.00 629.00,478.00
             629.00,478.00 628.00,478.00 628.00,478.00 Z
           M 666.00,478.00
           C 666.00,478.00 666.00,479.00 666.00,479.00
             666.00,479.00 667.00,478.00 667.00,478.00
             667.00,478.00 666.00,478.00 666.00,478.00 Z
           M 671.00,479.00
           C 671.00,479.00 671.00,480.00 671.00,480.00
             671.00,480.00 672.00,479.00 672.00,479.00
             672.00,479.00 671.00,479.00 671.00,479.00 Z
           M 675.00,480.00
           C 675.00,480.00 675.00,481.00 675.00,481.00
             675.00,481.00 676.00,480.00 676.00,480.00
             676.00,480.00 675.00,480.00 675.00,480.00 Z
           M 368.00,481.00
           C 368.00,481.00 368.00,482.00 368.00,482.00
             368.00,482.00 369.00,481.00 369.00,481.00
             369.00,481.00 368.00,481.00 368.00,481.00 Z
           M 373.00,481.00
           C 373.00,481.00 377.00,483.00 377.00,483.00
             377.00,483.00 373.00,481.00 373.00,481.00 Z
           M 625.00,481.00
           C 625.00,481.00 625.00,482.00 625.00,482.00
             625.00,482.00 626.00,481.00 626.00,481.00
             626.00,481.00 625.00,481.00 625.00,481.00 Z
           M 388.00,483.00
           C 388.00,483.00 392.00,483.00 392.00,483.00
             392.00,483.00 388.00,483.00 388.00,483.00 Z
           M 682.00,482.00
           C 682.00,482.00 682.00,483.00 682.00,483.00
             682.00,483.00 683.00,482.00 683.00,482.00
             683.00,482.00 682.00,482.00 682.00,482.00 Z
           M 685.00,483.00
           C 685.00,483.00 685.00,484.00 685.00,484.00
             685.00,484.00 686.00,483.00 686.00,483.00
             686.00,483.00 685.00,483.00 685.00,483.00 Z
           M 381.00,484.00
           C 381.00,484.00 386.00,485.00 386.00,485.00
             386.00,485.00 381.00,484.00 381.00,484.00 Z
           M 398.00,484.00
           C 398.00,484.00 398.00,485.00 398.00,485.00
             398.00,485.00 399.00,484.00 399.00,484.00
             399.00,484.00 398.00,484.00 398.00,484.00 Z
           M 693.00,486.00
           C 693.00,486.00 693.00,487.00 693.00,487.00
             693.00,487.00 694.00,486.00 694.00,486.00
             694.00,486.00 693.00,486.00 693.00,486.00 Z
           M 401.00,488.00
           C 401.00,488.00 401.00,489.00 401.00,489.00
             401.00,489.00 402.00,488.00 402.00,488.00
             402.00,488.00 401.00,488.00 401.00,488.00 Z
           M 700.00,489.00
           C 700.00,489.00 700.00,490.00 700.00,490.00
             700.00,490.00 701.00,489.00 701.00,489.00
             701.00,489.00 700.00,489.00 700.00,489.00 Z
           M 702.00,490.00
           C 702.00,490.00 702.00,491.00 702.00,491.00
             702.00,491.00 703.00,490.00 703.00,490.00
             703.00,490.00 702.00,490.00 702.00,490.00 Z
           M 707.00,493.00
           C 707.00,493.00 707.00,494.00 707.00,494.00
             707.00,494.00 708.00,493.00 708.00,493.00
             708.00,493.00 707.00,493.00 707.00,493.00 Z
           M 654.00,496.00
           C 654.00,496.00 654.00,497.00 654.00,497.00
             654.00,497.00 655.00,496.00 655.00,496.00
             655.00,496.00 654.00,496.00 654.00,496.00 Z
           M 319.00,497.00
           C 319.00,497.00 319.00,498.00 319.00,498.00
             319.00,498.00 320.00,497.00 320.00,497.00
             320.00,497.00 319.00,497.00 319.00,497.00 Z
           M 380.00,497.00
           C 380.00,497.00 380.00,498.00 380.00,498.00
             380.00,498.00 381.00,497.00 381.00,497.00
             381.00,497.00 380.00,497.00 380.00,497.00 Z
           M 711.00,498.00
           C 711.00,498.00 711.00,499.00 711.00,499.00
             711.00,499.00 712.00,498.00 712.00,498.00
             712.00,498.00 711.00,498.00 711.00,498.00 Z
           M 398.00,499.00
           C 398.00,499.00 398.00,500.00 398.00,500.00
             398.00,500.00 399.00,499.00 399.00,499.00
             399.00,499.00 398.00,499.00 398.00,499.00 Z
           M 631.00,499.00
           C 631.00,499.00 631.00,500.00 631.00,500.00
             631.00,500.00 632.00,499.00 632.00,499.00
             632.00,499.00 631.00,499.00 631.00,499.00 Z
           M 384.00,500.00
           C 384.00,500.00 384.00,501.00 384.00,501.00
             384.00,501.00 385.00,500.00 385.00,500.00
             385.00,500.00 384.00,500.00 384.00,500.00 Z
           M 711.00,500.00
           C 711.00,500.00 711.00,501.00 711.00,501.00
             711.00,501.00 712.00,500.00 712.00,500.00
             712.00,500.00 711.00,500.00 711.00,500.00 Z
           M 363.00,502.00
           C 363.00,502.00 363.00,503.00 363.00,503.00
             363.00,503.00 364.00,502.00 364.00,502.00
             364.00,502.00 363.00,502.00 363.00,502.00 Z
           M 390.00,503.00
           C 390.00,503.00 390.00,504.00 390.00,504.00
             390.00,504.00 391.00,503.00 391.00,503.00
             391.00,503.00 390.00,503.00 390.00,503.00 Z
           M 394.00,503.00
           C 394.00,503.00 394.00,504.00 394.00,504.00
             394.00,504.00 395.00,503.00 395.00,503.00
             395.00,503.00 394.00,503.00 394.00,503.00 Z" />
</svg>
