<?xml version="1.0" encoding="UTF-8" standalone="no"?>
<!DOCTYPE svg PUBLIC "-//W3C//DTD SVG 20010904//EN"
              "http://www.w3.org/TR/2001/REC-SVG-20010904/DTD/svg10.dtd">

<svg xmlns="http://www.w3.org/2000/svg"
     width="80.8568mm" height="42.9261mm"
     viewBox="0 0 955 507">
  <path id="Selezione #23"
        fill="none" stroke="black" stroke-width="1"
        d="M 650.00,4.83
           C 650.00,4.83 670.33,4.83 670.33,4.83
             670.33,4.83 681.00,4.00 681.00,4.00
             681.00,4.00 681.00,12.00 681.00,12.00
             681.00,12.00 679.00,10.00 679.00,10.00
             679.00,10.00 664.00,15.00 664.00,15.00
             664.00,15.00 671.00,19.00 671.00,19.00
             671.00,19.00 668.00,22.00 668.00,22.00
             668.00,22.00 677.00,20.00 677.00,20.00
             677.00,20.00 676.00,23.00 676.00,23.00
             676.00,23.00 678.00,21.00 678.00,21.00
             678.00,21.00 683.00,28.00 683.00,28.00
             689.20,28.11 688.10,33.02 687.99,38.00
             687.99,38.00 687.00,55.00 687.00,55.00
             689.47,51.48 689.55,50.08 694.00,49.00
             694.00,49.00 693.00,46.00 693.00,46.00
             693.00,46.00 688.00,48.00 688.00,48.00
             688.00,48.00 690.00,28.00 690.00,28.00
             690.00,28.00 693.00,28.00 693.00,28.00
             693.00,28.00 693.00,39.00 693.00,39.00
             693.00,39.00 696.00,36.00 696.00,36.00
             697.10,40.70 696.22,43.45 695.00,48.00
             695.00,48.00 697.00,48.00 697.00,48.00
             697.00,48.00 696.00,51.00 696.00,51.00
             696.00,51.00 700.00,45.00 700.00,45.00
             700.00,45.00 698.00,48.00 698.00,48.00
             698.73,44.63 699.12,44.85 702.00,43.00
             702.00,43.00 698.00,40.00 698.00,40.00
             702.55,37.41 702.67,35.75 701.00,31.00
             701.00,31.00 698.00,28.00 698.00,28.00
             703.85,28.42 704.25,29.05 710.00,27.00
             710.00,27.00 709.00,23.00 709.00,23.00
             711.70,22.19 711.23,21.67 711.00,19.00
             711.00,19.00 714.00,20.00 714.00,20.00
             714.00,20.00 717.00,12.00 717.00,12.00
             721.88,10.88 720.61,7.02 717.66,5.56
             715.48,4.48 704.89,3.13 702.00,2.84
             702.00,2.84 684.00,1.00 684.00,1.00
             684.00,1.00 671.67,2.33 671.67,2.33
             666.55,2.47 653.05,1.60 650.00,4.83 Z
           M 660.00,8.00
           C 664.34,11.20 671.72,10.00 677.00,10.00
             677.00,10.00 677.00,8.00 677.00,8.00
             677.00,8.00 660.00,8.00 660.00,8.00 Z
           M 720.00,14.00
           C 720.00,14.00 717.00,19.00 717.00,19.00
             717.00,19.00 720.00,14.00 720.00,14.00 Z
           M 658.00,20.00
           C 658.00,20.00 658.00,21.00 658.00,21.00
             658.00,21.00 659.00,20.00 659.00,20.00
             659.00,20.00 658.00,20.00 658.00,20.00 Z
           M 714.00,23.00
           C 714.00,23.00 717.00,20.00 717.00,20.00
             717.00,20.00 714.00,23.00 714.00,23.00 Z
           M 713.00,24.00
           C 713.00,24.00 711.00,26.00 711.00,26.00
             711.00,26.00 711.00,27.00 711.00,27.00
             711.00,27.00 713.00,24.00 713.00,24.00 Z
           M 671.00,29.00
           C 671.00,29.00 671.00,30.00 671.00,30.00
             671.00,30.00 672.00,29.00 672.00,29.00
             672.00,29.00 671.00,29.00 671.00,29.00 Z
           M 706.00,30.00
           C 706.00,30.00 706.00,31.00 706.00,31.00
             706.00,31.00 707.00,30.00 707.00,30.00
             707.00,30.00 706.00,30.00 706.00,30.00 Z
           M 672.00,31.00
           C 672.00,31.00 672.00,32.00 672.00,32.00
             672.00,32.00 673.00,31.00 673.00,31.00
             673.00,31.00 672.00,31.00 672.00,31.00 Z
           M 480.00,34.00
           C 480.00,34.00 476.00,35.00 476.00,35.00
             476.00,35.00 481.00,35.00 481.00,35.00
             481.00,35.00 480.00,34.00 480.00,34.00 Z
           M 709.00,34.00
           C 709.00,34.00 709.00,35.00 709.00,35.00
             709.00,35.00 710.00,34.00 710.00,34.00
             710.00,34.00 709.00,34.00 709.00,34.00 Z
           M 317.00,199.00
           C 318.34,198.54 318.99,198.62 320.07,197.41
             321.56,195.71 321.57,191.51 327.37,183.75
             336.41,171.66 344.77,161.90 357.00,152.74
             357.00,152.74 380.00,137.31 380.00,137.31
             380.00,137.31 392.00,131.32 392.00,131.32
             392.00,131.32 406.17,123.42 406.17,123.42
             406.17,123.42 422.00,117.54 422.00,117.54
             422.00,117.54 429.00,114.62 429.00,114.62
             429.00,114.62 477.00,103.00 477.00,103.00
             477.00,103.00 466.70,89.83 466.70,89.83
             459.13,79.19 453.79,65.32 460.33,53.00
             462.14,49.58 463.66,47.72 466.37,45.01
             469.49,41.89 470.92,39.91 475.00,38.00
             470.28,36.72 462.44,40.22 458.00,42.15
             458.00,42.15 447.00,47.73 447.00,47.73
             436.99,52.72 426.91,56.68 417.91,63.53
             417.91,63.53 403.00,73.68 403.00,73.68
             403.00,73.68 384.96,88.90 384.96,88.90
             384.96,88.90 377.00,93.63 377.00,93.63
             374.05,95.64 362.73,105.47 360.29,108.09
             351.63,117.36 341.70,132.77 335.51,144.00
             335.51,144.00 331.56,152.00 331.56,152.00
             323.27,166.91 324.14,167.39 319.43,183.00
             317.36,189.87 315.24,191.47 317.00,199.00 Z
           M 704.00,37.00
           C 704.00,37.00 704.00,38.00 704.00,38.00
             704.00,38.00 705.00,37.00 705.00,37.00
             705.00,37.00 704.00,37.00 704.00,37.00 Z
           M 677.00,44.00
           C 677.00,44.00 677.00,45.00 677.00,45.00
             677.00,45.00 678.00,44.00 678.00,44.00
             678.00,44.00 677.00,44.00 677.00,44.00 Z
           M 677.00,51.00
           C 677.00,51.00 677.00,52.00 677.00,52.00
             677.00,52.00 678.00,51.00 678.00,51.00
             678.00,51.00 677.00,51.00 677.00,51.00 Z
           M 627.00,54.00
           C 627.00,54.00 627.00,55.00 627.00,55.00
             627.00,55.00 628.00,54.00 628.00,54.00
             628.00,54.00 627.00,54.00 627.00,54.00 Z
           M 690.00,60.00
           C 690.00,60.00 690.00,61.00 690.00,61.00
             690.00,61.00 691.00,60.00 691.00,60.00
             691.00,60.00 690.00,60.00 690.00,60.00 Z
           M 687.00,65.00
           C 687.00,65.00 687.00,66.00 687.00,66.00
             687.00,66.00 688.00,65.00 688.00,65.00
             688.00,65.00 687.00,65.00 687.00,65.00 Z
           M 686.00,67.00
           C 686.00,67.00 686.00,68.00 686.00,68.00
             686.00,68.00 687.00,67.00 687.00,67.00
             687.00,67.00 686.00,67.00 686.00,67.00 Z
           M 680.00,68.00
           C 680.00,68.00 680.00,69.00 680.00,69.00
             680.00,69.00 681.00,68.00 681.00,68.00
             681.00,68.00 680.00,68.00 680.00,68.00 Z
           M 685.00,69.00
           C 685.00,69.00 685.00,70.00 685.00,70.00
             685.00,70.00 686.00,69.00 686.00,69.00
             686.00,69.00 685.00,69.00 685.00,69.00 Z
           M 681.00,70.00
           C 681.00,70.00 681.00,71.00 681.00,71.00
             681.00,71.00 682.00,70.00 682.00,70.00
             682.00,70.00 681.00,70.00 681.00,70.00 Z
           M 678.00,71.00
           C 678.00,71.00 679.00,75.00 679.00,75.00
             679.00,75.00 678.00,71.00 678.00,71.00 Z
           M 684.00,71.00
           C 684.00,71.00 684.00,72.00 684.00,72.00
             684.00,72.00 685.00,71.00 685.00,71.00
             685.00,71.00 684.00,71.00 684.00,71.00 Z
           M 635.00,72.00
           C 635.00,72.00 635.00,73.00 635.00,73.00
             635.00,73.00 636.00,72.00 636.00,72.00
             636.00,72.00 635.00,72.00 635.00,72.00 Z
           M 685.00,74.00
           C 685.00,74.00 685.00,75.00 685.00,75.00
             685.00,75.00 686.00,74.00 686.00,74.00
             686.00,74.00 685.00,74.00 685.00,74.00 Z
           M 677.00,76.00
           C 677.00,76.00 677.00,77.00 677.00,77.00
             677.00,77.00 678.00,76.00 678.00,76.00
             678.00,76.00 677.00,76.00 677.00,76.00 Z
           M 681.00,76.00
           C 681.00,76.00 681.00,77.00 681.00,77.00
             681.00,77.00 682.00,76.00 682.00,76.00
             682.00,76.00 681.00,76.00 681.00,76.00 Z
           M 679.00,79.00
           C 679.00,79.00 679.00,80.00 679.00,80.00
             679.00,80.00 680.00,79.00 680.00,79.00
             680.00,79.00 679.00,79.00 679.00,79.00 Z
           M 666.00,104.00
           C 666.00,104.00 666.00,105.00 666.00,105.00
             666.00,105.00 667.00,104.00 667.00,104.00
             667.00,104.00 666.00,104.00 666.00,104.00 Z
           M 667.00,107.00
           C 667.00,107.00 667.00,108.00 667.00,108.00
             667.00,108.00 668.00,107.00 668.00,107.00
             668.00,107.00 667.00,107.00 667.00,107.00 Z
           M 663.00,109.00
           C 663.00,109.00 663.00,110.00 663.00,110.00
             663.00,110.00 664.00,109.00 664.00,109.00
             664.00,109.00 663.00,109.00 663.00,109.00 Z
           M 662.00,111.00
           C 662.00,111.00 662.00,112.00 662.00,112.00
             662.00,112.00 663.00,111.00 663.00,111.00
             663.00,111.00 662.00,111.00 662.00,111.00 Z
           M 661.00,113.00
           C 661.00,113.00 661.00,114.00 661.00,114.00
             661.00,114.00 662.00,113.00 662.00,113.00
             662.00,113.00 661.00,113.00 661.00,113.00 Z
           M 660.00,115.00
           C 660.00,115.00 660.00,116.00 660.00,116.00
             660.00,116.00 661.00,115.00 661.00,115.00
             661.00,115.00 660.00,115.00 660.00,115.00 Z
           M 632.00,116.00
           C 632.00,116.00 632.00,117.00 632.00,117.00
             632.00,117.00 633.00,116.00 633.00,116.00
             633.00,116.00 632.00,116.00 632.00,116.00 Z
           M 427.00,117.00
           C 427.00,117.00 427.00,118.00 427.00,118.00
             427.00,118.00 428.00,117.00 428.00,117.00
             428.00,117.00 427.00,117.00 427.00,117.00 Z
           M 659.00,117.00
           C 659.00,117.00 659.00,118.00 659.00,118.00
             659.00,118.00 660.00,117.00 660.00,117.00
             660.00,117.00 659.00,117.00 659.00,117.00 Z
           M 658.00,119.00
           C 658.00,119.00 658.00,120.00 658.00,120.00
             658.00,120.00 659.00,119.00 659.00,119.00
             659.00,119.00 658.00,119.00 658.00,119.00 Z
           M 657.00,122.00
           C 657.00,122.00 657.00,123.00 657.00,123.00
             657.00,123.00 658.00,122.00 658.00,122.00
             658.00,122.00 657.00,122.00 657.00,122.00 Z
           M 656.00,124.00
           C 656.00,124.00 656.00,125.00 656.00,125.00
             656.00,125.00 657.00,124.00 657.00,124.00
             657.00,124.00 656.00,124.00 656.00,124.00 Z
           M 655.00,126.00
           C 655.00,126.00 655.00,127.00 655.00,127.00
             655.00,127.00 656.00,126.00 656.00,126.00
             656.00,126.00 655.00,126.00 655.00,126.00 Z
           M 654.00,128.00
           C 654.00,128.00 654.00,129.00 654.00,129.00
             654.00,129.00 655.00,128.00 655.00,128.00
             655.00,128.00 654.00,128.00 654.00,128.00 Z
           M 653.00,130.00
           C 653.00,130.00 653.00,131.00 653.00,131.00
             653.00,131.00 654.00,130.00 654.00,130.00
             654.00,130.00 653.00,130.00 653.00,130.00 Z
           M 651.00,135.00
           C 651.00,135.00 651.00,136.00 651.00,136.00
             651.00,136.00 652.00,135.00 652.00,135.00
             652.00,135.00 651.00,135.00 651.00,135.00 Z
           M 649.00,140.00
           C 649.00,140.00 649.00,141.00 649.00,141.00
             649.00,141.00 650.00,140.00 650.00,140.00
             650.00,140.00 649.00,140.00 649.00,140.00 Z
           M 648.00,142.00
           C 648.00,142.00 648.00,143.00 648.00,143.00
             648.00,143.00 649.00,142.00 649.00,142.00
             649.00,142.00 648.00,142.00 648.00,142.00 Z
           M 645.00,150.00
           C 645.00,150.00 645.00,151.00 645.00,151.00
             645.00,151.00 646.00,150.00 646.00,150.00
             646.00,150.00 645.00,150.00 645.00,150.00 Z
           M 643.00,155.00
           C 643.00,155.00 643.00,156.00 643.00,156.00
             643.00,156.00 644.00,155.00 644.00,155.00
             644.00,155.00 643.00,155.00 643.00,155.00 Z
           M 642.00,159.00
           C 642.00,159.00 642.00,160.00 642.00,160.00
             642.00,160.00 643.00,159.00 643.00,159.00
             643.00,159.00 642.00,159.00 642.00,159.00 Z
           M 639.00,167.00
           C 639.00,167.00 638.00,173.00 638.00,173.00
             638.00,173.00 639.00,167.00 639.00,167.00 Z
           M 640.00,173.00
           C 640.00,173.00 640.00,174.00 640.00,174.00
             640.00,174.00 641.00,173.00 641.00,173.00
             641.00,173.00 640.00,173.00 640.00,173.00 Z
           M 639.00,176.00
           C 639.00,176.00 639.00,177.00 639.00,177.00
             639.00,177.00 640.00,176.00 640.00,176.00
             640.00,176.00 639.00,176.00 639.00,176.00 Z
           M 638.00,179.00
           C 638.00,179.00 638.00,180.00 638.00,180.00
             638.00,180.00 639.00,179.00 639.00,179.00
             639.00,179.00 638.00,179.00 638.00,179.00 Z
           M 635.00,182.00
           C 635.00,182.00 635.00,183.00 635.00,183.00
             635.00,183.00 636.00,182.00 636.00,182.00
             636.00,182.00 635.00,182.00 635.00,182.00 Z
           M 633.00,189.00
           C 633.00,189.00 633.00,190.00 633.00,190.00
             633.00,190.00 634.00,189.00 634.00,189.00
             634.00,189.00 633.00,189.00 633.00,189.00 Z
           M 630.00,201.00
           C 630.00,201.00 630.00,202.00 630.00,202.00
             630.00,202.00 631.00,201.00 631.00,201.00
             631.00,201.00 630.00,201.00 630.00,201.00 Z
           M 619.00,260.00
           C 619.00,260.00 619.00,261.00 619.00,261.00
             619.00,261.00 620.00,260.00 620.00,260.00
             620.00,260.00 619.00,260.00 619.00,260.00 Z
           M 616.00,282.00
           C 616.00,282.00 616.00,283.00 616.00,283.00
             616.00,283.00 617.00,282.00 617.00,282.00
             617.00,282.00 616.00,282.00 616.00,282.00 Z
           M 616.00,284.00
           C 616.00,284.00 616.00,285.00 616.00,285.00
             616.00,285.00 617.00,284.00 617.00,284.00
             617.00,284.00 616.00,284.00 616.00,284.00 Z
           M 615.00,287.00
           C 615.00,287.00 614.00,305.00 614.00,305.00
             615.46,301.32 616.46,290.69 615.00,287.00 Z
           M 614.00,306.00
           C 614.00,306.00 613.00,317.00 613.00,317.00
             614.37,313.65 615.15,309.47 614.00,306.00 Z
           M 612.00,321.00
           C 612.00,321.00 612.00,333.00 612.00,333.00
             613.46,329.31 613.46,324.69 612.00,321.00 Z
           M 330.00,419.00
           C 330.78,414.73 327.76,407.65 326.92,403.00
             323.96,386.54 322.94,380.82 325.59,364.00
             326.52,358.10 326.92,352.63 331.00,348.00
             331.58,336.56 346.13,327.26 357.00,330.65
             364.54,333.00 364.91,339.54 375.00,338.00
             375.00,338.00 377.00,340.00 377.00,340.00
             377.00,340.00 376.00,343.00 376.00,343.00
             376.00,343.00 380.78,345.64 380.78,345.64
             380.78,345.64 391.56,359.01 391.56,359.01
             391.56,359.01 398.00,368.00 398.00,368.00
             398.00,368.00 396.00,369.00 396.00,369.00
             404.60,376.19 405.59,385.80 408.48,396.00
             414.27,417.04 417.29,441.37 408.48,462.00
             405.46,469.25 401.07,473.59 397.00,480.00
             397.00,480.00 417.00,474.65 417.00,474.65
             417.00,474.65 442.00,468.66 442.00,468.66
             442.00,468.66 465.04,463.68 465.04,463.68
             478.40,460.15 489.89,454.59 504.00,457.00
             505.51,453.21 517.15,455.36 521.00,455.26
             532.34,454.96 550.82,456.82 562.00,459.00
             566.57,459.89 573.35,460.30 577.00,463.00
             582.22,462.17 589.84,463.67 594.00,467.00
             598.54,466.81 606.37,468.28 610.00,471.00
             610.00,471.00 614.00,470.00 614.00,470.00
             614.00,470.00 614.00,472.00 614.00,472.00
             623.65,471.47 630.71,476.92 637.42,476.56
             649.17,475.93 662.09,454.19 665.00,444.00
             665.00,444.00 657.00,444.00 657.00,444.00
             657.00,444.00 657.58,450.74 657.58,450.74
             657.58,450.74 647.00,465.00 647.00,465.00
             647.00,465.00 650.00,463.00 650.00,463.00
             646.63,467.18 645.01,466.57 640.00,468.00
             640.00,468.00 638.00,475.00 638.00,475.00
             638.00,475.00 632.00,473.00 632.00,473.00
             632.00,473.00 633.00,471.00 633.00,471.00
             633.00,471.00 632.00,470.00 632.00,470.00
             632.00,470.00 611.00,466.52 611.00,466.52
             611.00,466.52 603.00,462.56 603.00,462.56
             603.00,462.56 595.28,461.98 595.28,461.98
             595.28,461.98 581.00,459.00 581.00,459.00
             581.00,459.00 581.00,454.00 581.00,454.00
             581.00,454.00 564.91,455.59 564.91,455.59
             564.91,455.59 548.00,453.00 548.00,453.00
             548.00,453.00 545.00,455.00 545.00,455.00
             545.00,455.00 546.00,453.00 546.00,453.00
             546.00,453.00 539.00,453.00 539.00,453.00
             539.00,453.00 542.00,449.00 542.00,449.00
             542.00,449.00 549.00,447.00 549.00,447.00
             549.00,447.00 549.00,445.00 549.00,445.00
             549.00,445.00 541.00,444.00 541.00,444.00
             541.00,444.00 541.00,428.00 541.00,428.00
             541.00,428.00 501.00,428.00 501.00,428.00
             501.00,428.00 501.00,433.00 501.00,433.00
             501.00,433.00 509.00,433.00 509.00,433.00
             509.00,433.00 509.00,436.00 509.00,436.00
             509.00,436.00 533.00,436.00 533.00,436.00
             533.00,436.00 533.00,444.00 533.00,444.00
             533.00,444.00 537.00,444.00 537.00,444.00
             537.00,444.00 533.00,447.00 533.00,447.00
             533.00,447.00 534.00,451.00 534.00,451.00
             526.71,452.77 508.79,452.63 501.00,452.00
             501.00,452.00 502.00,454.00 502.00,454.00
             502.00,454.00 491.00,454.00 491.00,454.00
             491.00,454.00 490.00,451.00 490.00,451.00
             504.95,447.47 496.18,450.71 509.00,450.00
             503.32,443.35 500.64,446.88 494.00,447.83
             494.00,447.83 485.00,447.83 485.00,447.83
             484.76,454.91 480.84,454.43 475.00,454.00
             472.62,460.42 469.77,458.63 464.00,459.09
             464.00,459.09 456.17,460.73 456.17,460.73
             456.17,460.73 445.00,460.00 445.00,460.00
             445.00,460.00 445.00,461.00 445.00,461.00
             445.00,461.00 447.00,463.00 447.00,463.00
             447.00,463.00 446.00,465.00 446.00,465.00
             440.50,466.78 430.76,468.25 425.00,467.91
             421.70,467.72 418.13,466.10 417.00,470.00
             417.00,470.00 410.00,470.00 410.00,470.00
             410.00,470.00 411.00,463.00 411.00,463.00
             411.00,463.00 412.00,465.00 412.00,465.00
             412.00,465.00 412.00,460.00 412.00,460.00
             412.00,460.00 417.00,458.00 417.00,458.00
             419.15,461.68 423.62,466.41 426.00,460.00
             426.00,460.00 420.00,459.00 420.00,459.00
             422.28,450.73 418.20,452.26 417.69,447.07
             417.54,445.55 418.62,442.66 419.00,441.00
             419.00,441.00 423.00,444.00 423.00,444.00
             423.00,444.00 423.00,436.00 423.00,436.00
             423.00,436.00 429.00,436.00 429.00,436.00
             429.00,436.00 429.00,433.00 429.00,433.00
             429.00,433.00 437.00,433.00 437.00,433.00
             437.00,433.00 437.00,428.00 437.00,428.00
             437.00,428.00 421.00,428.00 421.00,428.00
             421.00,428.00 421.00,424.00 421.00,424.00
             421.00,424.00 420.00,428.00 420.00,428.00
             420.00,428.00 418.38,415.09 418.38,415.09
             418.38,415.09 421.00,406.00 421.00,406.00
             421.00,406.00 417.00,405.00 417.00,405.00
             417.00,405.00 429.00,404.00 429.00,404.00
             429.00,404.00 429.00,400.00 429.00,400.00
             429.00,400.00 445.00,400.00 445.00,400.00
             445.00,400.00 445.00,407.00 445.00,407.00
             445.00,407.00 501.00,407.00 501.00,407.00
             501.00,407.00 501.00,400.00 501.00,400.00
             501.00,400.00 541.00,400.00 541.00,400.00
             541.00,400.00 541.00,396.00 541.00,396.00
             541.00,396.00 544.00,396.00 544.00,396.00
             544.00,396.00 544.00,388.00 544.00,388.00
             544.00,388.00 565.00,387.40 565.00,387.40
             565.00,387.40 573.00,381.00 573.00,381.00
             573.00,381.00 571.00,372.00 571.00,372.00
             571.00,372.00 597.00,372.00 597.00,372.00
             597.00,372.00 597.00,364.00 597.00,364.00
             597.00,364.00 613.00,364.00 613.00,364.00
             613.00,364.00 613.00,356.00 613.00,356.00
             613.00,356.00 621.00,356.00 621.00,356.00
             621.00,356.00 621.00,372.00 621.00,372.00
             623.44,365.85 621.15,355.68 621.00,349.00
             621.00,349.00 648.00,349.00 648.00,349.00
             645.01,358.20 645.00,352.37 645.00,364.00
             645.00,364.00 629.00,364.00 629.00,364.00
             629.00,364.00 628.00,380.00 628.00,380.00
             628.00,380.00 605.00,380.00 605.00,380.00
             605.00,380.00 613.00,381.00 613.00,381.00
             613.00,381.00 613.00,385.00 613.00,385.00
             616.85,384.99 619.39,385.88 621.00,382.00
             622.79,383.73 624.75,385.85 627.00,386.98
             629.96,388.46 636.42,388.88 638.43,385.71
             640.41,382.58 640.00,375.72 640.00,372.00
             640.00,372.00 644.00,372.00 644.00,372.00
             644.00,372.00 644.00,382.00 644.00,382.00
             644.00,382.00 645.00,372.00 645.00,372.00
             654.04,372.00 654.18,372.58 661.00,366.00
             661.00,366.00 661.00,377.00 661.00,377.00
             661.00,377.00 665.00,375.00 665.00,375.00
             665.00,375.00 665.00,396.00 665.00,396.00
             665.00,396.00 667.00,386.00 667.00,386.00
             672.06,391.32 671.00,397.16 671.00,404.00
             671.00,404.00 670.00,396.00 670.00,396.00
             670.00,396.00 669.00,411.00 669.00,411.00
             669.00,411.00 666.00,438.00 666.00,438.00
             666.00,438.00 664.00,442.00 664.00,442.00
             668.02,439.39 668.50,435.43 669.63,431.00
             671.42,423.94 673.91,411.12 674.00,404.00
             674.13,392.74 672.67,375.48 667.83,365.28
             666.33,362.13 662.34,356.72 660.08,354.00
             657.29,350.66 653.00,345.81 648.91,344.14
             645.42,342.72 640.75,342.99 637.00,343.00
             627.02,343.01 618.85,345.68 618.43,345.65
             616.78,345.55 616.22,344.80 615.00,344.00
             615.00,344.00 612.00,346.00 612.00,346.00
             612.00,346.00 612.00,335.00 612.00,335.00
             610.18,339.58 611.83,342.93 609.40,345.13
             606.62,347.65 593.13,348.67 589.00,349.10
             589.00,349.10 581.00,350.81 581.00,350.81
             581.00,350.81 546.00,354.00 546.00,354.00
             535.37,354.12 523.37,354.41 512.91,352.89
             512.91,352.89 491.00,348.01 491.00,348.01
             491.00,348.01 439.00,336.80 439.00,336.80
             439.00,336.80 428.00,334.32 428.00,334.32
             414.02,331.89 381.68,327.94 368.00,328.00
             368.00,328.00 354.00,329.00 354.00,329.00
             349.79,329.05 344.92,328.58 341.00,330.23
             332.23,333.90 325.83,348.04 324.32,357.00
             324.32,357.00 322.74,379.00 322.74,379.00
             322.21,393.59 325.29,405.42 330.00,419.00 Z
           M 385.00,333.00
           C 385.00,333.00 385.00,338.00 385.00,338.00
             385.00,338.00 385.00,333.00 385.00,333.00 Z
           M 340.00,339.00
           C 340.00,339.00 340.00,340.00 340.00,340.00
             340.00,340.00 341.00,339.00 341.00,339.00
             341.00,339.00 340.00,339.00 340.00,339.00 Z
           M 366.00,339.00
           C 366.00,339.00 366.00,340.00 366.00,340.00
             366.00,340.00 367.00,339.00 367.00,339.00
             367.00,339.00 366.00,339.00 366.00,339.00 Z
           M 389.00,340.00
           C 389.00,340.00 389.00,341.00 389.00,341.00
             389.00,341.00 388.00,340.00 388.00,340.00
             388.00,340.00 389.00,340.00 389.00,340.00 Z
           M 459.00,346.00
           C 459.00,346.00 459.00,347.00 459.00,347.00
             459.00,347.00 458.00,346.00 458.00,346.00
             458.00,346.00 459.00,346.00 459.00,346.00 Z
           M 461.00,346.00
           C 461.00,346.00 461.00,347.00 461.00,347.00
             461.00,347.00 460.00,346.00 460.00,346.00
             460.00,346.00 461.00,346.00 461.00,346.00 Z
           M 403.00,349.00
           C 400.25,351.80 399.81,351.71 396.00,351.00
             396.00,351.00 396.00,349.00 396.00,349.00
             396.00,349.00 403.00,349.00 403.00,349.00 Z
           M 653.00,365.00
           C 653.00,365.00 647.00,364.00 647.00,364.00
             647.00,364.00 649.00,356.00 649.00,356.00
             656.49,356.87 658.01,359.36 653.00,365.00 Z
           M 405.00,365.00
           C 405.00,365.00 405.00,366.00 405.00,366.00
             405.00,366.00 404.00,365.00 404.00,365.00
             404.00,365.00 405.00,365.00 405.00,365.00 Z
           M 670.00,369.00
           C 670.00,369.00 670.00,370.00 670.00,370.00
             670.00,370.00 671.00,369.00 671.00,369.00
             671.00,369.00 670.00,369.00 670.00,369.00 Z
           M 341.00,375.00
           C 341.00,375.00 341.00,376.00 341.00,376.00
             341.00,376.00 342.00,375.00 342.00,375.00
             342.00,375.00 341.00,375.00 341.00,375.00 Z
           M 417.00,381.00
           C 417.00,381.00 415.00,388.00 415.00,388.00
             415.00,388.00 411.00,381.00 411.00,381.00
             411.00,381.00 417.00,381.00 417.00,381.00 Z
           M 413.00,388.00
           C 413.00,388.00 413.00,389.00 413.00,389.00
             413.00,389.00 412.00,388.00 412.00,388.00
             412.00,388.00 413.00,388.00 413.00,388.00 Z
           M 338.00,388.00
           C 338.00,388.00 338.00,389.00 338.00,389.00
             338.00,389.00 339.00,388.00 339.00,388.00
             339.00,388.00 338.00,388.00 338.00,388.00 Z
           M 581.00,388.00
           C 581.00,388.00 581.00,396.00 581.00,396.00
             581.00,396.00 573.00,396.00 573.00,396.00
             573.00,396.00 581.00,397.00 581.00,397.00
             581.00,397.00 581.00,409.00 581.00,409.00
             581.00,409.00 597.00,407.00 597.00,407.00
             597.00,407.00 597.00,401.00 597.00,401.00
             597.00,401.00 605.00,401.00 605.00,401.00
             605.00,401.00 605.00,398.00 605.00,398.00
             605.00,398.00 613.00,398.00 613.00,398.00
             613.00,398.00 613.00,396.00 613.00,396.00
             613.00,396.00 582.00,396.00 582.00,396.00
             582.00,396.00 581.00,388.00 581.00,388.00 Z
           M 421.00,396.00
           C 421.00,396.00 421.00,402.00 421.00,402.00
             421.00,402.00 417.00,402.00 417.00,402.00
             417.00,402.00 416.00,396.00 416.00,396.00
             416.00,396.00 421.00,396.00 421.00,396.00 Z
           M 621.00,404.00
           C 621.00,404.00 621.00,412.00 621.00,412.00
             621.00,412.00 623.00,412.00 623.00,412.00
             623.00,412.00 623.00,404.00 623.00,404.00
             623.00,404.00 621.00,404.00 621.00,404.00 Z
           M 589.00,410.00
           C 589.00,410.00 589.00,412.00 589.00,412.00
             589.00,412.00 597.00,412.00 597.00,412.00
             597.00,412.00 597.00,410.00 597.00,410.00
             597.00,410.00 589.00,410.00 589.00,410.00 Z
           M 342.00,411.00
           C 342.00,411.00 342.00,412.00 342.00,412.00
             342.00,412.00 343.00,411.00 343.00,411.00
             343.00,411.00 342.00,411.00 342.00,411.00 Z
           M 445.00,411.00
           C 445.00,411.00 463.00,412.00 463.00,412.00
             463.00,412.00 501.00,412.00 501.00,412.00
             501.00,412.00 483.00,411.00 483.00,411.00
             483.00,411.00 445.00,411.00 445.00,411.00 Z
           M 525.00,412.00
           C 525.00,412.00 525.00,420.00 525.00,420.00
             526.25,416.83 526.25,415.17 525.00,412.00 Z
           M 565.00,412.00
           C 565.00,412.00 565.00,419.00 565.00,419.00
             565.00,419.00 557.00,419.00 557.00,419.00
             561.83,420.91 579.74,420.00 586.00,420.00
             586.00,420.00 586.00,412.00 586.00,412.00
             586.00,412.00 565.00,412.00 565.00,412.00 Z
           M 661.00,413.00
           C 661.00,413.00 661.00,421.00 661.00,421.00
             661.00,421.00 663.00,421.00 663.00,421.00
             663.00,421.00 663.00,413.00 663.00,413.00
             663.00,413.00 661.00,413.00 661.00,413.00 Z
           M 331.00,421.00
           C 331.00,421.00 331.00,422.00 331.00,422.00
             331.00,422.00 332.00,421.00 332.00,421.00
             332.00,421.00 331.00,421.00 331.00,421.00 Z
           M 332.00,423.00
           C 332.00,423.00 332.00,424.00 332.00,424.00
             332.00,424.00 333.00,423.00 333.00,423.00
             333.00,423.00 332.00,423.00 332.00,423.00 Z
           M 333.00,425.00
           C 333.00,425.00 333.00,426.00 333.00,426.00
             333.00,426.00 334.00,425.00 334.00,425.00
             334.00,425.00 333.00,425.00 333.00,425.00 Z
           M 336.00,432.00
           C 336.00,432.00 336.00,433.00 336.00,433.00
             336.00,433.00 337.00,432.00 337.00,432.00
             337.00,432.00 336.00,432.00 336.00,432.00 Z
           M 557.00,436.00
           C 557.00,436.00 557.00,438.00 557.00,438.00
             557.00,438.00 565.00,438.00 565.00,438.00
             565.00,438.00 565.00,436.00 565.00,436.00
             565.00,436.00 557.00,436.00 557.00,436.00 Z
           M 663.00,436.00
           C 663.00,436.00 663.00,437.00 663.00,437.00
             663.00,437.00 664.00,436.00 664.00,436.00
             664.00,436.00 663.00,436.00 663.00,436.00 Z
           M 501.00,439.00
           C 501.00,439.00 501.00,444.00 501.00,444.00
             501.00,444.00 517.00,443.00 517.00,443.00
             517.00,443.00 517.00,439.00 517.00,439.00
             517.00,439.00 501.00,439.00 501.00,439.00 Z
           M 475.00,445.00
           C 475.00,445.00 484.00,448.00 484.00,448.00
             484.00,448.00 485.00,443.00 485.00,443.00
             485.00,443.00 475.00,445.00 475.00,445.00 Z
           M 518.00,444.00
           C 521.90,446.89 527.39,445.27 532.00,446.00
             529.14,442.81 522.11,444.00 518.00,444.00 Z
           M 662.00,446.00
           C 662.00,446.00 662.00,447.00 662.00,447.00
             662.00,447.00 661.00,446.00 661.00,446.00
             661.00,446.00 662.00,446.00 662.00,446.00 Z
           M 549.00,448.00
           C 549.00,448.00 550.00,453.00 550.00,453.00
             550.00,453.00 564.00,450.00 564.00,450.00
             560.84,446.47 553.41,447.84 549.00,448.00 Z
           M 536.00,451.00
           C 536.00,451.00 536.00,452.00 536.00,452.00
             536.00,452.00 535.00,451.00 535.00,451.00
             535.00,451.00 536.00,451.00 536.00,451.00 Z
           M 571.00,455.00
           C 571.00,455.00 571.00,456.00 571.00,456.00
             571.00,456.00 570.00,455.00 570.00,455.00
             570.00,455.00 571.00,455.00 571.00,455.00 Z
           M 542.00,457.00
           C 542.00,457.00 542.00,458.00 542.00,458.00
             542.00,458.00 543.00,457.00 543.00,457.00
             543.00,457.00 542.00,457.00 542.00,457.00 Z
           M 461.00,461.00
           C 461.00,461.00 461.00,462.00 461.00,462.00
             461.00,462.00 460.00,461.00 460.00,461.00
             460.00,461.00 461.00,461.00 461.00,461.00 Z
           M 457.00,462.00
           C 457.00,462.00 457.00,463.00 457.00,463.00
             457.00,463.00 456.00,462.00 456.00,462.00
             456.00,462.00 457.00,462.00 457.00,462.00 Z
           M 445.00,470.00
           C 445.00,470.00 445.00,471.00 445.00,471.00
             445.00,471.00 446.00,470.00 446.00,470.00
             446.00,470.00 445.00,470.00 445.00,470.00 Z
           M 414.00,472.00
           C 414.00,472.00 414.00,473.00 414.00,473.00
             414.00,473.00 413.00,472.00 413.00,472.00
             413.00,472.00 414.00,472.00 414.00,472.00 Z
           M 440.00,471.00
           C 440.00,471.00 440.00,472.00 440.00,472.00
             440.00,472.00 441.00,471.00 441.00,471.00
             441.00,471.00 440.00,471.00 440.00,471.00 Z
           M 619.00,473.00
           C 619.00,473.00 619.00,474.00 619.00,474.00
             619.00,474.00 620.00,473.00 620.00,473.00
             620.00,473.00 619.00,473.00 619.00,473.00 Z
           M 419.00,475.00
           C 419.00,475.00 419.00,476.00 419.00,476.00
             419.00,476.00 420.00,475.00 420.00,475.00
             420.00,475.00 419.00,475.00 419.00,475.00 Z
           M 400.00,478.00
           C 400.00,478.00 400.00,479.00 400.00,479.00
             400.00,479.00 399.00,478.00 399.00,478.00
             399.00,478.00 400.00,478.00 400.00,478.00 Z" />
</svg>
