<?xml version="1.0" encoding="UTF-8" standalone="no"?>
<!DOCTYPE svg PUBLIC "-//W3C//DTD SVG 20010904//EN"
              "http://www.w3.org/TR/2001/REC-SVG-20010904/DTD/svg10.dtd">

<svg xmlns="http://www.w3.org/2000/svg"
     width="80.8568mm" height="42.9261mm"
     viewBox="0 0 955 507">
  <path id="Selezione #20"
        fill="none" stroke="black" stroke-width="1"
        d="M 723.00,12.00
           C 723.00,12.00 723.00,13.00 723.00,13.00
             723.00,13.00 724.00,12.00 724.00,12.00
             724.00,12.00 723.00,12.00 723.00,12.00 Z
           M 722.00,14.00
           C 722.00,14.00 720.00,16.00 720.00,16.00
             720.00,16.00 720.00,17.00 720.00,17.00
             720.00,17.00 722.00,14.00 722.00,14.00 Z
           M 717.00,20.00
           C 717.00,20.00 717.00,21.00 717.00,21.00
             717.00,21.00 718.00,20.00 718.00,20.00
             718.00,20.00 717.00,20.00 717.00,20.00 Z
           M 715.00,23.00
           C 715.00,23.00 708.00,35.00 708.00,35.00
             710.71,32.04 715.00,27.05 715.00,23.00 Z
           M 706.00,36.00
           C 706.00,36.00 706.00,37.00 706.00,37.00
             706.00,37.00 707.00,36.00 707.00,36.00
             707.00,36.00 706.00,36.00 706.00,36.00 Z
           M 703.00,41.00
           C 703.00,41.00 703.00,42.00 703.00,42.00
             703.00,42.00 704.00,41.00 704.00,41.00
             704.00,41.00 703.00,41.00 703.00,41.00 Z
           M 701.00,44.00
           C 701.00,44.00 701.00,45.00 701.00,45.00
             701.00,45.00 702.00,44.00 702.00,44.00
             702.00,44.00 701.00,44.00 701.00,44.00 Z
           M 700.00,46.00
           C 700.00,46.00 700.00,47.00 700.00,47.00
             700.00,47.00 701.00,46.00 701.00,46.00
             701.00,46.00 700.00,46.00 700.00,46.00 Z
           M 698.00,49.00
           C 698.00,49.00 698.00,50.00 698.00,50.00
             698.00,50.00 699.00,49.00 699.00,49.00
             699.00,49.00 698.00,49.00 698.00,49.00 Z
           M 697.00,51.00
           C 697.00,51.00 697.00,52.00 697.00,52.00
             697.00,52.00 698.00,51.00 698.00,51.00
             698.00,51.00 697.00,51.00 697.00,51.00 Z
           M 690.00,63.00
           C 690.00,63.00 690.00,64.00 690.00,64.00
             690.00,64.00 691.00,63.00 691.00,63.00
             691.00,63.00 690.00,63.00 690.00,63.00 Z
           M 685.00,71.00
           C 685.00,71.00 685.00,72.00 685.00,72.00
             685.00,72.00 686.00,71.00 686.00,71.00
             686.00,71.00 685.00,71.00 685.00,71.00 Z
           M 683.00,76.00
           C 683.00,76.00 683.00,77.00 683.00,77.00
             683.00,77.00 684.00,76.00 684.00,76.00
             684.00,76.00 683.00,76.00 683.00,76.00 Z
           M 666.00,106.00
           C 666.00,106.00 666.00,107.00 666.00,107.00
             666.00,107.00 667.00,106.00 667.00,106.00
             667.00,106.00 666.00,106.00 666.00,106.00 Z
           M 633.00,115.00
           C 633.00,115.00 633.00,116.00 633.00,116.00
             633.00,116.00 634.00,115.00 634.00,115.00
             634.00,115.00 633.00,115.00 633.00,115.00 Z
           M 643.00,159.00
           C 643.00,159.00 643.00,160.00 643.00,160.00
             643.00,160.00 644.00,159.00 644.00,159.00
             644.00,159.00 643.00,159.00 643.00,159.00 Z
           M 639.00,171.00
           C 639.00,171.00 639.00,172.00 639.00,172.00
             639.00,172.00 640.00,171.00 640.00,171.00
             640.00,171.00 639.00,171.00 639.00,171.00 Z
           M 905.00,198.00
           C 905.00,198.00 905.00,199.00 905.00,199.00
             905.00,199.00 906.00,198.00 906.00,198.00
             906.00,198.00 905.00,198.00 905.00,198.00 Z
           M 903.00,199.00
           C 903.00,199.00 903.00,200.00 903.00,200.00
             903.00,200.00 904.00,199.00 904.00,199.00
             904.00,199.00 903.00,199.00 903.00,199.00 Z
           M 901.00,200.00
           C 901.00,200.00 897.00,202.00 897.00,202.00
             897.00,202.00 902.00,201.00 902.00,201.00
             902.00,201.00 901.00,200.00 901.00,200.00 Z
           M 889.00,204.00
           C 889.00,204.00 889.00,205.00 889.00,205.00
             889.00,205.00 890.00,204.00 890.00,204.00
             890.00,204.00 889.00,204.00 889.00,204.00 Z
           M 861.00,209.00
           C 861.00,209.00 861.00,210.00 861.00,210.00
             861.00,210.00 862.00,209.00 862.00,209.00
             862.00,209.00 861.00,209.00 861.00,209.00 Z
           M 307.00,272.00
           C 307.00,272.00 307.00,273.00 307.00,273.00
             307.00,273.00 308.00,272.00 308.00,272.00
             308.00,272.00 307.00,272.00 307.00,272.00 Z
           M 307.00,274.00
           C 307.00,274.00 307.00,275.00 307.00,275.00
             307.00,275.00 308.00,274.00 308.00,274.00
             308.00,274.00 307.00,274.00 307.00,274.00 Z
           M 344.00,377.00
           C 346.90,374.51 350.52,370.10 354.58,370.03
             358.51,369.97 363.29,374.23 365.68,377.02
             372.14,384.54 375.54,393.36 377.39,403.00
             377.74,404.85 378.79,410.33 378.52,411.94
             377.85,415.96 374.26,415.94 371.00,416.00
             371.00,416.00 365.00,416.00 365.00,416.00
             365.00,416.00 378.00,417.00 378.00,417.00
             377.90,428.85 375.21,458.98 357.00,452.75
             354.63,451.94 353.02,450.97 351.00,449.51
             348.23,447.50 346.24,445.56 344.00,443.00
             343.76,447.28 348.39,453.84 352.00,456.00
             352.97,461.14 356.34,463.00 359.41,467.00
             366.35,476.05 364.00,476.08 374.58,481.13
             377.07,482.32 378.53,483.35 381.42,483.69
             384.12,484.00 387.20,483.19 390.00,483.00
             390.00,483.00 391.00,480.00 391.00,480.00
             391.00,480.00 395.00,482.00 395.00,482.00
             395.00,482.00 393.00,480.00 393.00,480.00
             400.69,476.96 404.91,469.23 408.03,462.00
             416.51,443.81 412.94,414.84 408.03,396.00
             406.62,391.45 402.20,375.32 399.30,372.60
             397.22,370.65 386.19,370.04 383.00,369.87
             383.00,369.87 363.00,369.87 363.00,369.87
             356.57,369.86 350.70,364.65 344.00,377.00 Z
           M 669.00,368.00
           C 669.00,368.00 669.00,369.00 669.00,369.00
             669.00,369.00 670.00,368.00 670.00,368.00
             670.00,368.00 669.00,368.00 669.00,368.00 Z
           M 343.00,378.00
           C 343.00,378.00 342.00,383.00 342.00,383.00
             342.00,383.00 343.00,378.00 343.00,378.00 Z
           M 673.00,383.00
           C 673.00,383.00 674.00,403.00 674.00,403.00
             673.97,420.64 668.00,441.76 659.12,457.00
             659.12,457.00 653.00,466.00 653.00,466.00
             659.53,461.96 659.88,459.52 663.30,453.00
             668.99,442.13 674.94,422.27 675.00,410.00
             675.03,403.12 676.22,388.55 673.00,383.00 Z
           M 341.00,384.00
           C 341.00,384.00 341.00,389.00 341.00,389.00
             341.00,389.00 341.00,384.00 341.00,384.00 Z
           M 344.00,410.00
           C 345.98,417.37 349.18,416.00 356.00,416.00
             349.01,413.22 350.67,417.27 344.00,410.00 Z
           M 365.00,456.00
           C 365.00,456.00 365.00,457.00 365.00,457.00
             365.00,457.00 364.00,456.00 364.00,456.00
             364.00,456.00 365.00,456.00 365.00,456.00 Z
           M 506.00,455.00
           C 506.00,455.00 511.00,456.00 511.00,456.00
             511.00,456.00 506.00,455.00 506.00,455.00 Z
           M 521.00,455.00
           C 521.00,455.00 527.00,456.00 527.00,456.00
             527.00,456.00 521.00,455.00 521.00,455.00 Z
           M 545.00,457.00
           C 545.00,457.00 550.00,458.00 550.00,458.00
             550.00,458.00 545.00,457.00 545.00,457.00 Z
           M 366.00,459.00
           C 366.00,459.00 366.00,460.00 366.00,460.00
             366.00,460.00 365.00,459.00 365.00,459.00
             365.00,459.00 366.00,459.00 366.00,459.00 Z
           M 365.00,464.00
           C 365.00,464.00 365.00,465.00 365.00,465.00
             365.00,465.00 364.00,464.00 364.00,464.00
             364.00,464.00 365.00,464.00 365.00,464.00 Z
           M 591.00,465.00
           C 591.00,465.00 591.00,466.00 591.00,466.00
             591.00,466.00 592.00,465.00 592.00,465.00
             592.00,465.00 591.00,465.00 591.00,465.00 Z
           M 403.00,468.00
           C 403.00,468.00 403.00,469.00 403.00,469.00
             403.00,469.00 402.00,468.00 402.00,468.00
             402.00,468.00 403.00,468.00 403.00,468.00 Z
           M 432.00,471.00
           C 437.03,472.84 443.85,470.03 449.00,469.00
             444.41,467.47 436.85,470.09 432.00,471.00 Z
           M 651.00,468.00
           C 651.00,468.00 651.00,469.00 651.00,469.00
             651.00,469.00 652.00,468.00 652.00,468.00
             652.00,468.00 651.00,468.00 651.00,468.00 Z
           M 649.00,470.00
           C 649.00,470.00 644.00,474.00 644.00,474.00
             647.08,473.97 648.19,472.95 649.00,470.00 Z
           M 623.00,474.00
           C 623.00,474.00 623.00,475.00 623.00,475.00
             623.00,475.00 624.00,474.00 624.00,474.00
             624.00,474.00 623.00,474.00 623.00,474.00 Z
           M 376.00,476.00
           C 376.00,476.00 376.00,477.00 376.00,477.00
             376.00,477.00 375.00,476.00 375.00,476.00
             375.00,476.00 376.00,476.00 376.00,476.00 Z
           M 381.00,476.00
           C 381.00,476.00 381.00,477.00 381.00,477.00
             381.00,477.00 380.00,476.00 380.00,476.00
             380.00,476.00 381.00,476.00 381.00,476.00 Z
           M 382.00,477.00
           C 382.00,477.00 382.00,478.00 382.00,478.00
             382.00,478.00 381.00,477.00 381.00,477.00
             381.00,477.00 382.00,477.00 382.00,477.00 Z
           M 392.00,477.00
           C 392.00,477.00 392.00,478.00 392.00,478.00
             392.00,478.00 391.00,477.00 391.00,477.00
             391.00,477.00 392.00,477.00 392.00,477.00 Z
           M 629.00,477.00
           C 629.00,477.00 633.00,477.00 633.00,477.00
             633.00,477.00 629.00,477.00 629.00,477.00 Z
           M 401.00,479.00
           C 401.00,479.00 410.00,478.00 410.00,478.00
             410.00,478.00 401.00,479.00 401.00,479.00 Z
           M 636.00,477.00
           C 636.00,477.00 636.00,478.00 636.00,478.00
             636.00,478.00 637.00,477.00 637.00,477.00
             637.00,477.00 636.00,477.00 636.00,477.00 Z
           M 390.00,481.00
           C 390.00,481.00 390.00,482.00 390.00,482.00
             390.00,482.00 389.00,481.00 389.00,481.00
             389.00,481.00 390.00,481.00 390.00,481.00 Z
           M 399.00,480.00
           C 399.00,480.00 399.00,481.00 399.00,481.00
             399.00,481.00 400.00,480.00 400.00,480.00
             400.00,480.00 399.00,480.00 399.00,480.00 Z" />
</svg>
