<?xml version="1.0" encoding="UTF-8" standalone="no"?>
<!DOCTYPE svg PUBLIC "-//W3C//DTD SVG 20010904//EN"
              "http://www.w3.org/TR/2001/REC-SVG-20010904/DTD/svg10.dtd">

<svg xmlns="http://www.w3.org/2000/svg"
     width="80.8568mm" height="42.9261mm"
     viewBox="0 0 955 507">
  <path id="Selezione #22"
        fill="none" stroke="black" stroke-width="1"
        d="M 724.00,10.00
           C 724.00,10.00 723.00,14.00 723.00,14.00
             723.00,14.00 724.00,10.00 724.00,10.00 Z
           M 721.00,14.00
           C 721.00,14.00 713.00,25.00 713.00,25.00
             713.00,25.00 723.00,15.00 723.00,15.00
             723.00,15.00 721.00,14.00 721.00,14.00 Z
           M 721.00,16.00
           C 721.00,16.00 721.00,17.00 721.00,17.00
             721.00,17.00 720.00,16.00 720.00,16.00
             720.00,16.00 721.00,16.00 721.00,16.00 Z
           M 714.00,26.00
           C 714.00,26.00 714.00,27.00 714.00,27.00
             714.00,27.00 715.00,26.00 715.00,26.00
             715.00,26.00 714.00,26.00 714.00,26.00 Z
           M 712.00,29.00
           C 712.00,29.00 712.00,30.00 712.00,30.00
             712.00,30.00 713.00,29.00 713.00,29.00
             713.00,29.00 712.00,29.00 712.00,29.00 Z
           M 671.00,31.00
           C 671.00,31.00 671.00,32.00 671.00,32.00
             671.00,32.00 672.00,31.00 672.00,31.00
             672.00,31.00 671.00,31.00 671.00,31.00 Z
           M 693.00,57.00
           C 693.00,57.00 696.00,56.00 696.00,56.00
             696.00,56.00 696.00,52.00 696.00,52.00
             699.01,51.26 698.81,51.04 699.00,48.00
             699.00,48.00 701.00,48.00 701.00,48.00
             701.00,48.00 700.00,46.00 700.00,46.00
             702.90,44.27 702.82,44.37 703.00,41.00
             706.25,40.15 705.99,39.17 706.00,36.00
             706.00,36.00 709.00,36.00 709.00,36.00
             709.00,36.00 708.00,33.00 708.00,33.00
             708.00,33.00 710.00,34.00 710.00,34.00
             710.00,34.00 711.00,33.00 711.00,33.00
             707.11,31.94 705.94,35.09 704.09,38.01
             700.48,43.70 695.70,50.96 693.00,57.00 Z
           M 676.00,39.00
           C 676.00,39.00 676.00,40.00 676.00,40.00
             676.00,40.00 677.00,39.00 677.00,39.00
             677.00,39.00 676.00,39.00 676.00,39.00 Z
           M 703.00,43.00
           C 703.00,43.00 703.00,44.00 703.00,44.00
             703.00,44.00 702.00,43.00 702.00,43.00
             702.00,43.00 703.00,43.00 703.00,43.00 Z
           M 702.00,44.00
           C 702.00,44.00 702.00,45.00 702.00,45.00
             702.00,45.00 701.00,44.00 701.00,44.00
             701.00,44.00 702.00,44.00 702.00,44.00 Z
           M 699.00,49.00
           C 699.00,49.00 699.00,50.00 699.00,50.00
             699.00,50.00 698.00,49.00 698.00,49.00
             698.00,49.00 699.00,49.00 699.00,49.00 Z
           M 698.00,51.00
           C 698.00,51.00 698.00,52.00 698.00,52.00
             698.00,52.00 697.00,51.00 697.00,51.00
             697.00,51.00 698.00,51.00 698.00,51.00 Z
           M 692.00,58.00
           C 692.00,58.00 692.00,59.00 692.00,59.00
             692.00,59.00 693.00,58.00 693.00,58.00
             693.00,58.00 692.00,58.00 692.00,58.00 Z
           M 691.00,60.00
           C 688.26,64.20 686.01,66.82 686.00,72.00
             686.00,72.00 688.00,66.00 688.00,66.00
             688.00,66.00 690.00,67.00 690.00,67.00
             690.00,67.00 693.00,60.00 693.00,60.00
             693.00,60.00 691.00,60.00 691.00,60.00 Z
           M 691.00,63.00
           C 691.00,63.00 691.00,64.00 691.00,64.00
             691.00,64.00 690.00,63.00 690.00,63.00
             690.00,63.00 691.00,63.00 691.00,63.00 Z
           M 654.00,69.00
           C 654.00,69.00 654.00,70.00 654.00,70.00
             654.00,70.00 655.00,69.00 655.00,69.00
             655.00,69.00 654.00,69.00 654.00,69.00 Z
           M 656.00,69.00
           C 656.00,69.00 656.00,70.00 656.00,70.00
             656.00,70.00 657.00,69.00 657.00,69.00
             657.00,69.00 656.00,69.00 656.00,69.00 Z
           M 661.00,69.00
           C 661.00,69.00 661.00,70.00 661.00,70.00
             661.00,70.00 662.00,69.00 662.00,69.00
             662.00,69.00 661.00,69.00 661.00,69.00 Z
           M 648.00,70.00
           C 648.00,70.00 648.00,71.00 648.00,71.00
             648.00,71.00 649.00,70.00 649.00,70.00
             649.00,70.00 648.00,70.00 648.00,70.00 Z
           M 684.00,72.00
           C 684.00,72.00 681.00,78.00 681.00,78.00
             681.00,78.00 683.00,75.00 683.00,75.00
             683.00,75.00 685.00,76.00 685.00,76.00
             685.00,76.00 684.00,72.00 684.00,72.00 Z
           M 676.00,74.00
           C 676.00,74.00 676.00,75.00 676.00,75.00
             676.00,75.00 677.00,74.00 677.00,74.00
             677.00,74.00 676.00,74.00 676.00,74.00 Z
           M 679.00,80.00
           C 679.00,80.00 683.00,80.00 683.00,80.00
             683.00,80.00 679.00,80.00 679.00,80.00 Z
           M 665.00,106.00
           C 665.00,106.00 668.00,107.00 668.00,107.00
             668.00,107.00 665.00,106.00 665.00,106.00 Z
           M 664.00,108.00
           C 661.40,114.05 656.91,120.26 657.00,127.00
             657.00,127.00 659.00,120.00 659.00,120.00
             659.00,120.00 661.00,120.00 661.00,120.00
             661.00,120.00 660.00,118.00 660.00,118.00
             660.00,118.00 662.00,118.00 662.00,118.00
             662.00,118.00 664.00,110.00 664.00,110.00
             664.00,110.00 666.00,111.00 666.00,111.00
             666.00,111.00 667.00,108.00 667.00,108.00
             667.00,108.00 664.00,108.00 664.00,108.00 Z
           M 633.00,116.00
           C 633.00,116.00 633.00,117.00 633.00,117.00
             633.00,117.00 634.00,116.00 634.00,116.00
             634.00,116.00 633.00,116.00 633.00,116.00 Z
           M 413.00,118.00
           C 413.00,118.00 413.00,119.00 413.00,119.00
             413.00,119.00 414.00,118.00 414.00,118.00
             414.00,118.00 413.00,118.00 413.00,118.00 Z
           M 655.00,127.00
           C 655.00,127.00 652.00,135.00 652.00,135.00
             654.43,132.34 655.79,130.69 655.00,127.00 Z
           M 650.00,139.00
           C 647.69,144.77 643.37,152.86 644.00,159.00
             644.00,159.00 644.00,156.00 644.00,156.00
             647.24,153.52 650.17,143.30 652.00,139.00
             652.00,139.00 650.00,139.00 650.00,139.00 Z
           M 642.00,159.00
           C 642.00,159.00 634.00,190.00 634.00,190.00
             634.00,190.00 644.00,162.00 644.00,162.00
             644.00,162.00 642.00,159.00 642.00,159.00 Z
           M 890.00,203.00
           C 895.35,204.49 902.09,200.09 907.00,198.00
             907.00,198.00 890.00,203.00 890.00,203.00 Z
           M 631.00,199.00
           C 631.00,199.00 631.00,200.00 631.00,200.00
             631.00,200.00 632.00,199.00 632.00,199.00
             632.00,199.00 631.00,199.00 631.00,199.00 Z
           M 630.00,202.00
           C 630.00,202.00 627.00,219.00 627.00,219.00
             629.67,214.85 631.72,206.71 630.00,202.00 Z
           M 866.00,207.00
           C 866.00,207.00 866.00,208.00 866.00,208.00
             866.00,208.00 867.00,207.00 867.00,207.00
             867.00,207.00 866.00,207.00 866.00,207.00 Z
           M 805.00,208.00
           C 805.00,208.00 805.00,209.00 805.00,209.00
             805.00,209.00 806.00,208.00 806.00,208.00
             806.00,208.00 805.00,208.00 805.00,208.00 Z
           M 859.00,209.00
           C 859.00,209.00 864.00,209.00 864.00,209.00
             864.00,209.00 859.00,209.00 859.00,209.00 Z
           M 809.00,211.00
           C 809.00,211.00 809.00,212.00 809.00,212.00
             809.00,212.00 810.00,211.00 810.00,211.00
             810.00,211.00 809.00,211.00 809.00,211.00 Z
           M 844.00,214.00
           C 844.00,214.00 852.00,213.00 852.00,213.00
             852.00,213.00 844.00,214.00 844.00,214.00 Z
           M 840.00,215.00
           C 840.00,215.00 844.00,217.00 844.00,217.00
             844.00,217.00 840.00,215.00 840.00,215.00 Z
           M 822.00,216.00
           C 825.92,218.00 827.76,218.11 832.00,217.00
             832.00,217.00 822.00,216.00 822.00,216.00 Z
           M 838.00,216.00
           C 838.00,216.00 838.00,217.00 838.00,217.00
             838.00,217.00 839.00,216.00 839.00,216.00
             839.00,216.00 838.00,216.00 838.00,216.00 Z
           M 626.00,221.00
           C 626.00,221.00 626.00,222.00 626.00,222.00
             626.00,222.00 627.00,221.00 627.00,221.00
             627.00,221.00 626.00,221.00 626.00,221.00 Z
           M 625.00,225.00
           C 625.00,225.00 623.00,242.00 623.00,242.00
             625.31,238.02 626.69,229.31 625.00,225.00 Z
           M 622.00,244.00
           C 622.00,244.00 622.00,245.00 622.00,245.00
             622.00,245.00 623.00,244.00 623.00,244.00
             623.00,244.00 622.00,244.00 622.00,244.00 Z
           M 621.00,248.00
           C 621.00,248.00 621.00,255.00 621.00,255.00
             621.00,255.00 621.00,248.00 621.00,248.00 Z
           M 620.00,257.00
           C 620.00,257.00 619.00,270.00 619.00,270.00
             620.39,266.52 621.29,260.53 620.00,257.00 Z
           M 304.00,271.00
           C 304.00,271.00 304.00,272.00 304.00,272.00
             304.00,272.00 305.00,271.00 305.00,271.00
             305.00,271.00 304.00,271.00 304.00,271.00 Z
           M 618.00,271.00
           C 618.00,271.00 618.00,272.00 618.00,272.00
             618.00,272.00 619.00,271.00 619.00,271.00
             619.00,271.00 618.00,271.00 618.00,271.00 Z
           M 307.00,278.00
           C 307.00,278.00 307.00,279.00 307.00,279.00
             307.00,279.00 308.00,278.00 308.00,278.00
             308.00,278.00 307.00,278.00 307.00,278.00 Z
           M 305.00,281.00
           C 305.00,281.00 305.00,282.00 305.00,282.00
             305.00,282.00 306.00,281.00 306.00,281.00
             306.00,281.00 305.00,281.00 305.00,281.00 Z
           M 616.00,283.00
           C 616.00,283.00 615.00,300.00 615.00,300.00
             616.67,296.39 618.94,285.89 616.00,283.00 Z
           M 614.00,312.00
           C 614.00,312.00 612.00,347.00 612.00,347.00
             612.00,347.00 614.00,347.00 614.00,347.00
             614.00,347.00 614.00,327.00 614.00,327.00
             614.00,327.00 614.00,312.00 614.00,312.00 Z
           M 342.00,440.00
           C 342.00,440.00 341.00,443.00 341.00,443.00
             347.06,445.72 347.68,448.45 353.00,451.47
             355.27,452.75 357.41,453.50 360.00,453.80
             361.60,454.02 364.41,454.04 366.00,453.80
             377.77,451.93 375.08,435.38 381.00,428.00
             381.00,428.00 381.00,426.00 381.00,426.00
             377.85,421.50 380.26,419.03 384.00,416.00
             384.00,416.00 383.00,412.00 383.00,412.00
             383.00,412.00 381.00,409.00 381.00,409.00
             379.82,412.36 380.39,412.92 382.00,416.00
             382.00,416.00 360.00,416.00 360.00,416.00
             360.00,416.00 348.21,415.42 348.21,415.42
             348.21,415.42 342.00,410.00 342.00,410.00
             342.00,410.00 344.00,411.00 344.00,411.00
             340.96,399.37 338.23,387.00 345.17,376.04
             346.78,373.50 349.15,370.70 352.09,369.71
             356.89,368.10 359.30,371.42 366.00,371.00
             366.00,371.00 368.00,378.00 368.00,378.00
             368.00,378.00 372.00,378.00 372.00,378.00
             372.00,378.00 373.00,371.00 373.00,371.00
             373.00,371.00 397.78,372.60 397.78,372.60
             397.78,372.60 401.00,376.00 401.00,376.00
             401.59,370.96 396.63,365.20 394.09,361.01
             391.31,356.44 387.28,349.97 383.68,346.13
             383.68,346.13 377.51,341.07 377.51,341.07
             369.79,334.66 364.59,330.14 354.00,330.00
             350.16,329.95 345.54,329.71 342.00,331.28
             334.45,334.62 330.90,341.64 328.24,349.00
             323.42,362.35 322.66,387.10 325.51,401.00
             325.51,401.00 330.00,416.00 330.00,416.00
             331.98,421.77 337.42,436.74 342.00,440.00 Z
           M 661.00,356.00
           C 661.00,356.00 661.00,357.00 661.00,357.00
             661.00,357.00 662.00,356.00 662.00,356.00
             662.00,356.00 661.00,356.00 661.00,356.00 Z
           M 664.00,360.00
           C 664.00,360.00 664.00,361.00 664.00,361.00
             664.00,361.00 665.00,360.00 665.00,360.00
             665.00,360.00 664.00,360.00 664.00,360.00 Z
           M 666.00,363.00
           C 666.00,363.00 666.00,364.00 666.00,364.00
             666.00,364.00 667.00,363.00 667.00,363.00
             667.00,363.00 666.00,363.00 666.00,363.00 Z
           M 667.00,365.00
           C 667.00,365.00 671.00,380.00 671.00,380.00
             673.24,374.34 671.12,369.13 667.00,365.00 Z
           M 371.00,372.00
           C 371.00,372.00 368.00,375.00 368.00,375.00
             368.00,375.00 371.00,372.00 371.00,372.00 Z
           M 402.00,377.00
           C 402.00,377.00 404.00,384.00 404.00,384.00
             404.83,380.66 404.01,379.65 402.00,377.00 Z
           M 370.00,379.00
           C 370.00,379.00 372.00,384.00 372.00,384.00
             372.00,384.00 370.00,379.00 370.00,379.00 Z
           M 672.00,382.00
           C 672.00,382.00 673.00,402.00 673.00,402.00
             672.98,418.08 670.10,426.05 666.00,441.00
             666.00,441.00 669.00,434.00 669.00,434.00
             669.00,434.00 671.00,436.00 671.00,436.00
             671.00,436.00 672.00,432.00 672.00,432.00
             672.00,432.00 671.00,432.00 671.00,432.00
             671.00,432.00 671.00,434.00 671.00,434.00
             670.61,431.25 670.06,428.28 673.00,427.00
             673.00,427.00 673.00,416.00 673.00,416.00
             673.00,416.00 674.00,418.00 674.00,418.00
             676.86,411.31 675.76,405.83 675.44,399.00
             675.16,393.06 676.29,386.66 672.00,382.00 Z
           M 405.00,385.00
           C 405.00,385.00 407.00,394.00 407.00,394.00
             407.96,390.44 406.87,388.05 405.00,385.00 Z
           M 378.00,387.00
           C 378.00,387.00 379.00,391.00 379.00,391.00
             379.00,391.00 378.00,387.00 378.00,387.00 Z
           M 375.00,388.00
           C 375.00,388.00 376.00,392.00 376.00,392.00
             376.00,392.00 375.00,388.00 375.00,388.00 Z
           M 408.00,396.00
           C 408.00,396.00 413.00,428.00 413.00,428.00
             413.00,428.00 413.00,446.00 413.00,446.00
             414.72,441.67 414.01,432.94 414.00,428.00
             413.99,421.06 411.43,401.60 408.00,396.00 Z
           M 405.00,397.00
           C 405.00,397.00 405.00,398.00 405.00,398.00
             405.00,398.00 406.00,397.00 406.00,397.00
             406.00,397.00 405.00,397.00 405.00,397.00 Z
           M 378.00,398.00
           C 378.00,398.00 379.00,406.00 379.00,406.00
             380.37,402.51 380.22,401.02 378.00,398.00 Z
           M 675.00,411.00
           C 675.00,411.00 675.00,412.00 675.00,412.00
             675.00,412.00 674.00,411.00 674.00,411.00
             674.00,411.00 675.00,411.00 675.00,411.00 Z
           M 665.00,436.00
           C 665.00,436.00 665.00,437.00 665.00,437.00
             665.00,437.00 666.00,436.00 666.00,436.00
             666.00,436.00 665.00,436.00 665.00,436.00 Z
           M 343.00,442.00
           C 343.00,442.00 343.00,443.00 343.00,443.00
             343.00,443.00 342.00,442.00 342.00,442.00
             342.00,442.00 343.00,442.00 343.00,442.00 Z
           M 665.00,442.00
           C 661.05,454.53 654.10,463.70 645.00,473.00
             645.00,473.00 647.00,469.00 647.00,469.00
             647.00,469.00 640.00,473.00 640.00,473.00
             640.00,473.00 645.00,473.00 645.00,473.00
             645.00,473.00 641.00,475.00 641.00,475.00
             648.41,475.74 652.17,464.98 658.00,463.00
             658.48,455.82 667.04,449.55 665.00,442.00 Z
           M 662.00,444.00
           C 662.00,444.00 662.00,445.00 662.00,445.00
             662.00,445.00 663.00,444.00 663.00,444.00
             663.00,444.00 662.00,444.00 662.00,444.00 Z
           M 345.00,448.00
           C 345.00,448.00 345.00,449.00 345.00,449.00
             345.00,449.00 346.00,448.00 346.00,448.00
             346.00,448.00 345.00,448.00 345.00,448.00 Z
           M 347.00,451.00
           C 347.00,451.00 347.00,452.00 347.00,452.00
             347.00,452.00 348.00,451.00 348.00,451.00
             348.00,451.00 347.00,451.00 347.00,451.00 Z
           M 411.00,452.00
           C 408.21,462.34 403.13,471.91 395.00,479.00
             395.00,479.00 398.00,481.00 398.00,481.00
             398.00,481.00 396.00,479.00 396.00,479.00
             403.09,475.62 413.21,460.15 411.00,452.00 Z
           M 498.00,455.10
           C 504.28,457.49 511.53,454.92 517.00,455.10
             520.86,455.41 524.07,457.26 527.00,454.00
             527.00,454.00 514.00,454.00 514.00,454.00
             514.00,454.00 498.00,455.10 498.00,455.10 Z
           M 653.00,454.00
           C 653.00,454.00 653.00,455.00 653.00,455.00
             653.00,455.00 654.00,454.00 654.00,454.00
             654.00,454.00 653.00,454.00 653.00,454.00 Z
           M 536.00,455.00
           C 540.84,457.87 544.67,457.63 550.00,458.28
             550.00,458.28 571.00,461.00 571.00,461.00
             564.31,458.14 543.71,455.35 536.00,455.00 Z
           M 352.00,459.00
           C 352.00,459.00 352.00,460.00 352.00,460.00
             352.00,460.00 353.00,459.00 353.00,459.00
             353.00,459.00 352.00,459.00 352.00,459.00 Z
           M 573.00,461.00
           C 573.00,461.00 583.00,463.00 583.00,463.00
             583.00,463.00 573.00,461.00 573.00,461.00 Z
           M 653.00,461.00
           C 653.00,461.00 653.00,462.00 653.00,462.00
             653.00,462.00 654.00,461.00 654.00,461.00
             654.00,461.00 653.00,461.00 653.00,461.00 Z
           M 585.00,463.00
           C 589.86,465.63 594.51,466.74 600.00,467.00
             600.00,467.00 585.00,463.00 585.00,463.00 Z
           M 429.00,471.00
           C 429.00,471.00 440.00,472.00 440.00,472.00
             440.00,472.00 440.00,471.00 440.00,471.00
             440.00,471.00 438.00,471.00 438.00,471.00
             441.55,470.43 445.87,471.62 447.00,468.00
             452.99,468.61 455.50,466.91 461.00,465.00
             461.00,465.00 429.00,471.00 429.00,471.00 Z
           M 358.00,465.00
           C 358.00,465.00 358.00,466.00 358.00,466.00
             358.00,466.00 359.00,465.00 359.00,465.00
             359.00,465.00 358.00,465.00 358.00,465.00 Z
           M 443.00,469.00
           C 443.00,469.00 443.00,470.00 443.00,470.00
             443.00,470.00 442.00,469.00 442.00,469.00
             442.00,469.00 443.00,469.00 443.00,469.00 Z
           M 605.00,468.00
           C 605.00,468.00 615.00,471.00 615.00,471.00
             615.00,471.00 605.00,468.00 605.00,468.00 Z
           M 616.00,471.00
           C 620.03,474.19 627.11,477.70 632.00,475.00
             632.00,475.00 616.00,471.00 616.00,471.00 Z
           M 401.00,481.00
           C 401.00,481.00 402.00,481.00 402.00,481.00
             402.00,481.00 401.00,479.00 401.00,479.00
             401.00,479.00 406.00,480.00 406.00,480.00
             406.00,480.00 409.00,479.00 409.00,479.00
             409.00,479.00 409.00,477.00 409.00,477.00
             409.00,477.00 428.00,473.00 428.00,473.00
             423.10,471.37 412.19,475.19 407.00,476.71
             403.83,477.64 401.87,477.62 401.00,481.00 Z
           M 399.00,481.00
           C 399.00,481.00 399.00,482.00 399.00,482.00
             399.00,482.00 400.00,481.00 400.00,481.00
             400.00,481.00 399.00,481.00 399.00,481.00 Z" />
</svg>
