<?xml version="1.0" encoding="UTF-8" standalone="no"?>
<!DOCTYPE svg PUBLIC "-//W3C//DTD SVG 20010904//EN"
              "http://www.w3.org/TR/2001/REC-SVG-20010904/DTD/svg10.dtd">

<svg xmlns="http://www.w3.org/2000/svg"
     width="80.8568mm" height="42.9261mm"
     viewBox="0 0 955 507">
  <path id="Selezione #19"
        fill="none" stroke="black" stroke-width="1"
        d="M 465.00,42.00
           C 465.00,42.00 459.00,45.00 459.00,45.00
             459.00,45.00 462.00,48.00 462.00,48.00
             462.00,48.00 465.00,42.00 465.00,42.00 Z
           M 457.00,49.00
           C 457.00,49.00 457.00,53.00 457.00,53.00
             457.00,53.00 457.00,49.00 457.00,49.00 Z
           M 432.00,60.00
           C 432.00,60.00 438.00,61.00 438.00,61.00
             438.00,61.00 437.00,68.00 437.00,68.00
             437.00,68.00 453.00,68.00 453.00,68.00
             453.00,68.00 454.00,57.00 454.00,57.00
             454.00,57.00 457.00,58.00 457.00,58.00
             457.00,58.00 457.00,54.00 457.00,54.00
             457.00,54.00 453.00,51.00 453.00,51.00
             446.02,52.64 446.25,53.76 441.00,55.60
             437.22,56.92 434.61,56.59 432.00,60.00 Z
           M 455.00,55.00
           C 455.00,55.00 455.00,56.00 455.00,56.00
             455.00,56.00 454.00,55.00 454.00,55.00
             454.00,55.00 455.00,55.00 455.00,55.00 Z
           M 418.00,67.00
           C 418.00,67.00 411.00,73.00 411.00,73.00
             411.00,73.00 412.00,76.00 412.00,76.00
             408.62,76.21 408.03,76.22 406.00,79.00
             406.00,79.00 429.00,79.00 429.00,79.00
             429.00,79.00 429.00,76.00 429.00,76.00
             429.00,76.00 437.00,76.00 437.00,76.00
             437.00,76.00 437.00,72.00 437.00,72.00
             437.00,72.00 429.00,72.00 429.00,72.00
             429.00,72.00 429.00,67.00 429.00,67.00
             429.00,67.00 418.00,67.00 418.00,67.00 Z
           M 654.00,70.00
           C 654.00,70.00 654.00,71.00 654.00,71.00
             654.00,71.00 655.00,70.00 655.00,70.00
             655.00,70.00 654.00,70.00 654.00,70.00 Z
           M 656.00,70.00
           C 656.00,70.00 656.00,71.00 656.00,71.00
             656.00,71.00 657.00,70.00 657.00,70.00
             657.00,70.00 656.00,70.00 656.00,70.00 Z
           M 421.00,73.00
           C 421.00,73.00 420.00,77.00 420.00,77.00
             420.00,77.00 418.00,77.00 418.00,77.00
             418.00,77.00 417.00,76.00 417.00,76.00
             417.00,76.00 417.00,74.00 417.00,74.00
             417.00,74.00 421.00,73.00 421.00,73.00 Z
           M 456.00,73.00
           C 456.00,73.00 453.00,76.00 453.00,76.00
             453.00,76.00 453.00,82.00 453.00,82.00
             453.00,82.00 461.00,86.00 461.00,86.00
             461.00,86.00 456.00,73.00 456.00,73.00 Z
           M 403.00,82.00
           C 400.55,84.16 399.21,85.41 396.00,84.00
             396.00,84.00 394.00,93.00 394.00,93.00
             399.81,91.72 404.14,88.06 405.00,82.00
             405.00,82.00 403.00,82.00 403.00,82.00 Z
           M 388.00,91.00
           C 388.00,91.00 392.00,91.00 392.00,91.00
             392.00,91.00 388.00,91.00 388.00,91.00 Z
           M 469.00,101.00
           C 469.00,101.00 469.00,102.00 469.00,102.00
             469.00,102.00 470.00,101.00 470.00,101.00
             470.00,101.00 469.00,101.00 469.00,101.00 Z
           M 456.00,103.00
           C 456.00,103.00 453.00,107.00 453.00,107.00
             456.94,106.66 459.41,106.95 461.00,103.00
             461.00,103.00 459.00,105.00 459.00,105.00
             459.00,105.00 459.00,103.00 459.00,103.00
             459.00,103.00 458.00,103.00 458.00,103.00
             458.00,103.00 458.00,105.00 458.00,105.00
             458.00,105.00 456.00,103.00 456.00,103.00 Z
           M 385.00,107.00
           C 387.34,107.76 387.37,107.83 389.00,106.00
             389.00,106.00 385.00,107.00 385.00,107.00 Z
           M 383.00,108.00
           C 383.00,108.00 383.00,109.00 383.00,109.00
             383.00,109.00 384.00,108.00 384.00,108.00
             384.00,108.00 383.00,108.00 383.00,108.00 Z
           M 405.00,108.00
           C 405.00,108.00 405.00,110.00 405.00,110.00
             405.00,110.00 411.00,110.00 411.00,110.00
             411.00,110.00 411.00,108.00 411.00,108.00
             411.00,108.00 405.00,108.00 405.00,108.00 Z
           M 432.00,111.00
           C 432.00,111.00 432.00,113.00 432.00,113.00
             432.00,113.00 444.00,110.00 444.00,110.00
             438.60,106.53 437.31,109.50 432.00,111.00 Z
           M 445.00,108.00
           C 445.00,108.00 445.00,109.00 445.00,109.00
             445.00,109.00 446.00,108.00 446.00,108.00
             446.00,108.00 445.00,108.00 445.00,108.00 Z
           M 430.00,111.00
           C 430.00,111.00 430.00,112.00 430.00,112.00
             430.00,112.00 431.00,111.00 431.00,111.00
             431.00,111.00 430.00,111.00 430.00,111.00 Z
           M 405.00,120.00
           C 408.87,120.59 411.90,121.58 413.00,117.00
             413.00,117.00 417.00,116.00 417.00,116.00
             412.55,114.37 407.57,116.04 405.00,120.00 Z
           M 634.00,117.00
           C 634.00,117.00 634.00,118.00 634.00,118.00
             634.00,118.00 635.00,117.00 635.00,117.00
             635.00,117.00 634.00,117.00 634.00,117.00 Z
           M 394.00,127.00
           C 394.00,127.00 397.00,125.00 397.00,125.00
             397.00,125.00 400.00,126.00 400.00,126.00
             397.05,123.49 395.50,122.99 394.00,127.00 Z
           M 384.00,132.00
           C 384.00,132.00 384.00,133.00 384.00,133.00
             384.00,133.00 385.00,132.00 385.00,132.00
             385.00,132.00 384.00,132.00 384.00,132.00 Z
           M 373.00,134.00
           C 373.00,134.00 373.00,135.00 373.00,135.00
             373.00,135.00 374.00,134.00 374.00,134.00
             374.00,134.00 373.00,134.00 373.00,134.00 Z
           M 372.00,140.00
           C 372.00,140.00 379.00,136.00 379.00,136.00
             375.20,134.82 373.23,136.47 372.00,140.00 Z
           M 370.00,139.00
           C 370.00,139.00 360.00,140.00 360.00,140.00
             360.00,140.00 365.00,141.00 365.00,141.00
             365.00,141.00 360.00,147.00 360.00,147.00
             363.72,145.63 369.93,143.59 370.00,139.00 Z
           M 353.00,152.00
           C 353.00,152.00 353.00,153.00 353.00,153.00
             353.00,153.00 354.00,152.00 354.00,152.00
             354.00,152.00 353.00,152.00 353.00,152.00 Z
           M 333.00,171.00
           C 333.00,171.00 332.00,175.00 332.00,175.00
             332.00,175.00 333.00,171.00 333.00,171.00 Z
           M 905.00,197.00
           C 905.00,197.00 905.00,198.00 905.00,198.00
             905.00,198.00 906.00,197.00 906.00,197.00
             906.00,197.00 905.00,197.00 905.00,197.00 Z
           M 346.00,329.00
           C 346.00,329.00 357.00,330.00 357.00,330.00
             357.00,330.00 346.00,329.00 346.00,329.00 Z
           M 367.00,332.00
           C 367.00,332.00 359.00,330.00 359.00,330.00
             359.00,330.00 381.74,346.26 381.74,346.26
             381.74,346.26 391.71,359.09 391.71,359.09
             391.71,359.09 398.00,368.00 398.00,368.00
             398.00,368.00 397.00,370.00 397.00,370.00
             403.70,375.42 406.12,387.85 408.42,396.00
             413.99,415.75 416.93,441.56 409.07,461.00
             406.86,466.46 403.22,471.13 400.00,476.00
             400.00,476.00 405.00,478.00 405.00,478.00
             405.00,478.00 405.00,476.00 405.00,476.00
             408.50,476.70 419.74,475.66 421.00,472.00
             421.00,472.00 426.00,473.00 426.00,473.00
             426.00,473.00 423.00,472.00 423.00,472.00
             423.00,472.00 430.00,472.00 430.00,472.00
             430.00,472.00 436.00,469.96 436.00,469.96
             436.00,469.96 453.00,467.00 453.00,467.00
             453.00,467.00 453.00,466.00 453.00,466.00
             453.00,466.00 451.00,466.00 451.00,466.00
             451.00,466.00 456.00,466.00 456.00,466.00
             456.00,466.00 456.00,465.00 456.00,465.00
             456.00,465.00 454.00,465.00 454.00,465.00
             454.00,465.00 464.00,463.36 464.00,463.36
             464.00,463.36 490.00,456.43 490.00,456.43
             490.00,456.43 528.00,455.00 528.00,455.00
             528.00,455.00 552.58,457.09 552.58,457.09
             552.58,457.09 569.00,460.30 569.00,460.30
             569.00,460.30 576.00,460.30 576.00,460.30
             576.00,460.30 586.00,462.00 586.00,462.00
             589.05,465.54 597.47,466.39 602.00,467.36
             602.00,467.36 633.00,475.80 633.00,475.80
             636.11,476.11 639.80,475.26 643.00,475.00
             643.00,475.00 645.00,471.00 645.00,471.00
             652.76,470.59 653.08,463.79 655.96,459.04
             655.96,459.04 661.04,452.83 661.04,452.83
             664.59,447.81 668.93,437.08 668.00,431.00
             672.02,427.69 671.35,421.57 672.18,416.83
             675.04,400.63 674.23,386.95 670.00,371.00
             670.00,371.00 668.00,373.00 668.00,373.00
             668.00,373.00 666.00,366.00 666.00,366.00
             666.00,366.00 669.00,368.00 669.00,368.00
             664.48,358.62 662.76,355.58 653.00,352.00
             653.00,352.00 654.00,348.00 654.00,348.00
             647.12,348.12 646.43,344.91 641.00,344.14
             633.88,343.13 629.42,345.02 623.01,345.85
             617.05,346.63 614.70,344.38 612.00,348.00
             607.09,347.45 593.04,348.50 588.00,349.32
             588.00,349.32 575.00,351.83 575.00,351.83
             575.00,351.83 546.00,354.00 546.00,354.00
             546.00,354.00 524.00,354.00 524.00,354.00
             509.22,353.98 495.21,349.04 481.00,345.68
             481.00,345.68 457.72,341.01 457.72,341.01
             457.72,341.01 424.00,334.00 424.00,334.00
             413.73,331.99 385.37,328.98 375.00,329.00
             371.15,329.01 368.61,328.12 367.00,332.00 Z
           M 333.00,339.00
           C 333.00,339.00 345.00,331.00 345.00,331.00
             339.68,330.31 335.83,335.08 333.00,339.00 Z
           M 338.00,337.00
           C 338.00,337.00 338.00,338.00 338.00,338.00
             338.00,338.00 339.00,337.00 339.00,337.00
             339.00,337.00 338.00,337.00 338.00,337.00 Z
           M 366.00,339.00
           C 366.00,339.00 366.00,340.00 366.00,340.00
             366.00,340.00 367.00,339.00 367.00,339.00
             367.00,339.00 366.00,339.00 366.00,339.00 Z
           M 332.00,340.00
           C 332.00,340.00 332.00,341.00 332.00,341.00
             332.00,341.00 333.00,340.00 333.00,340.00
             333.00,340.00 332.00,340.00 332.00,340.00 Z
           M 329.00,345.00
           C 329.00,345.00 325.00,363.00 325.00,363.00
             326.54,359.66 329.87,348.21 329.00,345.00 Z
           M 398.00,363.00
           C 398.00,363.00 400.00,367.00 400.00,367.00
             397.82,365.57 397.49,365.64 398.00,363.00 Z
           M 324.00,364.00
           C 324.00,364.00 323.00,384.00 323.00,384.00
             324.46,380.32 325.47,367.72 324.00,364.00 Z
           M 324.00,386.00
           C 324.00,386.00 324.00,394.00 324.00,394.00
             325.25,390.86 325.25,389.14 324.00,386.00 Z
           M 325.00,398.00
           C 325.00,398.00 326.00,403.00 326.00,403.00
             326.00,403.00 325.00,398.00 325.00,398.00 Z
           M 657.00,458.00
           C 657.00,458.00 657.00,459.00 657.00,459.00
             657.00,459.00 658.00,458.00 658.00,458.00
             658.00,458.00 657.00,458.00 657.00,458.00 Z
           M 577.00,461.00
           C 577.00,461.00 577.00,462.00 577.00,462.00
             577.00,462.00 578.00,461.00 578.00,461.00
             578.00,461.00 577.00,461.00 577.00,461.00 Z
           M 410.00,463.00
           C 410.00,463.00 410.00,464.00 410.00,464.00
             410.00,464.00 409.00,463.00 409.00,463.00
             409.00,463.00 410.00,463.00 410.00,463.00 Z
           M 654.00,463.00
           C 654.00,463.00 654.00,464.00 654.00,464.00
             654.00,464.00 653.00,463.00 653.00,463.00
             653.00,463.00 654.00,463.00 654.00,463.00 Z
           M 408.00,467.00
           C 408.00,467.00 408.00,468.00 408.00,468.00
             408.00,468.00 407.00,467.00 407.00,467.00
             407.00,467.00 408.00,467.00 408.00,467.00 Z
           M 649.00,469.00
           C 649.00,469.00 649.00,470.00 649.00,470.00
             649.00,470.00 648.00,469.00 648.00,469.00
             648.00,469.00 649.00,469.00 649.00,469.00 Z
           M 401.00,478.00
           C 401.00,478.00 401.00,479.00 401.00,479.00
             401.00,479.00 402.00,478.00 402.00,478.00
             402.00,478.00 401.00,478.00 401.00,478.00 Z" />
</svg>
