<?xml version="1.0" encoding="UTF-8" standalone="no"?>
<!DOCTYPE svg PUBLIC "-//W3C//DTD SVG 20010904//EN"
              "http://www.w3.org/TR/2001/REC-SVG-20010904/DTD/svg10.dtd">

<svg xmlns="http://www.w3.org/2000/svg"
     width="80.8568mm" height="42.9261mm"
     viewBox="0 0 955 507">
  <path id="Selezione #17"
        fill="none" stroke="black" stroke-width="1"
        d="M 661.00,0.00
           C 658.64,2.00 650.33,1.78 647.00,2.07
             647.00,2.07 613.58,6.44 613.58,6.44
             613.58,6.44 600.00,9.54 600.00,9.54
             600.00,9.54 588.00,10.59 588.00,10.59
             588.00,10.59 576.00,13.67 576.00,13.67
             576.00,13.67 569.00,14.46 569.00,14.46
             569.00,14.46 554.00,17.88 554.00,17.88
             554.00,17.88 539.00,20.51 539.00,20.51
             539.00,20.51 530.00,23.53 530.00,23.53
             530.00,23.53 519.00,24.37 519.00,24.37
             519.00,24.37 489.00,31.59 489.00,31.59
             471.61,37.14 456.53,46.91 457.01,67.00
             457.37,81.52 468.18,91.96 476.00,103.00
             476.00,103.00 438.00,111.97 438.00,111.97
             438.00,111.97 426.74,116.77 426.74,116.77
             426.74,116.77 426.00,116.00 426.00,116.00
             426.00,116.00 413.00,119.97 413.00,119.97
             404.26,123.36 396.21,128.01 388.00,132.46
             373.35,140.41 358.37,148.70 346.17,160.30
             339.88,166.28 329.51,178.49 325.17,186.00
             325.17,186.00 320.02,197.00 320.02,197.00
             318.09,201.04 316.40,203.51 314.96,208.00
             310.83,220.89 309.83,234.61 308.91,248.00
             308.91,248.00 307.87,258.00 307.87,258.00
             307.87,258.00 307.87,270.00 307.87,270.00
             307.87,270.00 308.89,277.00 308.89,277.00
             308.89,281.26 307.02,282.74 307.06,288.00
             307.06,288.00 308.00,301.00 308.00,301.00
             308.00,301.00 309.17,325.00 309.17,325.00
             309.17,325.00 310.83,336.00 310.83,336.00
             310.83,336.00 311.43,346.00 311.43,346.00
             311.43,346.00 313.71,358.00 313.71,358.00
             313.71,358.00 317.59,380.00 317.59,380.00
             317.59,380.00 324.00,404.00 324.00,404.00
             324.00,404.00 323.00,376.00 323.00,376.00
             323.17,361.60 327.13,337.05 342.00,330.53
             346.29,328.65 350.46,329.02 355.00,328.87
             355.00,328.87 365.00,328.87 365.00,328.87
             365.00,328.87 391.72,329.64 391.72,329.64
             410.77,331.31 430.30,334.74 449.00,338.66
             449.00,338.66 481.00,345.68 481.00,345.68
             490.66,347.96 502.29,351.89 512.00,352.96
             512.00,352.96 521.00,352.96 521.00,352.96
             521.00,352.96 533.00,353.96 533.00,353.96
             533.00,353.96 550.00,353.96 550.00,353.96
             550.00,353.96 565.00,351.94 565.00,351.94
             565.00,351.94 575.00,351.94 575.00,351.94
             575.00,351.94 589.00,349.17 589.00,349.17
             589.00,349.17 611.00,347.00 611.00,347.00
             611.00,347.00 612.00,331.00 612.00,331.00
             612.00,331.00 614.00,306.00 614.00,306.00
             614.00,306.00 614.00,298.00 614.00,298.00
             614.00,298.00 616.24,279.28 616.24,279.28
             616.24,279.28 616.24,268.00 616.24,268.00
             616.24,268.00 618.00,269.00 618.00,269.00
             618.00,269.00 619.00,261.00 619.00,261.00
             619.00,261.00 617.00,262.00 617.00,262.00
             617.00,262.00 618.00,252.00 618.00,252.00
             621.64,250.87 621.94,242.55 622.58,239.00
             622.58,239.00 628.21,210.00 628.21,210.00
             629.40,204.49 631.33,200.62 630.00,195.00
             632.91,192.71 632.53,191.49 632.00,188.00
             632.00,188.00 634.00,188.00 634.00,188.00
             634.00,188.00 635.00,183.00 635.00,183.00
             635.00,183.00 634.00,179.00 634.00,179.00
             637.87,176.44 639.30,168.50 640.33,164.00
             640.92,161.42 640.37,159.13 643.00,158.00
             643.00,158.00 645.00,146.00 645.00,146.00
             647.46,144.11 647.18,142.97 647.00,140.00
             650.40,139.05 650.15,137.19 650.00,134.00
             650.00,134.00 658.00,120.00 658.00,120.00
             658.00,120.00 657.00,117.00 657.00,117.00
             661.10,115.92 662.18,111.87 662.00,108.00
             667.67,104.59 665.38,101.19 663.74,96.00
             663.74,96.00 661.46,88.00 661.46,88.00
             659.55,82.55 657.81,81.19 657.00,75.00
             657.00,75.00 655.00,75.00 655.00,75.00
             655.00,75.00 654.09,85.00 654.09,85.00
             653.19,98.13 653.40,106.94 650.00,120.00
             650.00,120.00 648.00,120.00 648.00,120.00
             648.00,120.00 644.00,104.00 644.00,104.00
             638.97,106.68 636.63,113.72 635.00,119.00
             635.00,119.00 632.91,119.00 632.91,119.00
             631.16,111.45 632.31,103.66 632.91,96.00
             633.03,92.86 632.41,90.09 632.00,87.00
             632.00,87.00 634.00,88.00 634.00,88.00
             634.00,88.00 634.82,69.00 634.82,69.00
             634.82,69.00 627.00,55.00 627.00,55.00
             627.00,55.00 626.00,55.00 626.00,55.00
             626.00,55.00 626.00,57.00 626.00,57.00
             623.57,48.53 624.60,42.81 628.11,35.00
             628.88,33.28 629.76,30.66 630.84,29.22
             634.09,24.88 636.55,27.39 639.00,21.00
             639.00,21.00 635.00,19.00 635.00,19.00
             635.00,19.00 643.99,20.05 643.99,20.05
             643.99,20.05 652.09,17.36 652.09,17.36
             652.09,17.36 659.00,20.04 659.00,20.04
             659.00,20.04 673.00,24.00 673.00,24.00
             673.00,24.00 671.00,27.00 671.00,27.00
             673.99,28.47 674.57,28.65 672.00,31.00
             672.00,31.00 677.00,32.00 677.00,32.00
             677.95,37.28 677.18,41.13 681.00,45.00
             681.00,45.00 678.87,53.00 678.87,53.00
             678.87,53.00 674.00,66.00 674.00,66.00
             677.86,67.12 677.36,73.65 678.00,77.00
             684.52,73.15 686.43,66.39 689.95,60.00
             694.15,52.40 705.17,37.69 707.00,30.00
             707.00,30.00 709.17,29.23 709.17,29.23
             709.17,29.23 719.80,13.99 719.80,13.99
             719.80,13.99 719.80,8.00 719.80,8.00
             719.80,8.00 721.00,11.00 721.00,11.00
             721.00,11.00 724.00,8.00 724.00,8.00
             724.00,8.00 699.00,0.00 699.00,0.00
             690.87,1.32 674.30,-2.50 668.00,2.00
             668.00,2.00 668.00,0.00 668.00,0.00
             668.00,0.00 667.00,0.00 667.00,0.00
             667.00,0.00 667.00,2.00 667.00,2.00
             667.00,2.00 666.00,0.00 666.00,0.00
             666.00,0.00 665.00,0.00 665.00,0.00
             665.00,0.00 665.00,2.00 665.00,2.00
             665.00,2.00 664.00,0.00 664.00,0.00
             664.00,0.00 663.00,0.00 663.00,0.00
             663.00,0.00 663.00,2.00 663.00,2.00
             663.00,2.00 661.00,0.00 661.00,0.00 Z
           M 671.00,1.00
           C 671.00,1.00 671.00,2.00 671.00,2.00
             671.00,2.00 670.00,1.00 670.00,1.00
             670.00,1.00 671.00,1.00 671.00,1.00 Z
           M 673.00,1.00
           C 673.00,1.00 673.00,2.00 673.00,2.00
             673.00,2.00 672.00,1.00 672.00,1.00
             672.00,1.00 673.00,1.00 673.00,1.00 Z
           M 675.00,1.00
           C 675.00,1.00 675.00,2.00 675.00,2.00
             675.00,2.00 674.00,1.00 674.00,1.00
             674.00,1.00 675.00,1.00 675.00,1.00 Z
           M 718.00,7.00
           C 718.00,7.00 718.00,8.00 718.00,8.00
             718.00,8.00 717.00,7.00 717.00,7.00
             717.00,7.00 718.00,7.00 718.00,7.00 Z
           M 666.00,13.00
           C 666.00,13.00 661.00,14.00 661.00,14.00
             661.00,14.00 666.00,13.00 666.00,13.00 Z
           M 645.00,14.00
           C 645.00,14.00 643.00,17.00 643.00,17.00
             643.00,17.00 642.00,16.00 642.00,16.00
             642.00,16.00 643.00,14.00 643.00,14.00
             643.00,14.00 645.00,14.00 645.00,14.00 Z
           M 714.00,15.00
           C 714.00,15.00 709.00,18.00 709.00,18.00
             709.00,18.00 714.00,15.00 714.00,15.00 Z
           M 667.00,20.00
           C 667.00,20.00 667.00,21.00 667.00,21.00
             667.00,21.00 666.00,20.00 666.00,20.00
             666.00,20.00 667.00,20.00 667.00,20.00 Z
           M 712.00,20.00
           C 712.00,20.00 712.00,21.00 712.00,21.00
             712.00,21.00 711.00,20.00 711.00,20.00
             711.00,20.00 712.00,20.00 712.00,20.00 Z
           M 636.00,21.00
           C 636.00,21.00 633.00,25.00 633.00,25.00
             633.00,25.00 636.00,21.00 636.00,21.00 Z
           M 710.00,21.00
           C 710.00,21.00 710.00,22.00 710.00,22.00
             710.00,22.00 709.00,21.00 709.00,21.00
             709.00,21.00 710.00,21.00 710.00,21.00 Z
           M 711.00,23.00
           C 711.00,23.00 711.00,24.00 711.00,24.00
             711.00,24.00 710.00,23.00 710.00,23.00
             710.00,23.00 711.00,23.00 711.00,23.00 Z
           M 705.00,32.00
           C 705.00,32.00 705.00,33.00 705.00,33.00
             705.00,33.00 704.00,32.00 704.00,32.00
             704.00,32.00 705.00,32.00 705.00,32.00 Z
           M 703.00,35.00
           C 703.00,35.00 703.00,36.00 703.00,36.00
             703.00,36.00 702.00,35.00 702.00,35.00
             702.00,35.00 703.00,35.00 703.00,35.00 Z
           M 695.00,44.00
           C 695.00,44.00 695.00,45.00 695.00,45.00
             695.00,45.00 694.00,44.00 694.00,44.00
             694.00,44.00 695.00,44.00 695.00,44.00 Z
           M 697.00,46.00
           C 697.00,46.00 697.00,47.00 697.00,47.00
             697.00,47.00 696.00,46.00 696.00,46.00
             696.00,46.00 697.00,46.00 697.00,46.00 Z
           M 655.00,70.00
           C 655.00,70.00 655.00,71.00 655.00,71.00
             655.00,71.00 656.00,70.00 656.00,70.00
             656.00,70.00 655.00,70.00 655.00,70.00 Z
           M 660.00,91.00
           C 660.00,91.00 660.00,92.00 660.00,92.00
             660.00,92.00 659.00,91.00 659.00,91.00
             659.00,91.00 660.00,91.00 660.00,91.00 Z
           M 659.00,93.00
           C 659.00,93.00 659.00,94.00 659.00,94.00
             659.00,94.00 658.00,93.00 658.00,93.00
             658.00,93.00 659.00,93.00 659.00,93.00 Z
           M 663.00,99.00
           C 663.00,99.00 663.00,100.00 663.00,100.00
             663.00,100.00 662.00,99.00 662.00,99.00
             662.00,99.00 663.00,99.00 663.00,99.00 Z
           M 657.00,100.00
           C 657.00,100.00 657.00,101.00 657.00,101.00
             657.00,101.00 656.00,100.00 656.00,100.00
             656.00,100.00 657.00,100.00 657.00,100.00 Z
           M 364.00,104.00
           C 364.00,104.00 364.00,105.00 364.00,105.00
             364.00,105.00 365.00,104.00 365.00,104.00
             365.00,104.00 364.00,104.00 364.00,104.00 Z
           M 400.00,130.00
           C 400.00,130.00 400.00,131.00 400.00,131.00
             400.00,131.00 399.00,130.00 399.00,130.00
             399.00,130.00 400.00,130.00 400.00,130.00 Z
           M 475.00,136.00
           C 475.00,136.00 476.00,140.00 476.00,140.00
             474.17,138.37 474.24,138.34 475.00,136.00 Z
           M 540.00,140.52
           C 543.49,139.92 548.62,139.60 552.00,140.52
             562.83,144.03 569.56,159.86 572.11,170.00
             573.51,175.58 574.93,183.29 575.00,189.00
             575.25,210.54 564.30,241.48 541.00,247.10
             530.15,249.72 512.13,244.91 505.46,235.71
             502.10,231.10 499.41,219.65 499.34,214.00
             499.34,214.00 499.96,207.00 499.96,207.00
             500.24,200.56 500.12,193.32 501.59,187.00
             504.90,172.86 514.33,160.18 524.95,150.63
             530.63,145.52 532.07,142.87 540.00,140.52 Z
           M 441.00,141.29
           C 464.89,139.28 477.04,165.52 476.26,186.00
             476.04,191.64 473.51,206.90 471.60,212.00
             470.33,215.40 468.99,217.00 467.16,220.00
             458.99,233.44 450.51,242.18 434.00,243.83
             408.69,246.36 396.40,227.00 395.10,204.00
             394.47,192.94 400.47,175.93 406.21,166.58
             406.21,166.58 412.67,158.01 412.67,158.01
             417.47,151.85 421.81,146.81 429.17,143.52
             432.60,141.98 437.21,141.83 441.00,141.29 Z
           M 319.00,183.00
           C 319.00,183.00 319.00,184.00 319.00,184.00
             319.00,184.00 320.00,183.00 320.00,183.00
             320.00,183.00 319.00,183.00 319.00,183.00 Z
           M 316.00,197.00
           C 316.00,197.00 316.00,198.00 316.00,198.00
             316.00,198.00 317.00,197.00 317.00,197.00
             317.00,197.00 316.00,197.00 316.00,197.00 Z
           M 626.00,216.00
           C 626.00,216.00 626.00,217.00 626.00,217.00
             626.00,217.00 625.00,216.00 625.00,216.00
             625.00,216.00 626.00,216.00 626.00,216.00 Z" />
</svg>
