<?xml version="1.0" encoding="UTF-8" standalone="no"?>
<!DOCTYPE svg PUBLIC "-//W3C//DTD SVG 20010904//EN"
              "http://www.w3.org/TR/2001/REC-SVG-20010904/DTD/svg10.dtd">

<svg xmlns="http://www.w3.org/2000/svg"
     width="80.8568mm" height="42.9261mm"
     viewBox="0 0 955 507">
  <path id="Selezione #13"
        fill="none" stroke="black" stroke-width="1"
        d="M 11.00,113.00
           C 11.00,113.00 11.00,114.00 11.00,114.00
             11.00,114.00 12.00,113.00 12.00,113.00
             12.00,113.00 11.00,113.00 11.00,113.00 Z
           M 16.00,117.00
           C 16.00,117.00 16.00,118.00 16.00,118.00
             16.00,118.00 17.00,117.00 17.00,117.00
             17.00,117.00 16.00,117.00 16.00,117.00 Z
           M 34.00,123.00
           C 34.00,123.00 34.00,124.00 34.00,124.00
             34.00,124.00 35.00,123.00 35.00,123.00
             35.00,123.00 34.00,123.00 34.00,123.00 Z
           M 36.00,124.00
           C 36.00,124.00 41.00,125.00 41.00,125.00
             41.00,125.00 36.00,124.00 36.00,124.00 Z
           M 59.00,127.00
           C 59.00,127.00 64.00,128.00 64.00,128.00
             64.00,128.00 59.00,127.00 59.00,127.00 Z
           M 67.00,128.00
           C 67.00,128.00 77.00,129.00 77.00,129.00
             77.00,129.00 67.00,128.00 67.00,128.00 Z
           M 84.00,129.00
           C 84.00,129.00 84.00,130.00 84.00,130.00
             84.00,130.00 85.00,129.00 85.00,129.00
             85.00,129.00 84.00,129.00 84.00,129.00 Z
           M 917.00,183.00
           C 917.00,183.00 917.00,184.00 917.00,184.00
             917.00,184.00 918.00,183.00 918.00,183.00
             918.00,183.00 917.00,183.00 917.00,183.00 Z
           M 902.00,186.00
           C 902.00,186.00 910.00,186.00 910.00,186.00
             910.00,186.00 902.00,186.00 902.00,186.00 Z
           M 711.00,500.00
           C 708.01,492.75 701.75,490.73 695.00,487.85
             679.54,481.26 664.66,478.01 648.00,476.62
             643.02,476.20 643.34,476.98 639.00,477.68
             633.41,478.57 628.66,476.92 625.31,483.04
             622.03,489.05 625.99,497.78 633.01,498.60
             639.25,499.33 639.71,493.06 645.01,493.07
             645.01,493.07 663.00,497.39 663.00,497.39
             674.17,499.42 700.32,501.91 711.00,500.00 Z
           M 630.00,480.00
           C 630.00,480.00 630.00,481.00 630.00,481.00
             630.00,481.00 629.00,480.00 629.00,480.00
             629.00,480.00 630.00,480.00 630.00,480.00 Z
           M 629.00,481.00
           C 629.00,481.00 629.00,482.00 629.00,482.00
             629.00,482.00 628.00,481.00 628.00,481.00
             628.00,481.00 629.00,481.00 629.00,481.00 Z
           M 317.00,505.00
           C 317.00,505.00 326.00,504.32 326.00,504.32
             326.00,504.32 335.00,504.96 335.00,504.96
             341.40,505.21 365.54,501.59 372.00,499.84
             372.00,499.84 383.00,496.00 383.00,496.00
             383.73,497.81 384.11,499.11 385.56,500.57
             394.32,509.34 407.63,492.54 397.66,484.85
             392.53,480.96 389.35,485.81 381.00,484.85
             376.50,484.28 374.09,482.26 370.00,482.27
             363.23,482.29 339.25,490.00 332.00,492.69
             324.41,495.51 317.31,495.29 317.00,505.00 Z
           M 398.00,487.00
           C 398.00,487.00 398.00,488.00 398.00,488.00
             398.00,488.00 397.00,487.00 397.00,487.00
             397.00,487.00 398.00,487.00 398.00,487.00 Z" />
</svg>
