<?xml version="1.0" encoding="UTF-8" standalone="no"?>
<!DOCTYPE svg PUBLIC "-//W3C//DTD SVG 20010904//EN"
              "http://www.w3.org/TR/2001/REC-SVG-20010904/DTD/svg10.dtd">

<svg xmlns="http://www.w3.org/2000/svg"
     width="80.8568mm" height="42.9261mm"
     viewBox="0 0 955 507">
  <path id="Selezione #2"
        fill="none" stroke="black" stroke-width="1"
        d="M 635.00,49.00
           C 635.00,49.00 635.00,50.00 635.00,50.00
             635.00,50.00 636.00,49.00 636.00,49.00
             636.00,49.00 635.00,49.00 635.00,49.00 Z
           M 670.00,50.00
           C 670.00,50.00 670.00,51.00 670.00,51.00
             670.00,51.00 671.00,50.00 671.00,50.00
             671.00,50.00 670.00,50.00 670.00,50.00 Z
           M 637.00,54.00
           C 637.00,54.00 637.00,55.00 637.00,55.00
             637.00,55.00 638.00,54.00 638.00,54.00
             638.00,54.00 637.00,54.00 637.00,54.00 Z
           M 646.00,62.00
           C 646.00,62.00 646.00,63.00 646.00,63.00
             646.00,63.00 647.00,62.00 647.00,62.00
             647.00,62.00 646.00,62.00 646.00,62.00 Z
           M 673.00,109.00
           C 673.00,109.00 673.00,110.00 673.00,110.00
             673.00,110.00 674.00,109.00 674.00,109.00
             674.00,109.00 673.00,109.00 673.00,109.00 Z
           M 671.00,114.00
           C 671.00,114.00 671.00,115.00 671.00,115.00
             671.00,115.00 672.00,114.00 672.00,114.00
             672.00,114.00 671.00,114.00 671.00,114.00 Z
           M 954.00,119.00
           C 954.00,119.00 954.00,120.00 954.00,120.00
             954.00,120.00 955.00,119.00 955.00,119.00
             955.00,119.00 954.00,119.00 954.00,119.00 Z
           M 754.00,123.00
           C 755.90,130.82 755.00,160.02 755.00,170.00
             755.00,170.00 846.00,170.00 846.00,170.00
             846.00,170.00 895.00,170.00 895.00,170.00
             895.00,170.00 910.00,169.00 910.00,169.00
             910.00,169.00 948.00,170.00 948.00,170.00
             948.00,159.91 947.09,129.86 949.00,122.00
             949.00,122.00 928.00,123.00 928.00,123.00
             928.00,123.00 945.00,124.00 945.00,124.00
             945.00,124.00 945.00,156.00 945.00,156.00
             945.00,156.00 944.23,166.40 944.23,166.40
             944.23,166.40 936.00,168.10 936.00,168.10
             936.00,168.10 901.00,168.10 901.00,168.10
             901.00,168.10 817.04,168.10 817.04,168.10
             817.04,168.10 757.00,169.00 757.00,169.00
             757.00,169.00 757.00,136.00 757.00,136.00
             757.00,136.00 758.00,124.16 758.00,124.16
             765.18,125.73 773.77,124.46 781.00,124.16
             781.00,124.16 789.00,124.16 789.00,124.16
             789.00,124.16 813.00,124.16 813.00,124.16
             813.00,124.16 828.00,124.16 828.00,124.16
             828.00,124.16 927.00,124.16 927.00,124.16
             919.64,120.86 911.68,122.99 904.00,123.00
             904.00,123.00 876.00,123.00 876.00,123.00
             876.00,123.00 754.00,123.00 754.00,123.00 Z
           M 762.00,127.00
           C 762.00,127.00 767.00,130.00 767.00,130.00
             763.84,134.43 765.01,140.76 765.00,146.00
             764.99,149.44 765.76,153.63 762.00,155.00
             762.00,155.00 762.00,166.00 762.00,166.00
             762.00,166.00 773.00,166.00 773.00,166.00
             773.00,166.00 773.00,163.00 773.00,163.00
             773.00,163.00 779.00,162.00 779.00,162.00
             779.00,162.00 767.58,160.32 767.58,160.32
             767.58,160.32 766.00,154.00 766.00,154.00
             766.00,154.00 767.00,131.00 767.00,131.00
             771.06,131.99 777.08,131.84 779.96,133.31
             786.45,136.63 788.37,145.46 786.35,152.00
             785.55,154.62 783.46,157.61 782.00,160.00
             782.00,160.00 786.00,157.00 786.00,157.00
             786.00,157.00 787.00,160.00 787.00,160.00
             787.00,160.00 781.00,164.00 781.00,164.00
             785.43,162.48 786.18,161.71 789.00,158.00
             789.00,158.00 786.00,157.00 786.00,157.00
             786.00,157.00 788.00,148.00 788.00,148.00
             788.00,148.00 790.00,146.00 790.00,146.00
             786.99,144.80 786.33,135.95 787.00,133.00
             787.00,133.00 787.00,137.00 787.00,137.00
             794.09,139.45 788.99,152.10 789.00,157.00
             794.73,148.94 792.56,135.52 783.98,130.15
             780.16,127.75 777.29,128.01 773.00,128.00
             777.95,130.12 780.88,128.75 784.00,134.00
             784.00,134.00 769.00,128.00 769.00,128.00
             769.00,128.00 767.00,130.00 767.00,130.00
             767.00,130.00 762.00,127.00 762.00,127.00 Z
           M 803.00,127.00
           C 803.00,135.53 802.08,159.23 804.00,166.00
             804.00,166.00 808.00,165.00 808.00,165.00
             808.00,165.00 807.14,156.00 807.14,156.00
             807.14,156.00 807.14,146.00 807.14,146.00
             807.14,146.00 807.14,127.00 807.14,127.00
             807.14,127.00 803.00,127.00 803.00,127.00 Z
           M 822.00,147.00
           C 819.73,154.93 820.99,157.06 821.00,165.00
             821.00,165.00 825.00,165.00 825.00,165.00
             825.00,165.00 825.00,149.00 825.00,149.00
             825.00,149.00 829.00,150.00 829.00,150.00
             829.00,150.00 837.00,146.00 837.00,146.00
             837.00,146.00 836.00,152.00 836.00,152.00
             836.00,152.00 831.00,148.00 831.00,148.00
             831.00,148.00 842.32,163.98 842.32,163.98
             842.32,163.98 847.00,165.00 847.00,165.00
             847.00,165.00 838.00,148.00 838.00,148.00
             839.81,146.97 840.94,146.50 842.30,144.78
             845.95,140.16 844.94,132.43 839.81,129.31
             836.83,127.50 825.43,126.07 822.31,127.60
             821.10,128.19 820.69,128.88 820.43,130.15
             819.78,131.95 819.70,144.85 820.43,146.23
             821.15,147.24 821.48,146.82 822.00,147.00 Z
           M 856.00,127.00
           C 856.00,127.00 856.00,165.00 856.00,165.00
             856.00,165.00 861.00,165.00 861.00,165.00
             859.18,152.44 859.81,139.59 861.00,127.00
             861.00,127.00 856.00,127.00 856.00,127.00 Z
           M 869.00,127.00
           C 869.00,127.00 869.00,131.00 869.00,131.00
             869.00,131.00 881.00,131.00 881.00,131.00
             881.00,131.00 881.00,165.00 881.00,165.00
             881.00,165.00 885.00,165.00 885.00,165.00
             885.00,165.00 885.00,131.00 885.00,131.00
             890.02,131.00 895.07,132.51 897.00,127.00
             897.00,127.00 869.00,127.00 869.00,127.00 Z
           M 901.00,127.00
           C 901.00,127.00 901.00,131.00 901.00,131.00
             901.00,131.00 913.00,131.00 913.00,131.00
             913.00,131.00 913.00,158.00 913.00,158.00
             913.08,162.15 912.86,163.55 917.00,165.00
             917.00,165.00 917.00,131.00 917.00,131.00
             922.02,131.00 927.07,132.51 929.00,127.00
             929.00,127.00 901.00,127.00 901.00,127.00 Z
           M 938.00,127.00
           C 938.00,127.00 938.00,165.00 938.00,165.00
             942.14,163.55 941.92,162.15 942.00,158.00
             942.00,158.00 942.00,127.00 942.00,127.00
             942.00,127.00 938.00,127.00 938.00,127.00 Z
           M 822.00,131.00
           C 822.00,131.00 823.00,135.00 823.00,135.00
             823.79,133.85 824.24,132.84 825.48,132.02
             828.31,130.16 835.97,131.05 838.26,133.56
             842.59,138.29 838.56,144.51 833.00,145.83
             830.94,146.08 827.21,146.00 825.00,145.83
             825.00,145.83 825.00,136.00 825.00,136.00
             825.00,136.00 822.00,146.00 822.00,146.00
             822.00,146.00 822.00,131.00 822.00,131.00 Z
           M 786.00,132.00
           C 786.00,132.00 786.00,133.00 786.00,133.00
             786.00,133.00 785.00,132.00 785.00,132.00
             785.00,132.00 786.00,132.00 786.00,132.00 Z
           M 763.00,132.00
           C 763.00,132.00 763.00,148.00 763.00,148.00
             764.53,144.15 764.53,135.85 763.00,132.00 Z
           M 785.00,134.00
           C 785.00,134.00 785.00,135.00 785.00,135.00
             785.00,135.00 784.00,134.00 784.00,134.00
             784.00,134.00 785.00,134.00 785.00,134.00 Z
           M 842.00,139.00
           C 842.00,139.00 842.00,140.00 842.00,140.00
             842.00,140.00 841.00,139.00 841.00,139.00
             841.00,139.00 842.00,139.00 842.00,139.00 Z
           M 843.00,140.00
           C 843.00,140.00 843.00,141.00 843.00,141.00
             843.00,141.00 842.00,140.00 842.00,140.00
             842.00,140.00 843.00,140.00 843.00,140.00 Z
           M 841.00,144.00
           C 841.00,144.00 837.00,146.00 837.00,146.00
             837.00,146.00 841.00,144.00 841.00,144.00 Z
           M 825.00,148.00
           C 825.00,148.00 825.00,149.00 825.00,149.00
             825.00,149.00 824.00,148.00 824.00,148.00
             824.00,148.00 825.00,148.00 825.00,148.00 Z
           M 837.00,152.00
           C 837.00,152.00 839.00,156.00 839.00,156.00
             839.00,156.00 837.00,152.00 837.00,152.00 Z
           M 765.00,158.00
           C 766.43,162.49 767.46,162.63 772.00,163.00
             766.72,166.41 760.80,164.64 765.00,158.00 Z
           M 842.00,159.00
           C 842.00,159.00 842.00,160.00 842.00,160.00
             842.00,160.00 841.00,159.00 841.00,159.00
             841.00,159.00 842.00,159.00 842.00,159.00 Z
           M 841.00,160.00
           C 841.00,160.00 841.00,161.00 841.00,161.00
             841.00,161.00 840.00,160.00 840.00,160.00
             840.00,160.00 841.00,160.00 841.00,160.00 Z
           M 780.00,160.00
           C 780.00,160.00 780.00,161.00 780.00,161.00
             780.00,161.00 781.00,160.00 781.00,160.00
             781.00,160.00 780.00,160.00 780.00,160.00 Z
           M 843.00,163.00
           C 843.00,163.00 843.00,164.00 843.00,164.00
             843.00,164.00 842.00,163.00 842.00,163.00
             842.00,163.00 843.00,163.00 843.00,163.00 Z
           M 806.00,164.00
           C 806.00,164.00 806.00,165.00 806.00,165.00
             806.00,165.00 805.00,164.00 805.00,164.00
             805.00,164.00 806.00,164.00 806.00,164.00 Z
           M 774.00,164.00
           C 774.00,164.00 780.00,165.00 780.00,165.00
             780.00,165.00 774.00,164.00 774.00,164.00 Z
           M 755.00,172.00
           C 755.00,172.00 755.00,173.00 755.00,173.00
             755.00,173.00 756.00,172.00 756.00,172.00
             756.00,172.00 755.00,172.00 755.00,172.00 Z" />
</svg>
