<?xml version="1.0" encoding="UTF-8" standalone="no"?>
<!DOCTYPE svg PUBLIC "-//W3C//DTD SVG 20010904//EN"
              "http://www.w3.org/TR/2001/REC-SVG-20010904/DTD/svg10.dtd">

<svg xmlns="http://www.w3.org/2000/svg"
     width="80.8568mm" height="42.9261mm"
     viewBox="0 0 955 507">
  <path id="Selezione #1"
        fill="none" stroke="black" stroke-width="1"
        d="M 174.00,56.00
           C 174.00,56.00 179.00,57.00 179.00,57.00
             179.00,57.00 174.00,56.00 174.00,56.00 Z
           M 114.00,57.00
           C 114.00,57.00 114.00,58.00 114.00,58.00
             114.00,58.00 115.00,57.00 115.00,57.00
             115.00,57.00 114.00,57.00 114.00,57.00 Z
           M 48.00,58.00
           C 48.00,58.00 53.00,59.00 53.00,59.00
             53.00,59.00 48.00,58.00 48.00,58.00 Z
           M 201.00,60.00
           C 201.00,60.00 201.00,61.00 201.00,61.00
             201.00,61.00 202.00,60.00 202.00,60.00
             202.00,60.00 201.00,60.00 201.00,60.00 Z
           M 8.00,64.00
           C 8.00,64.00 8.00,91.00 8.00,91.00
             8.00,91.00 9.00,109.00 9.00,109.00
             9.00,109.00 11.00,109.00 11.00,109.00
             11.00,109.00 10.00,96.00 10.00,96.00
             10.00,96.00 9.00,66.00 9.00,66.00
             9.00,66.00 49.00,65.00 49.00,65.00
             49.00,65.00 64.00,63.93 64.00,63.93
             64.00,63.93 94.00,63.93 94.00,63.93
             94.00,63.93 126.00,63.93 126.00,63.93
             126.00,63.93 138.00,63.00 138.00,63.00
             138.00,63.00 168.00,63.00 168.00,63.00
             168.00,63.00 197.00,63.00 197.00,63.00
             197.00,63.00 197.00,106.00 197.00,106.00
             197.00,106.00 165.00,106.00 165.00,106.00
             165.00,106.00 148.00,107.00 148.00,107.00
             148.00,107.00 45.00,108.00 45.00,108.00
             45.00,108.00 29.00,109.00 29.00,109.00
             29.00,109.00 13.00,109.00 13.00,109.00
             20.13,111.83 38.76,109.10 47.00,109.00
             47.00,109.00 131.00,109.00 131.00,109.00
             131.00,109.00 150.00,108.00 150.00,108.00
             150.00,108.00 186.00,108.00 186.00,108.00
             186.00,108.00 200.00,108.00 200.00,108.00
             200.00,108.00 199.00,61.00 199.00,61.00
             199.00,61.00 149.00,61.00 149.00,61.00
             149.00,61.00 132.00,62.00 132.00,62.00
             132.00,62.00 79.00,62.00 79.00,62.00
             79.00,62.00 62.00,63.00 62.00,63.00
             62.00,63.00 41.00,63.00 41.00,63.00
             41.00,63.00 8.00,64.00 8.00,64.00 Z
           M 189.00,65.00
           C 189.00,65.00 189.00,103.00 189.00,103.00
             194.03,102.12 193.83,100.79 194.00,96.00
             194.00,96.00 193.00,102.00 193.00,102.00
             193.00,102.00 190.00,102.00 190.00,102.00
             190.00,102.00 193.00,93.00 193.00,93.00
             189.18,86.15 190.00,73.84 190.00,66.00
             190.00,66.00 192.13,66.00 192.13,66.00
             192.13,66.00 192.13,90.00 192.13,90.00
             193.28,86.77 193.86,70.31 192.13,67.31
             191.54,65.53 190.61,65.56 189.00,65.00 Z
           M 107.80,102.00
           C 107.80,102.00 95.00,67.00 95.00,67.00
             95.00,67.00 90.00,67.00 90.00,67.00
             91.83,72.27 97.25,89.13 101.00,92.00
             101.00,92.00 103.00,102.00 103.00,102.00
             103.00,102.00 105.00,100.00 105.00,100.00
             105.00,100.00 104.00,103.00 104.00,103.00
             104.00,103.00 109.00,104.00 109.00,104.00
             109.00,104.00 121.00,66.00 121.00,66.00
             115.44,66.96 115.04,71.12 113.34,76.00
             111.99,79.91 107.77,91.57 107.80,95.00
             107.80,95.00 107.80,102.00 107.80,102.00 Z
           M 127.00,66.00
           C 127.00,66.00 127.00,72.00 127.00,72.00
             127.00,72.00 130.00,67.00 130.00,67.00
             130.00,67.00 129.00,82.00 129.00,82.00
             129.00,82.00 128.00,74.00 128.00,74.00
             126.07,78.87 127.00,97.62 127.00,104.00
             127.00,104.00 148.00,104.00 148.00,104.00
             148.00,104.00 148.00,100.00 148.00,100.00
             148.00,100.00 131.00,100.00 131.00,100.00
             131.00,100.00 131.00,86.00 131.00,86.00
             131.00,86.00 147.00,86.00 147.00,86.00
             147.00,86.00 147.00,82.00 147.00,82.00
             147.00,82.00 132.00,82.00 132.00,82.00
             132.00,82.00 133.00,85.00 133.00,85.00
             133.00,85.00 130.00,85.00 130.00,85.00
             130.00,85.00 131.00,70.00 131.00,70.00
             131.00,70.00 148.00,70.00 148.00,70.00
             148.00,70.00 146.41,67.02 146.41,67.02
             146.41,67.02 127.00,66.00 127.00,66.00 Z
           M 156.04,66.00
           C 156.04,66.00 156.04,86.00 156.04,86.00
             156.04,86.00 157.00,104.00 157.00,104.00
             157.00,104.00 161.00,104.00 161.00,104.00
             161.00,104.00 161.00,88.00 161.00,88.00
             161.00,88.00 167.00,88.00 167.00,88.00
             167.00,88.00 162.00,87.00 162.00,87.00
             162.00,87.00 168.00,85.00 168.00,85.00
             169.28,90.23 172.96,96.44 177.00,100.00
             177.00,100.00 175.00,94.00 175.00,94.00
             175.00,94.00 181.00,102.00 181.00,102.00
             181.00,102.00 177.00,101.00 177.00,101.00
             177.00,101.00 183.00,103.00 183.00,103.00
             183.00,103.00 173.00,86.00 173.00,86.00
             181.18,81.46 181.50,75.55 177.00,68.00
             176.50,74.41 180.12,75.56 175.00,83.00
             175.00,83.00 177.00,77.00 177.00,77.00
             170.28,83.87 171.04,83.97 161.00,84.00
             161.00,84.00 161.00,72.00 161.00,72.00
             161.00,72.00 158.00,73.00 158.00,73.00
             158.00,73.00 166.00,68.00 166.00,68.00
             166.00,68.00 160.00,68.00 160.00,68.00
             160.00,68.00 170.00,68.00 170.00,68.00
             170.00,68.00 168.00,69.00 168.00,69.00
             168.00,69.00 172.00,70.00 172.00,70.00
             172.00,70.00 175.00,68.00 175.00,68.00
             170.13,64.85 161.76,66.00 156.04,66.00 Z
           M 65.00,67.53
           C 62.02,68.42 59.80,69.10 57.53,71.39
             49.83,79.16 49.46,104.47 68.00,104.98
             72.95,105.12 76.93,105.00 80.90,101.61
             89.38,94.35 89.37,76.26 79.96,69.70
             75.55,66.62 70.08,66.70 65.00,67.53 Z
           M 118.00,68.00
           C 118.00,68.00 118.00,69.00 118.00,69.00
             118.00,69.00 117.00,68.00 117.00,68.00
             117.00,68.00 118.00,68.00 118.00,68.00 Z
           M 143.00,68.00
           C 143.00,68.00 143.00,69.00 143.00,69.00
             143.00,69.00 142.00,68.00 142.00,68.00
             142.00,68.00 143.00,68.00 143.00,68.00 Z
           M 16.00,68.00
           C 16.00,68.00 16.00,97.00 16.00,97.00
             16.00,98.99 15.77,102.78 17.01,104.38
             19.69,107.82 33.50,105.15 36.99,103.43
             49.09,97.49 49.21,75.64 36.99,69.76
             33.17,67.93 29.12,68.01 25.00,68.00
             25.00,68.00 16.00,68.00 16.00,68.00 Z
           M 160.00,69.00
           C 160.00,69.00 160.00,70.00 160.00,70.00
             160.00,70.00 159.00,69.00 159.00,69.00
             159.00,69.00 160.00,69.00 160.00,69.00 Z
           M 77.00,70.00
           C 77.00,70.00 77.00,71.00 77.00,71.00
             77.00,71.00 76.00,70.00 76.00,70.00
             76.00,70.00 77.00,70.00 77.00,70.00 Z
           M 79.00,70.00
           C 79.00,70.00 79.00,71.00 79.00,71.00
             79.00,71.00 78.00,70.00 78.00,70.00
             78.00,70.00 79.00,70.00 79.00,70.00 Z
           M 174.00,69.00
           C 174.00,69.00 175.00,76.00 175.00,76.00
             175.00,76.00 177.00,72.00 177.00,72.00
             177.00,72.00 174.00,69.00 174.00,69.00 Z
           M 65.02,71.51
           C 69.91,70.63 74.98,70.44 78.77,74.23
             85.08,80.52 84.08,97.30 74.91,100.66
             56.16,107.53 50.46,77.98 65.02,71.51 Z
           M 117.00,71.00
           C 117.00,71.00 117.00,72.00 117.00,72.00
             117.00,72.00 116.00,71.00 116.00,71.00
             116.00,71.00 117.00,71.00 117.00,71.00 Z
           M 20.00,102.00
           C 20.00,102.00 20.00,72.00 20.00,72.00
             24.84,72.00 31.80,71.30 35.93,74.01
             43.40,78.97 43.16,94.22 35.93,99.30
             31.31,102.58 25.38,102.00 20.00,102.00 Z
           M 37.00,72.00
           C 37.00,72.00 37.00,73.00 37.00,73.00
             37.00,73.00 36.00,72.00 36.00,72.00
             36.00,72.00 37.00,72.00 37.00,72.00 Z
           M 81.00,72.00
           C 81.00,72.00 81.00,73.00 81.00,73.00
             81.00,73.00 80.00,72.00 80.00,72.00
             80.00,72.00 81.00,72.00 81.00,72.00 Z
           M 117.00,73.00
           C 117.00,73.00 117.00,77.00 117.00,77.00
             117.00,77.00 117.00,73.00 117.00,73.00 Z
           M 96.00,75.00
           C 96.00,75.00 96.00,76.00 96.00,76.00
             96.00,76.00 95.00,75.00 95.00,75.00
             95.00,75.00 96.00,75.00 96.00,75.00 Z
           M 83.00,76.00
           C 83.00,76.00 83.00,77.00 83.00,77.00
             83.00,77.00 82.00,76.00 82.00,76.00
             82.00,76.00 83.00,76.00 83.00,76.00 Z
           M 160.00,76.00
           C 160.00,76.00 160.00,83.00 160.00,83.00
             160.00,83.00 160.00,76.00 160.00,76.00 Z
           M 174.00,83.00
           C 174.00,83.00 171.00,86.00 171.00,86.00
             171.00,86.00 173.00,89.00 173.00,89.00
             169.84,88.16 170.26,87.09 170.00,84.00
             170.00,84.00 174.00,83.00 174.00,83.00 Z
           M 111.00,88.00
           C 111.00,88.00 111.00,89.00 111.00,89.00
             111.00,89.00 110.00,88.00 110.00,88.00
             110.00,88.00 111.00,88.00 111.00,88.00 Z
           M 158.00,88.00
           C 158.00,88.00 158.00,89.00 158.00,89.00
             158.00,89.00 157.00,88.00 157.00,88.00
             157.00,88.00 158.00,88.00 158.00,88.00 Z
           M 159.00,89.00
           C 159.00,89.00 160.00,93.00 160.00,93.00
             160.00,93.00 159.00,89.00 159.00,89.00 Z
           M 112.00,91.00
           C 112.00,91.00 112.00,92.00 112.00,92.00
             112.00,92.00 111.00,91.00 111.00,91.00
             111.00,91.00 112.00,91.00 112.00,91.00 Z
           M 84.00,92.00
           C 84.00,92.00 84.00,93.00 84.00,93.00
             84.00,93.00 83.00,92.00 83.00,92.00
             83.00,92.00 84.00,92.00 84.00,92.00 Z
           M 83.00,95.00
           C 83.00,95.00 83.00,96.00 83.00,96.00
             83.00,96.00 82.00,95.00 82.00,95.00
             82.00,95.00 83.00,95.00 83.00,95.00 Z
           M 103.00,95.00
           C 103.00,95.00 105.00,97.00 105.00,97.00
             105.00,97.00 105.00,98.00 105.00,98.00
             105.00,98.00 103.00,95.00 103.00,95.00 Z
           M 130.00,95.00
           C 130.00,95.00 129.00,103.00 129.00,103.00
             127.67,99.53 128.01,98.08 130.00,95.00 Z
           M 41.00,97.00
           C 41.00,97.00 41.00,98.00 41.00,98.00
             41.00,98.00 40.00,97.00 40.00,97.00
             40.00,97.00 41.00,97.00 41.00,97.00 Z
           M 18.00,100.00
           C 18.00,100.00 18.00,101.00 18.00,101.00
             18.00,101.00 17.00,100.00 17.00,100.00
             17.00,100.00 18.00,100.00 18.00,100.00 Z
           M 80.00,100.00
           C 80.00,100.00 80.00,101.00 80.00,101.00
             80.00,101.00 79.00,100.00 79.00,100.00
             79.00,100.00 80.00,100.00 80.00,100.00 Z
           M 131.00,100.00
           C 131.00,100.00 142.00,101.00 142.00,101.00
             142.00,101.00 142.00,103.00 142.00,103.00
             139.09,103.00 130.02,104.45 131.00,100.00 Z
           M 160.00,101.00
           C 160.00,101.00 160.00,102.00 160.00,102.00
             160.00,102.00 159.00,101.00 159.00,101.00
             159.00,101.00 160.00,101.00 160.00,101.00 Z
           M 65.00,129.00
           C 65.00,129.00 65.00,130.00 65.00,130.00
             65.00,130.00 66.00,129.00 66.00,129.00
             66.00,129.00 65.00,129.00 65.00,129.00 Z" />
</svg>
