<?xml version="1.0" encoding="UTF-8" standalone="no"?>
<!DOCTYPE svg PUBLIC "-//W3C//DTD SVG 20010904//EN"
              "http://www.w3.org/TR/2001/REC-SVG-20010904/DTD/svg10.dtd">

<svg xmlns="http://www.w3.org/2000/svg"
     width="80.8568mm" height="42.9261mm"
     viewBox="0 0 955 507">
  <path id="Selezione"
        fill="none" stroke="black" stroke-width="1"
        d="M 667.00,36.00
           C 667.00,36.00 667.00,37.00 667.00,37.00
             667.00,37.00 668.00,36.00 668.00,36.00
             668.00,36.00 667.00,36.00 667.00,36.00 Z
           M 658.00,70.00
           C 658.00,70.00 658.00,71.00 658.00,71.00
             658.00,71.00 659.00,70.00 659.00,70.00
             659.00,70.00 658.00,70.00 658.00,70.00 Z
           M 753.00,120.00
           C 753.00,120.00 774.00,121.00 774.00,121.00
             769.34,118.38 758.92,120.00 753.00,120.00 Z
           M 791.00,119.00
           C 791.00,119.00 791.00,120.00 791.00,120.00
             791.00,120.00 792.00,119.00 792.00,119.00
             792.00,119.00 791.00,119.00 791.00,119.00 Z
           M 852.00,119.00
           C 852.00,119.00 857.00,120.00 857.00,120.00
             857.00,120.00 852.00,119.00 852.00,119.00 Z
           M 867.00,119.00
           C 867.00,119.00 867.00,120.00 867.00,120.00
             867.00,120.00 868.00,119.00 868.00,119.00
             868.00,119.00 867.00,119.00 867.00,119.00 Z
           M 927.00,119.00
           C 927.00,119.00 927.00,120.00 927.00,120.00
             927.00,120.00 928.00,119.00 928.00,119.00
             928.00,119.00 927.00,119.00 927.00,119.00 Z
           M 775.00,120.00
           C 775.00,120.00 775.00,121.00 775.00,121.00
             775.00,121.00 776.00,120.00 776.00,120.00
             776.00,120.00 775.00,120.00 775.00,120.00 Z
           M 777.00,120.00
           C 777.00,120.00 777.00,121.00 777.00,121.00
             777.00,121.00 778.00,120.00 778.00,120.00
             778.00,120.00 777.00,120.00 777.00,120.00 Z
           M 779.00,120.00
           C 779.00,120.00 779.00,121.00 779.00,121.00
             779.00,121.00 780.00,120.00 780.00,120.00
             780.00,120.00 779.00,120.00 779.00,120.00 Z
           M 781.00,120.00
           C 781.00,120.00 789.00,121.00 789.00,121.00
             789.00,121.00 781.00,120.00 781.00,120.00 Z
           M 941.00,121.00
           C 941.00,121.00 941.00,122.00 941.00,122.00
             941.00,122.00 942.00,121.00 942.00,121.00
             942.00,121.00 941.00,121.00 941.00,121.00 Z
           M 801.00,122.00
           C 801.00,122.00 814.00,123.00 814.00,123.00
             814.00,123.00 839.00,123.00 839.00,123.00
             839.00,123.00 826.00,122.00 826.00,122.00
             826.00,122.00 801.00,122.00 801.00,122.00 Z
           M 840.00,122.00
           C 840.00,122.00 840.00,123.00 840.00,123.00
             840.00,123.00 841.00,122.00 841.00,122.00
             841.00,122.00 840.00,122.00 840.00,122.00 Z
           M 842.00,122.00
           C 842.00,122.00 842.00,123.00 842.00,123.00
             842.00,123.00 843.00,122.00 843.00,122.00
             843.00,122.00 842.00,122.00 842.00,122.00 Z
           M 848.00,122.00
           C 848.00,122.00 848.00,123.00 848.00,123.00
             848.00,123.00 849.00,122.00 849.00,122.00
             849.00,122.00 848.00,122.00 848.00,122.00 Z
           M 757.00,125.00
           C 757.00,125.00 757.00,152.00 757.00,152.00
             757.00,152.00 758.00,169.00 758.00,169.00
             758.00,169.00 781.00,168.00 781.00,168.00
             781.00,168.00 819.00,168.00 819.00,168.00
             819.00,168.00 895.00,168.00 895.00,168.00
             895.00,168.00 906.00,167.34 906.00,167.34
             906.00,167.34 915.00,168.00 915.00,168.00
             915.00,168.00 933.00,167.30 933.00,167.30
             933.00,167.30 944.01,166.25 944.01,166.25
             944.01,166.25 945.00,155.00 945.00,155.00
             945.00,155.00 944.00,124.00 944.00,124.00
             944.00,124.00 811.00,125.00 811.00,125.00
             811.00,125.00 757.00,125.00 757.00,125.00 Z
           M 861.00,127.00
           C 861.00,127.00 861.00,159.00 861.00,159.00
             860.92,163.26 861.11,164.35 857.00,166.00
             857.00,166.00 856.00,146.00 856.00,146.00
             856.00,146.00 857.00,126.00 857.00,126.00
             857.00,126.00 861.00,127.00 861.00,127.00 Z
           M 897.00,126.05
           C 898.22,135.25 888.23,128.54 885.80,134.24
             884.09,137.51 886.09,152.92 885.80,158.00
             885.82,167.29 880.18,167.30 880.00,158.00
             879.86,149.95 880.82,138.47 879.00,131.00
             879.00,131.00 868.00,132.00 868.00,132.00
             868.00,132.00 868.00,127.00 868.00,127.00
             868.00,127.00 888.00,126.05 888.00,126.05
             888.00,126.05 897.00,126.05 897.00,126.05 Z
           M 930.00,127.00
           C 927.72,132.66 922.39,131.00 917.04,131.00
             917.04,131.00 917.04,145.00 917.04,145.00
             917.04,145.00 918.00,155.00 918.00,155.00
             918.06,160.13 919.30,163.87 914.00,166.00
             914.00,166.00 913.00,147.00 913.00,147.00
             913.00,147.00 912.00,131.00 912.00,131.00
             912.00,131.00 900.00,131.00 900.00,131.00
             900.00,131.00 902.43,126.57 902.43,126.57
             902.43,126.57 911.00,126.00 911.00,126.00
             911.00,126.00 930.00,127.00 930.00,127.00 Z
           M 942.00,126.00
           C 942.00,126.00 942.00,165.00 942.00,165.00
             939.89,164.75 937.68,164.77 936.33,162.57
             935.92,161.26 936.01,158.49 936.33,157.00
             936.33,157.00 936.33,135.00 936.33,135.00
             937.14,129.65 936.22,127.02 942.00,126.00 Z
           M 762.00,167.00
           C 760.14,161.16 760.06,159.05 760.06,153.00
             760.06,153.00 760.06,134.07 760.06,134.07
             760.19,132.23 760.37,129.86 761.79,128.51
             764.25,126.18 775.68,126.76 779.00,127.53
             797.57,131.82 794.78,157.04 785.71,162.87
             778.61,167.44 769.82,165.10 762.00,167.00 Z
           M 808.00,127.00
           C 808.00,127.00 808.00,166.00 808.00,166.00
             808.00,166.00 803.00,166.00 803.00,166.00
             803.00,166.00 803.00,127.00 803.00,127.00
             803.00,127.00 808.00,127.00 808.00,127.00 Z
           M 838.00,148.00
           C 838.00,148.00 848.00,165.00 848.00,165.00
             838.52,167.39 838.84,157.81 833.39,152.31
             830.85,149.75 828.33,150.04 825.00,150.00
             825.00,150.00 826.00,165.00 826.00,165.00
             826.00,165.00 820.00,166.00 820.00,166.00
             820.00,166.00 820.00,127.00 820.00,127.00
             824.94,127.00 835.88,126.25 839.91,128.45
             846.79,132.22 847.47,143.41 838.00,148.00 Z
           M 766.00,132.00
           C 766.00,132.00 766.00,150.00 766.00,150.00
             766.02,151.99 765.86,158.02 767.08,159.49
             768.43,161.11 771.11,160.98 773.00,160.83
             776.25,160.57 780.31,159.91 782.79,157.69
             788.57,152.51 788.47,140.52 782.79,135.30
             778.45,131.31 771.49,132.00 766.00,132.00 Z
           M 825.00,132.00
           C 825.00,132.00 825.00,145.00 825.00,145.00
             827.92,145.00 834.43,145.42 836.75,143.98
             840.69,141.58 840.39,135.48 836.75,133.17
             834.21,131.59 828.07,132.00 825.00,132.00 Z
           M 839.00,140.00
           C 839.00,140.00 839.00,141.00 839.00,141.00
             839.00,141.00 838.00,140.00 838.00,140.00
             838.00,140.00 839.00,140.00 839.00,140.00 Z
           M 838.00,142.00
           C 838.00,142.00 838.00,143.00 838.00,143.00
             838.00,143.00 837.00,142.00 837.00,142.00
             837.00,142.00 838.00,142.00 838.00,142.00 Z
           M 912.00,160.00
           C 912.00,160.00 912.00,161.00 912.00,161.00
             912.00,161.00 911.00,160.00 911.00,160.00
             911.00,160.00 912.00,160.00 912.00,160.00 Z
           M 839.00,161.00
           C 839.00,161.00 839.00,162.00 839.00,162.00
             839.00,162.00 838.00,161.00 838.00,161.00
             838.00,161.00 839.00,161.00 839.00,161.00 Z
           M 756.00,170.00
           C 756.00,170.00 756.00,171.00 756.00,171.00
             756.00,171.00 757.00,170.00 757.00,170.00
             757.00,170.00 756.00,170.00 756.00,170.00 Z
           M 797.00,170.00
           C 797.00,170.00 797.00,171.00 797.00,171.00
             797.00,171.00 798.00,170.00 798.00,170.00
             798.00,170.00 797.00,170.00 797.00,170.00 Z
           M 804.00,170.00
           C 804.00,170.00 804.00,171.00 804.00,171.00
             804.00,171.00 805.00,170.00 805.00,170.00
             805.00,170.00 804.00,170.00 804.00,170.00 Z
           M 824.00,170.00
           C 824.00,170.00 851.00,171.00 851.00,171.00
             851.00,171.00 824.00,170.00 824.00,170.00 Z
           M 858.00,170.00
           C 858.00,170.00 858.00,171.00 858.00,171.00
             858.00,171.00 859.00,170.00 859.00,170.00
             859.00,170.00 858.00,170.00 858.00,170.00 Z" />
</svg>
