<?xml version="1.0" encoding="UTF-8" standalone="no"?>
<!DOCTYPE svg PUBLIC "-//W3C//DTD SVG 20010904//EN"
              "http://www.w3.org/TR/2001/REC-SVG-20010904/DTD/svg10.dtd">

<svg xmlns="http://www.w3.org/2000/svg"
     width="80.8568mm" height="42.9261mm"
     viewBox="0 0 955 507">
  <path id="sfondosinistra"
        fill="none" stroke="black" stroke-width="1"
        d="M 82.00,58.00
           C 82.00,58.00 82.00,59.00 82.00,59.00
             82.00,59.00 83.00,58.00 83.00,58.00
             83.00,58.00 82.00,58.00 82.00,58.00 Z
           M 161.00,60.00
           C 165.87,61.93 184.62,61.00 191.00,61.00
             186.13,59.07 167.38,60.00 161.00,60.00 Z
           M 110.00,61.00
           C 110.00,61.00 125.00,62.00 125.00,62.00
             125.00,62.00 110.00,61.00 110.00,61.00 Z
           M 48.00,62.00
           C 48.00,62.00 63.00,63.00 63.00,63.00
             63.00,63.00 48.00,62.00 48.00,62.00 Z
           M 10.00,66.00
           C 10.00,66.00 11.00,85.00 11.00,85.00
             11.00,85.00 11.00,108.00 11.00,108.00
             11.00,108.00 62.00,108.00 62.00,108.00
             62.00,108.00 79.00,106.99 79.00,106.99
             79.00,106.99 116.00,106.99 116.00,106.99
             116.00,106.99 132.00,106.99 132.00,106.99
             132.00,106.99 145.00,105.95 145.00,105.95
             145.00,105.95 183.17,105.95 183.17,105.95
             183.17,105.95 196.98,105.00 196.98,105.00
             196.98,105.00 196.98,96.00 196.98,96.00
             196.98,96.00 196.00,84.00 196.00,84.00
             196.00,84.00 196.00,63.00 196.00,63.00
             196.00,63.00 81.00,64.00 81.00,64.00
             81.00,64.00 63.00,65.00 63.00,65.00
             63.00,65.00 27.00,65.00 27.00,65.00
             27.00,65.00 10.00,66.00 10.00,66.00 Z
           M 174.00,86.00
           C 174.00,86.00 183.00,104.00 183.00,104.00
             169.40,102.89 176.20,88.53 161.00,88.00
             161.00,88.00 162.00,103.00 162.00,103.00
             155.74,104.32 156.04,101.24 156.00,96.00
             156.00,96.00 156.00,74.00 156.00,74.00
             156.00,71.70 155.62,67.59 157.60,66.02
             159.24,64.73 163.91,64.96 166.00,65.01
             169.67,65.10 174.35,65.58 177.20,68.14
             182.11,72.57 181.76,82.20 174.00,86.00 Z
           M 194.00,66.00
           C 194.00,66.00 194.00,97.00 194.00,97.00
             193.92,101.26 194.11,102.35 190.00,104.00
             190.00,104.00 189.00,83.00 189.00,83.00
             189.00,83.00 188.00,65.00 188.00,65.00
             188.00,65.00 194.00,66.00 194.00,66.00 Z
           M 52.83,74.00
           C 56.97,71.26 60.24,68.16 65.00,66.79
             77.03,63.31 86.83,71.89 87.00,84.00
             87.13,94.11 85.79,103.11 74.00,105.53
             71.37,106.06 68.64,106.04 66.00,105.53
             62.41,104.84 59.75,103.61 57.22,100.89
             54.58,98.06 53.46,94.70 52.83,91.00
             51.24,84.30 53.35,80.44 52.83,74.00 Z
           M 95.00,66.00
           C 95.00,66.00 106.00,97.00 106.00,97.00
             106.00,97.00 106.00,91.00 106.00,91.00
             106.00,91.00 107.00,94.00 107.00,94.00
             107.00,94.00 113.00,76.00 113.00,76.00
             113.00,76.00 116.81,67.60 116.81,67.60
             116.81,67.60 122.00,66.00 122.00,66.00
             122.00,66.00 112.14,96.00 112.14,96.00
             111.31,98.88 109.94,104.37 106.08,104.37
             102.41,104.37 101.46,98.49 100.51,95.83
             100.51,95.83 90.00,67.00 90.00,67.00
             90.00,67.00 95.00,66.00 95.00,66.00 Z
           M 148.00,66.00
           C 148.00,66.00 148.00,70.00 148.00,70.00
             148.00,70.00 132.00,71.00 132.00,71.00
             132.00,71.00 132.00,82.00 132.00,82.00
             132.00,82.00 147.00,82.00 147.00,82.00
             147.00,82.00 147.00,86.00 147.00,86.00
             147.00,86.00 132.00,87.00 132.00,87.00
             132.00,87.00 132.00,99.00 132.00,99.00
             132.00,99.00 149.00,99.00 149.00,99.00
             149.00,99.00 149.00,104.00 149.00,104.00
             149.00,104.00 128.00,105.00 128.00,105.00
             128.00,105.00 125.00,101.00 125.00,101.00
             126.54,98.84 126.57,94.73 126.83,92.00
             127.59,83.93 126.98,74.85 125.00,67.00
             125.00,67.00 148.00,66.00 148.00,66.00 Z
           M 15.00,68.00
           C 15.00,68.00 15.00,92.00 15.00,92.00
             13.38,87.91 13.38,72.09 15.00,68.00 Z
           M 16.00,106.00
           C 16.00,106.00 16.00,68.00 16.00,68.00
             22.01,68.00 33.01,66.99 38.00,70.01
             48.11,76.11 49.32,95.06 39.82,102.30
             33.70,106.96 23.33,106.00 16.00,106.00 Z
           M 161.00,70.00
           C 161.00,70.00 161.00,84.00 161.00,84.00
             163.83,83.79 170.27,83.61 172.43,82.02
             175.45,79.80 176.04,73.65 171.85,71.17
             169.28,69.65 164.03,70.00 161.00,70.00 Z
           M 67.00,71.53
           C 64.30,72.41 62.56,72.91 60.65,75.22
             55.48,81.47 55.48,105.65 74.00,100.57
             81.81,98.43 81.61,92.40 81.56,86.00
             81.49,75.66 78.74,69.70 67.00,71.53 Z
           M 20.00,73.00
           C 20.00,73.00 21.00,102.00 21.00,102.00
             26.54,101.98 33.41,101.81 37.61,97.61
             42.56,92.64 41.94,79.25 36.47,74.81
             32.23,71.36 24.93,71.60 20.00,73.00 Z
           M 78.00,74.00
           C 78.00,74.00 78.00,75.00 78.00,75.00
             78.00,75.00 77.00,74.00 77.00,74.00
             77.00,74.00 78.00,74.00 78.00,74.00 Z
           M 79.00,75.00
           C 79.00,75.00 79.00,76.00 79.00,76.00
             79.00,76.00 78.00,75.00 78.00,75.00
             78.00,75.00 79.00,75.00 79.00,75.00 Z
           M 174.00,79.00
           C 174.00,79.00 174.00,80.00 174.00,80.00
             174.00,80.00 173.00,79.00 173.00,79.00
             173.00,79.00 174.00,79.00 174.00,79.00 Z
           M 40.00,84.00
           C 40.00,84.00 40.00,85.00 40.00,85.00
             40.00,85.00 39.00,84.00 39.00,84.00
             39.00,84.00 40.00,84.00 40.00,84.00 Z
           M 126.00,92.00
           C 126.00,92.00 126.00,93.00 126.00,93.00
             126.00,93.00 125.00,92.00 125.00,92.00
             125.00,92.00 126.00,92.00 126.00,92.00 Z
           M 80.00,94.00
           C 80.00,94.00 80.00,95.00 80.00,95.00
             80.00,95.00 79.00,94.00 79.00,94.00
             79.00,94.00 80.00,94.00 80.00,94.00 Z
           M 38.00,95.00
           C 38.00,95.00 38.00,96.00 38.00,96.00
             38.00,96.00 37.00,95.00 37.00,95.00
             37.00,95.00 38.00,95.00 38.00,95.00 Z
           M 15.00,103.00
           C 15.00,103.00 15.00,104.00 15.00,104.00
             15.00,104.00 14.00,103.00 14.00,103.00
             14.00,103.00 15.00,103.00 15.00,103.00 Z
           M 151.00,108.00
           C 151.00,108.00 157.00,109.00 157.00,109.00
             157.00,109.00 151.00,108.00 151.00,108.00 Z
           M 85.00,109.00
           C 85.00,109.00 109.00,110.00 109.00,110.00
             109.00,110.00 85.00,109.00 85.00,109.00 Z
           M 12.00,110.00
           C 12.00,110.00 12.00,111.00 12.00,111.00
             12.00,111.00 13.00,110.00 13.00,110.00
             13.00,110.00 12.00,110.00 12.00,110.00 Z
           M 29.00,110.00
           C 29.00,110.00 42.00,111.00 42.00,111.00
             42.00,111.00 29.00,110.00 29.00,110.00 Z
           M 164.00,124.00
           C 164.00,124.00 164.00,125.00 164.00,125.00
             164.00,125.00 165.00,124.00 165.00,124.00
             165.00,124.00 164.00,124.00 164.00,124.00 Z" />
</svg>
