<?xml version="1.0" encoding="UTF-8" standalone="no"?>
<!DOCTYPE svg PUBLIC "-//W3C//DTD SVG 20010904//EN"
              "http://www.w3.org/TR/2001/REC-SVG-20010904/DTD/svg10.dtd">

<svg xmlns="http://www.w3.org/2000/svg"
     width="80.8568mm" height="42.9261mm"
     viewBox="0 0 955 507">
  <path id="Selezione #11"
        fill="none" stroke="black" stroke-width="1"
        d="M 894.00,191.17
           C 884.08,188.66 883.28,191.72 876.00,191.17
             863.55,190.67 866.07,191.89 857.00,192.01
             857.00,192.01 838.00,192.01 838.00,192.01
             838.00,192.01 823.00,191.05 823.00,191.05
             823.00,191.05 811.00,190.47 811.00,190.47
             806.60,190.15 807.03,188.78 799.00,189.02
             790.80,189.25 787.57,195.78 793.14,201.83
             794.72,203.55 798.96,207.34 801.17,207.99
             803.12,208.55 805.78,207.89 808.97,209.02
             812.09,210.12 812.63,211.24 814.00,214.00
             814.00,214.00 818.00,213.00 818.00,213.00
             819.18,216.28 824.22,214.50 827.00,214.00
             827.00,214.00 825.00,215.00 825.00,215.00
             825.00,215.00 834.00,216.00 834.00,216.00
             834.00,216.00 829.00,215.00 829.00,215.00
             836.53,212.87 837.19,215.35 843.00,214.21
             843.00,214.21 873.00,205.51 873.00,205.51
             873.00,205.51 887.00,203.91 887.00,203.91
             897.52,201.91 914.52,194.55 921.00,186.24
             921.00,186.24 913.01,186.24 913.01,186.24
             913.01,186.24 902.99,188.01 902.99,188.01
             899.65,188.44 896.30,188.39 894.00,191.17 Z
           M 793.00,192.00
           C 793.00,192.00 793.00,193.00 793.00,193.00
             793.00,193.00 792.00,192.00 792.00,192.00
             792.00,192.00 793.00,192.00 793.00,192.00 Z
           M 792.00,198.00
           C 792.00,198.00 792.00,199.00 792.00,199.00
             792.00,199.00 791.00,198.00 791.00,198.00
             791.00,198.00 792.00,198.00 792.00,198.00 Z
           M 794.00,200.00
           C 794.00,200.00 794.00,201.00 794.00,201.00
             794.00,201.00 793.00,200.00 793.00,200.00
             793.00,200.00 794.00,200.00 794.00,200.00 Z
           M 810.00,211.00
           C 810.00,211.00 810.00,212.00 810.00,212.00
             810.00,212.00 811.00,211.00 811.00,211.00
             811.00,211.00 810.00,211.00 810.00,211.00 Z
           M 837.00,215.00
           C 837.00,215.00 837.00,216.00 837.00,216.00
             837.00,216.00 838.00,215.00 838.00,215.00
             838.00,215.00 837.00,215.00 837.00,215.00 Z" />
</svg>
