<?xml version="1.0" encoding="UTF-8" standalone="no"?>
<!DOCTYPE svg PUBLIC "-//W3C//DTD SVG 20010904//EN"
              "http://www.w3.org/TR/2001/REC-SVG-20010904/DTD/svg10.dtd">

<svg xmlns="http://www.w3.org/2000/svg"
     width="80.8568mm" height="42.9261mm"
     viewBox="0 0 955 507">
  <path id="Selezione #3"
        fill="none" stroke="black" stroke-width="1"
        d="M 925.00,120.00
           C 929.81,121.91 948.16,121.79 953.00,120.00
             953.00,120.00 941.00,120.00 941.00,120.00
             941.00,120.00 925.00,120.00 925.00,120.00 Z
           M 750.00,121.00
           C 750.00,121.00 765.00,122.00 765.00,122.00
             765.00,122.00 794.00,122.00 794.00,122.00
             794.00,122.00 893.00,122.00 893.00,122.00
             884.61,118.42 861.93,120.88 852.00,121.00
             852.00,121.00 750.00,121.00 750.00,121.00 Z
           M 901.00,120.00
           C 906.23,122.41 912.51,122.56 918.00,121.00
             918.00,121.00 901.00,120.00 901.00,120.00 Z
           M 756.00,171.33
           C 758.84,178.58 767.15,179.76 774.00,181.90
             778.91,183.43 779.45,184.11 785.00,185.00
             785.00,185.00 794.00,186.82 794.00,186.82
             794.00,186.82 831.00,189.99 831.00,189.99
             831.00,189.99 867.00,189.99 867.00,189.99
             867.00,189.99 895.00,187.93 895.00,187.93
             898.56,187.60 903.53,187.76 906.00,185.00
             910.69,186.12 912.42,185.32 917.00,184.40
             925.70,182.65 943.10,179.38 946.00,170.00
             946.00,170.00 927.00,171.33 927.00,171.33
             927.00,171.33 846.00,171.33 846.00,171.33
             846.00,171.33 794.00,171.33 794.00,171.33
             794.00,171.33 783.00,171.33 783.00,171.33
             783.00,171.33 777.00,171.33 777.00,171.33
             777.00,171.33 770.00,171.33 770.00,171.33
             770.00,171.33 756.00,171.33 756.00,171.33 Z" />
</svg>
