<?xml version="1.0" encoding="UTF-8" standalone="no"?>
<!DOCTYPE svg PUBLIC "-//W3C//DTD SVG 20010904//EN"
              "http://www.w3.org/TR/2001/REC-SVG-20010904/DTD/svg10.dtd">

<svg xmlns="http://www.w3.org/2000/svg"
     width="80.8568mm" height="42.9261mm"
     viewBox="0 0 955 507">
  <path id="Selezione #5"
        fill="none" stroke="black" stroke-width="1"
        d="M 751.00,122.00
           C 751.00,122.00 767.00,123.00 767.00,123.00
             767.00,123.00 797.00,123.00 797.00,123.00
             797.00,123.00 810.01,121.06 810.01,121.06
             810.01,121.06 825.00,122.00 825.00,122.00
             825.00,122.00 847.00,122.00 847.00,122.00
             847.00,122.00 857.00,121.09 857.00,121.09
             857.00,121.09 866.00,121.66 866.00,121.66
             866.00,121.66 873.00,121.04 873.00,121.04
             873.00,121.04 892.00,122.00 892.00,122.00
             892.00,122.00 949.00,122.00 949.00,122.00
             949.00,122.00 949.00,119.00 949.00,119.00
             949.00,119.00 931.50,120.03 931.50,120.03
             931.50,120.03 925.91,120.03 925.91,120.03
             925.91,120.03 900.00,120.03 900.00,120.03
             900.00,120.03 801.00,120.03 801.00,120.03
             801.00,120.03 782.00,121.00 782.00,121.00
             782.00,121.00 751.00,122.00 751.00,122.00 Z
           M 950.00,119.00
           C 950.00,119.00 950.00,120.00 950.00,120.00
             950.00,120.00 951.00,119.00 951.00,119.00
             951.00,119.00 950.00,119.00 950.00,119.00 Z
           M 934.98,126.00
           C 934.98,126.00 934.98,140.00 934.98,140.00
             934.98,140.00 934.29,152.00 934.29,152.00
             934.29,152.00 935.00,164.00 935.00,164.00
             937.46,161.80 936.98,160.18 937.00,157.00
             937.04,150.03 938.40,131.25 934.98,126.00 Z
           M 760.00,129.00
           C 760.00,129.00 760.00,164.00 760.00,164.00
             760.00,164.00 761.00,153.00 761.00,153.00
             761.00,153.00 760.00,129.00 760.00,129.00 Z
           M 801.00,129.00
           C 801.00,129.00 801.00,158.00 801.00,158.00
             802.66,153.82 802.66,133.18 801.00,129.00 Z
           M 818.00,129.00
           C 818.00,129.00 818.00,136.00 818.00,136.00
             819.53,132.91 819.85,131.98 818.00,129.00 Z
           M 910.98,132.00
           C 910.98,132.00 910.98,147.00 910.98,147.00
             910.98,147.00 910.34,154.00 910.34,154.00
             910.34,154.00 911.00,164.00 911.00,164.00
             911.00,164.00 912.00,140.00 912.00,140.00
             912.00,140.00 910.98,132.00 910.98,132.00 Z
           M 837.00,134.00
           C 837.00,134.00 837.00,135.00 837.00,135.00
             837.00,135.00 838.00,134.00 838.00,134.00
             838.00,134.00 837.00,134.00 837.00,134.00 Z
           M 854.00,136.00
           C 854.00,136.00 854.00,164.00 854.00,164.00
             855.65,159.84 855.65,140.16 854.00,136.00 Z
           M 879.00,136.00
           C 879.00,136.00 879.00,160.00 879.00,160.00
             880.62,155.91 880.62,140.09 879.00,136.00 Z
           M 838.00,138.00
           C 838.00,138.00 837.00,143.00 837.00,143.00
             837.00,143.00 838.00,138.00 838.00,138.00 Z
           M 785.00,146.00
           C 785.00,146.00 785.00,152.00 785.00,152.00
             786.43,149.19 786.47,148.80 785.00,146.00 Z
           M 834.00,155.00
           C 834.00,155.00 834.00,156.00 834.00,156.00
             834.00,156.00 835.00,155.00 835.00,155.00
             835.00,155.00 834.00,155.00 834.00,155.00 Z
           M 819.00,157.00
           C 819.00,157.00 819.00,164.00 819.00,164.00
             819.00,164.00 819.00,157.00 819.00,157.00 Z
           M 837.00,159.00
           C 837.00,159.00 837.00,160.00 837.00,160.00
             837.00,160.00 838.00,159.00 838.00,159.00
             838.00,159.00 837.00,159.00 837.00,159.00 Z
           M 838.00,161.00
           C 838.00,161.00 838.00,162.00 838.00,162.00
             838.00,162.00 839.00,161.00 839.00,161.00
             839.00,161.00 838.00,161.00 838.00,161.00 Z
           M 936.00,165.00
           C 936.00,165.00 936.00,166.00 936.00,166.00
             936.00,166.00 937.00,165.00 937.00,165.00
             937.00,165.00 936.00,165.00 936.00,165.00 Z
           M 943.00,166.00
           C 943.00,166.00 943.00,167.00 943.00,167.00
             943.00,167.00 944.00,166.00 944.00,166.00
             944.00,166.00 943.00,166.00 943.00,166.00 Z
           M 821.00,170.90
           C 828.04,173.99 835.67,172.08 843.00,172.00
             843.00,172.00 881.00,172.00 881.00,172.00
             881.00,172.00 905.00,171.08 905.00,171.08
             905.00,171.08 915.00,171.62 915.00,171.62
             921.32,171.55 928.31,170.83 934.00,174.00
             934.00,174.00 941.00,171.00 941.00,171.00
             941.00,171.00 942.00,173.00 942.00,173.00
             942.00,173.00 944.00,170.00 944.00,170.00
             944.00,170.00 868.00,170.00 868.00,170.00
             868.00,170.00 849.00,170.90 849.00,170.90
             849.00,170.90 821.00,170.90 821.00,170.90 Z
           M 945.00,170.00
           C 945.00,170.00 945.00,171.00 945.00,171.00
             945.00,171.00 946.00,170.00 946.00,170.00
             946.00,170.00 945.00,170.00 945.00,170.00 Z
           M 758.00,171.00
           C 764.19,174.78 773.01,174.83 780.00,173.68
             780.00,173.68 785.99,172.72 785.99,172.72
             785.99,172.72 807.04,172.72 807.04,172.72
             807.04,172.72 820.00,172.00 820.00,172.00
             820.00,172.00 800.00,171.00 800.00,171.00
             800.00,171.00 758.00,171.00 758.00,171.00 Z
           M 765.00,172.00
           C 765.00,172.00 765.00,173.00 765.00,173.00
             765.00,173.00 764.00,172.00 764.00,172.00
             764.00,172.00 765.00,172.00 765.00,172.00 Z
           M 940.00,176.00
           C 940.00,176.00 940.00,177.00 940.00,177.00
             940.00,177.00 941.00,176.00 941.00,176.00
             941.00,176.00 940.00,176.00 940.00,176.00 Z
           M 938.00,177.00
           C 938.00,177.00 938.00,178.00 938.00,178.00
             938.00,178.00 939.00,177.00 939.00,177.00
             939.00,177.00 938.00,177.00 938.00,177.00 Z
           M 934.00,179.00
           C 934.00,179.00 934.00,180.00 934.00,180.00
             934.00,180.00 935.00,179.00 935.00,179.00
             935.00,179.00 934.00,179.00 934.00,179.00 Z
           M 927.00,181.00
           C 927.00,181.00 927.00,182.00 927.00,182.00
             927.00,182.00 928.00,181.00 928.00,181.00
             928.00,181.00 927.00,181.00 927.00,181.00 Z
           M 781.00,182.00
           C 781.00,182.00 781.00,183.00 781.00,183.00
             781.00,183.00 782.00,182.00 782.00,182.00
             782.00,182.00 781.00,182.00 781.00,182.00 Z
           M 788.00,183.00
           C 788.00,183.00 788.00,184.00 788.00,184.00
             788.00,184.00 789.00,183.00 789.00,183.00
             789.00,183.00 788.00,183.00 788.00,183.00 Z
           M 920.00,183.00
           C 920.00,183.00 920.00,184.00 920.00,184.00
             920.00,184.00 921.00,183.00 921.00,183.00
             921.00,183.00 920.00,183.00 920.00,183.00 Z
           M 782.00,184.00
           C 782.00,184.00 782.00,185.00 782.00,185.00
             782.00,185.00 783.00,184.00 783.00,184.00
             783.00,184.00 782.00,184.00 782.00,184.00 Z
           M 915.00,184.00
           C 915.00,184.00 915.00,185.00 915.00,185.00
             915.00,185.00 916.00,184.00 916.00,184.00
             916.00,184.00 915.00,184.00 915.00,184.00 Z
           M 792.00,186.00
           C 792.00,186.00 792.00,187.00 792.00,187.00
             792.00,187.00 793.00,186.00 793.00,186.00
             793.00,186.00 792.00,186.00 792.00,186.00 Z
           M 905.00,186.00
           C 905.00,186.00 905.00,187.00 905.00,187.00
             905.00,187.00 906.00,186.00 906.00,186.00
             906.00,186.00 905.00,186.00 905.00,186.00 Z
           M 810.00,188.00
           C 810.00,188.00 810.00,189.00 810.00,189.00
             810.00,189.00 811.00,188.00 811.00,188.00
             811.00,188.00 810.00,188.00 810.00,188.00 Z
           M 822.00,189.00
           C 822.00,189.00 822.00,190.00 822.00,190.00
             822.00,190.00 823.00,189.00 823.00,189.00
             823.00,189.00 822.00,189.00 822.00,189.00 Z
           M 874.00,189.00
           C 874.00,189.00 874.00,190.00 874.00,190.00
             874.00,190.00 875.00,189.00 875.00,189.00
             875.00,189.00 874.00,189.00 874.00,189.00 Z" />
</svg>
