<?xml version="1.0" encoding="UTF-8" standalone="no"?>
<!DOCTYPE svg PUBLIC "-//W3C//DTD SVG 20010904//EN"
              "http://www.w3.org/TR/2001/REC-SVG-20010904/DTD/svg10.dtd">

<svg xmlns="http://www.w3.org/2000/svg"
     width="80.8568mm" height="42.9261mm"
     viewBox="0 0 955 507">
  <path id="Selezione #4"
        fill="none" stroke="black" stroke-width="1"
        d="M 169.00,57.00
           C 169.00,57.00 169.00,60.00 169.00,60.00
             178.59,60.00 196.74,61.44 205.00,58.00
             205.00,58.00 190.00,57.00 190.00,57.00
             190.00,57.00 196.00,58.00 196.00,58.00
             196.00,58.00 173.00,59.00 173.00,59.00
             173.00,59.00 189.00,58.00 189.00,58.00
             189.00,58.00 169.00,57.00 169.00,57.00 Z
           M 201.00,58.00
           C 201.00,58.00 201.00,59.00 201.00,59.00
             201.00,59.00 200.00,58.00 200.00,58.00
             200.00,58.00 201.00,58.00 201.00,58.00 Z
           M 123.00,58.00
           C 121.91,60.73 119.64,59.93 117.00,59.90
             112.13,59.56 105.55,58.75 101.00,59.90
             101.00,59.90 132.00,61.00 132.00,61.00
             132.00,61.00 126.00,58.00 126.00,58.00
             126.00,58.00 123.00,58.00 123.00,58.00 Z
           M 52.00,59.00
           C 46.71,62.90 37.22,60.62 31.00,60.18
             31.00,60.18 23.00,60.74 23.00,60.74
             23.00,60.74 14.00,60.00 14.00,60.00
             14.00,60.00 13.00,62.00 13.00,62.00
             19.21,64.46 29.29,62.08 36.00,62.00
             36.00,62.00 94.00,62.00 94.00,62.00
             94.00,62.00 84.58,60.24 84.58,60.24
             84.58,60.24 63.00,59.00 63.00,59.00
             63.00,59.00 67.00,60.00 67.00,60.00
             67.00,60.00 61.00,61.00 61.00,61.00
             61.00,61.00 62.00,59.00 62.00,59.00
             62.00,59.00 52.00,59.00 52.00,59.00 Z
           M 69.00,60.00
           C 69.00,60.00 69.00,61.00 69.00,61.00
             69.00,61.00 68.00,60.00 68.00,60.00
             68.00,60.00 69.00,60.00 69.00,60.00 Z
           M 146.00,59.00
           C 146.00,59.00 161.00,60.00 161.00,60.00
             161.00,60.00 146.00,59.00 146.00,59.00 Z
           M 162.00,59.00
           C 162.00,59.00 162.00,60.00 162.00,60.00
             162.00,60.00 163.00,59.00 163.00,59.00
             163.00,59.00 162.00,59.00 162.00,59.00 Z
           M 2.00,60.00
           C 4.17,63.24 5.28,62.87 9.00,63.00
             6.76,59.66 5.71,60.38 2.00,60.00 Z
           M 10.00,111.00
           C 11.76,116.85 15.63,118.51 21.00,120.77
             28.76,124.03 42.33,125.94 51.00,127.27
             51.00,127.27 74.00,129.09 74.00,129.09
             74.00,129.09 85.00,130.00 85.00,130.00
             113.98,130.14 134.24,129.41 163.00,124.59
             173.36,122.85 195.12,118.85 199.00,108.00
             199.00,108.00 181.00,109.00 181.00,109.00
             181.00,109.00 149.00,109.00 149.00,109.00
             149.00,109.00 132.00,110.00 132.00,110.00
             132.00,110.00 89.00,110.00 89.00,110.00
             89.00,110.00 72.00,111.00 72.00,111.00
             72.00,111.00 10.00,111.00 10.00,111.00 Z
           M 190.00,110.00
           C 190.00,110.00 190.00,111.00 190.00,111.00
             190.00,111.00 189.00,110.00 189.00,110.00
             189.00,110.00 190.00,110.00 190.00,110.00 Z
           M 156.00,155.00
           C 156.00,155.00 156.00,156.00 156.00,156.00
             156.00,156.00 157.00,155.00 157.00,155.00
             157.00,155.00 156.00,155.00 156.00,155.00 Z
           M 153.00,169.00
           C 153.00,169.00 153.00,170.00 153.00,170.00
             153.00,170.00 154.00,169.00 154.00,169.00
             154.00,169.00 153.00,169.00 153.00,169.00 Z
           M 154.00,174.00
           C 154.00,174.00 154.00,175.00 154.00,175.00
             154.00,175.00 155.00,174.00 155.00,174.00
             155.00,174.00 154.00,174.00 154.00,174.00 Z
           M 155.00,177.00
           C 155.00,177.00 155.00,178.00 155.00,178.00
             155.00,178.00 156.00,177.00 156.00,177.00
             156.00,177.00 155.00,177.00 155.00,177.00 Z
           M 156.00,181.00
           C 156.00,181.00 156.00,182.00 156.00,182.00
             156.00,182.00 157.00,181.00 157.00,181.00
             157.00,181.00 156.00,181.00 156.00,181.00 Z
           M 157.00,184.00
           C 157.00,184.00 157.00,185.00 157.00,185.00
             157.00,185.00 158.00,184.00 158.00,184.00
             158.00,184.00 157.00,184.00 157.00,184.00 Z
           M 165.00,184.00
           C 165.00,184.00 165.00,185.00 165.00,185.00
             165.00,185.00 166.00,184.00 166.00,184.00
             166.00,184.00 165.00,184.00 165.00,184.00 Z
           M 441.00,187.00
           C 441.00,187.00 441.00,188.00 441.00,188.00
             441.00,188.00 442.00,187.00 442.00,187.00
             442.00,187.00 441.00,187.00 441.00,187.00 Z
           M 162.00,188.00
           C 162.00,188.00 162.00,189.00 162.00,189.00
             162.00,189.00 163.00,188.00 163.00,188.00
             163.00,188.00 162.00,188.00 162.00,188.00 Z
           M 159.00,189.00
           C 159.00,189.00 159.00,190.00 159.00,190.00
             159.00,190.00 160.00,189.00 160.00,189.00
             160.00,189.00 159.00,189.00 159.00,189.00 Z
           M 432.00,189.00
           C 432.00,189.00 432.00,190.00 432.00,190.00
             432.00,190.00 433.00,189.00 433.00,189.00
             433.00,189.00 432.00,189.00 432.00,189.00 Z
           M 444.00,190.00
           C 444.00,190.00 444.00,191.00 444.00,191.00
             444.00,191.00 445.00,190.00 445.00,190.00
             445.00,190.00 444.00,190.00 444.00,190.00 Z
           M 160.00,191.00
           C 160.00,191.00 160.00,192.00 160.00,192.00
             160.00,192.00 161.00,191.00 161.00,191.00
             161.00,191.00 160.00,191.00 160.00,191.00 Z
           M 432.00,191.00
           C 432.00,191.00 432.00,192.00 432.00,192.00
             432.00,192.00 433.00,191.00 433.00,191.00
             433.00,191.00 432.00,191.00 432.00,191.00 Z
           M 543.00,191.00
           C 543.00,191.00 543.00,192.00 543.00,192.00
             543.00,192.00 544.00,191.00 544.00,191.00
             544.00,191.00 543.00,191.00 543.00,191.00 Z" />
</svg>
