<?xml version="1.0" encoding="UTF-8" standalone="no"?>
<!DOCTYPE svg PUBLIC "-//W3C//DTD SVG 20010904//EN"
              "http://www.w3.org/TR/2001/REC-SVG-20010904/DTD/svg10.dtd">

<svg xmlns="http://www.w3.org/2000/svg"
     width="80.8568mm" height="42.9261mm"
     viewBox="0 0 955 507">
  <path id="Selezione #12"
        fill="none" stroke="black" stroke-width="1"
        d="M 169.00,125.00
           C 169.00,125.00 169.00,126.00 169.00,126.00
             169.00,126.00 170.00,125.00 170.00,125.00
             170.00,125.00 169.00,125.00 169.00,125.00 Z
           M 39.00,128.10
           C 41.67,133.05 47.00,135.04 51.91,137.63
             70.17,147.21 75.06,145.17 94.00,148.61
             99.75,149.66 107.56,152.98 113.00,152.00
             115.51,155.28 120.07,156.16 124.00,156.91
             133.64,158.73 143.37,157.27 153.00,156.00
             154.18,152.21 156.52,152.75 160.00,153.00
             160.00,153.00 160.00,152.00 160.00,152.00
             160.00,152.00 158.00,152.00 158.00,152.00
             158.00,152.00 162.00,153.00 162.00,153.00
             165.22,151.42 172.45,148.13 174.63,145.66
             177.01,142.98 177.73,135.37 175.82,132.29
             174.92,130.83 174.29,130.78 173.00,130.00
             176.42,130.73 176.22,131.02 178.00,134.00
             178.48,129.23 174.78,127.74 171.00,126.00
             171.00,126.00 171.00,127.00 171.00,127.00
             171.00,127.00 173.00,129.00 173.00,129.00
             173.00,129.00 162.00,126.00 162.00,126.00
             162.00,126.00 163.00,128.00 163.00,128.00
             163.00,128.00 161.00,126.00 161.00,126.00
             161.00,126.00 147.00,129.51 147.00,129.51
             147.00,129.51 137.00,129.51 137.00,129.51
             137.00,129.51 131.00,130.53 131.00,130.53
             131.00,130.53 124.00,130.53 124.00,130.53
             124.00,130.53 117.00,131.07 117.00,131.07
             117.00,131.07 80.00,131.07 80.00,131.07
             80.00,131.07 50.01,128.10 50.01,128.10
             50.01,128.10 39.00,128.10 39.00,128.10 Z
           M 145.00,128.00
           C 145.00,128.00 145.00,129.00 145.00,129.00
             145.00,129.00 146.00,128.00 146.00,128.00
             146.00,128.00 145.00,128.00 145.00,128.00 Z
           M 179.00,136.00
           C 179.00,136.00 179.00,137.00 179.00,137.00
             179.00,137.00 180.00,136.00 180.00,136.00
             180.00,136.00 179.00,136.00 179.00,136.00 Z
           M 175.00,140.00
           C 175.00,140.00 175.00,141.00 175.00,141.00
             175.00,141.00 174.00,140.00 174.00,140.00
             174.00,140.00 175.00,140.00 175.00,140.00 Z
           M 178.00,140.00
           C 178.00,140.00 178.00,141.00 178.00,141.00
             178.00,141.00 179.00,140.00 179.00,140.00
             179.00,140.00 178.00,140.00 178.00,140.00 Z
           M 163.00,151.00
           C 163.00,151.00 163.00,152.00 163.00,152.00
             163.00,152.00 162.00,151.00 162.00,151.00
             162.00,151.00 163.00,151.00 163.00,151.00 Z
           M 154.00,154.00
           C 154.00,154.00 154.00,155.00 154.00,155.00
             154.00,155.00 155.00,154.00 155.00,154.00
             155.00,154.00 154.00,154.00 154.00,154.00 Z" />
</svg>
