<?xml version="1.0" encoding="UTF-8" standalone="no"?>
<!DOCTYPE svg PUBLIC "-//W3C//DTD SVG 20010904//EN"
              "http://www.w3.org/TR/2001/REC-SVG-20010904/DTD/svg10.dtd">

<svg xmlns="http://www.w3.org/2000/svg"
     width="80.8568mm" height="42.9261mm"
     viewBox="0 0 955 507">
  <path id="Selezione #6"
        fill="none" stroke="black" stroke-width="1"
        d="M 5.00,60.00
           C 10.47,64.55 11.94,62.34 18.00,62.34
             18.00,62.34 27.00,63.00 27.00,63.00
             27.00,63.00 46.00,63.00 46.00,63.00
             51.79,62.90 51.28,62.06 55.00,61.87
             55.00,61.87 64.00,61.87 64.00,61.87
             64.00,61.87 107.00,61.87 107.00,61.87
             107.00,61.87 104.00,61.00 104.00,61.00
             104.00,61.00 133.00,61.00 133.00,61.00
             133.00,61.00 164.00,61.00 164.00,61.00
             164.00,61.00 186.00,60.00 186.00,60.00
             191.66,59.99 198.73,61.32 203.00,57.00
             203.00,57.00 179.00,57.00 179.00,57.00
             179.00,57.00 162.00,58.00 162.00,58.00
             162.00,58.00 114.00,58.00 114.00,58.00
             114.00,58.00 103.00,58.91 103.00,58.91
             103.00,58.91 65.72,58.91 65.72,58.91
             65.72,58.91 57.00,59.82 57.00,59.82
             57.00,59.82 51.00,59.30 51.00,59.30
             51.00,59.30 25.00,60.00 25.00,60.00
             25.00,60.00 5.00,60.00 5.00,60.00 Z
           M 114.00,67.00
           C 114.00,67.00 113.00,73.00 113.00,73.00
             113.00,73.00 114.00,67.00 114.00,67.00 Z
           M 125.00,67.00
           C 125.00,67.00 125.00,68.00 125.00,68.00
             125.00,68.00 126.00,67.00 126.00,67.00
             126.00,67.00 125.00,67.00 125.00,67.00 Z
           M 14.00,68.00
           C 14.00,68.00 14.00,87.00 14.00,87.00
             14.00,87.00 14.00,105.00 14.00,105.00
             17.32,100.48 15.03,94.35 15.00,89.00
             14.98,83.66 15.78,72.49 14.00,68.00 Z
           M 32.00,74.00
           C 32.00,74.00 32.00,75.00 32.00,75.00
             32.00,75.00 33.00,74.00 33.00,74.00
             33.00,74.00 32.00,74.00 32.00,74.00 Z
           M 53.00,74.00
           C 53.00,74.00 53.00,75.00 53.00,75.00
             53.00,75.00 54.00,74.00 54.00,74.00
             54.00,74.00 53.00,74.00 53.00,74.00 Z
           M 36.00,75.00
           C 39.06,84.20 39.00,83.34 39.00,93.00
             42.35,87.23 40.21,79.79 36.00,75.00 Z
           M 154.00,76.00
           C 154.00,76.00 154.00,92.00 154.00,92.00
             155.53,88.15 155.53,79.85 154.00,76.00 Z
           M 173.00,78.00
           C 173.00,78.00 172.00,82.00 172.00,82.00
             172.00,82.00 173.00,78.00 173.00,78.00 Z
           M 110.00,79.00
           C 110.00,79.00 110.00,80.00 110.00,80.00
             110.00,80.00 111.00,79.00 111.00,79.00
             111.00,79.00 110.00,79.00 110.00,79.00 Z
           M 125.00,80.00
           C 125.00,80.00 125.00,103.00 125.00,103.00
             128.38,98.40 127.57,85.04 125.00,80.00 Z
           M 51.00,84.00
           C 51.00,84.00 52.00,96.00 52.00,96.00
             52.00,96.00 51.00,84.00 51.00,84.00 Z
           M 81.00,84.00
           C 81.00,84.00 81.00,89.00 81.00,89.00
             81.00,89.00 81.00,84.00 81.00,84.00 Z
           M 95.00,84.00
           C 95.00,84.00 95.00,85.00 95.00,85.00
             95.00,85.00 96.00,84.00 96.00,84.00
             96.00,84.00 95.00,84.00 95.00,84.00 Z
           M 109.00,84.00
           C 109.00,84.00 109.00,85.00 109.00,85.00
             109.00,85.00 110.00,84.00 110.00,84.00
             110.00,84.00 109.00,84.00 109.00,84.00 Z
           M 106.00,91.00
           C 106.00,91.00 106.00,96.00 106.00,96.00
             106.00,96.00 108.00,91.00 108.00,91.00
             108.00,91.00 106.00,91.00 106.00,91.00 Z
           M 37.00,95.00
           C 37.00,95.00 36.00,97.00 36.00,97.00
             36.00,97.00 35.00,97.00 35.00,97.00
             36.97,97.07 37.07,96.97 37.00,95.00 Z
           M 101.00,99.00
           C 101.00,99.00 101.00,100.00 101.00,100.00
             101.00,100.00 102.00,99.00 102.00,99.00
             102.00,99.00 101.00,99.00 101.00,99.00 Z
           M 55.00,100.00
           C 55.00,100.00 55.00,101.00 55.00,101.00
             55.00,101.00 56.00,100.00 56.00,100.00
             56.00,100.00 55.00,100.00 55.00,100.00 Z
           M 155.00,101.00
           C 155.00,101.00 155.00,102.00 155.00,102.00
             155.00,102.00 156.00,101.00 156.00,101.00
             156.00,101.00 155.00,101.00 155.00,101.00 Z
           M 61.00,105.00
           C 61.00,105.00 61.00,106.00 61.00,106.00
             61.00,106.00 62.00,105.00 62.00,105.00
             62.00,105.00 61.00,105.00 61.00,105.00 Z
           M 157.00,110.04
           C 160.92,114.37 166.18,110.24 170.83,110.04
             170.83,110.04 182.00,111.58 182.00,111.58
             184.65,111.93 188.80,111.35 190.00,114.00
             190.00,114.00 197.00,113.00 197.00,113.00
             197.00,113.00 194.00,110.00 194.00,110.00
             194.00,110.00 197.00,109.00 197.00,109.00
             192.91,107.38 174.76,107.55 170.00,108.32
             164.81,109.17 162.75,110.84 157.00,110.04 Z
           M 191.00,109.00
           C 191.00,109.00 186.00,110.00 186.00,110.00
             186.00,110.00 191.00,109.00 191.00,109.00 Z
           M 11.00,111.00
           C 15.10,116.46 16.46,111.80 22.01,112.31
             25.25,112.61 25.07,113.69 30.00,113.37
             30.00,113.37 37.83,112.76 37.83,112.76
             41.82,112.06 40.49,111.11 47.00,111.00
             47.00,111.00 61.00,111.00 61.00,111.00
             61.00,111.00 57.00,112.00 57.00,112.00
             57.00,112.00 77.00,113.00 77.00,113.00
             77.00,113.00 70.00,112.00 70.00,112.00
             70.00,112.00 82.00,111.00 82.00,111.00
             82.00,111.00 79.00,112.00 79.00,112.00
             79.00,112.00 91.00,111.30 91.00,111.30
             91.00,111.30 133.00,112.00 133.00,112.00
             133.00,112.00 122.00,111.00 122.00,111.00
             122.00,111.00 139.00,110.00 139.00,110.00
             139.00,110.00 137.00,111.00 137.00,111.00
             137.00,111.00 151.00,112.00 151.00,112.00
             151.75,108.59 148.59,109.05 146.00,109.00
             146.00,109.00 115.00,109.00 115.00,109.00
             115.00,109.00 100.00,110.00 100.00,110.00
             100.00,110.00 48.00,110.00 48.00,110.00
             48.00,110.00 33.00,111.00 33.00,111.00
             33.00,111.00 11.00,111.00 11.00,111.00 Z
           M 145.00,110.00
           C 145.00,110.00 140.00,111.00 140.00,111.00
             140.00,111.00 145.00,110.00 145.00,110.00 Z
           M 153.00,111.00
           C 153.00,111.00 153.00,112.00 153.00,112.00
             153.00,112.00 154.00,111.00 154.00,111.00
             154.00,111.00 153.00,111.00 153.00,111.00 Z
           M 155.00,111.00
           C 155.00,111.00 155.00,112.00 155.00,112.00
             155.00,112.00 156.00,111.00 156.00,111.00
             156.00,111.00 155.00,111.00 155.00,111.00 Z
           M 165.00,118.00
           C 165.00,118.00 165.00,119.00 165.00,119.00
             165.00,119.00 166.00,118.00 166.00,118.00
             166.00,118.00 165.00,118.00 165.00,118.00 Z
           M 30.00,123.00
           C 30.00,123.00 30.00,124.00 30.00,124.00
             30.00,124.00 31.00,123.00 31.00,123.00
             31.00,123.00 30.00,123.00 30.00,123.00 Z
           M 168.00,123.00
           C 168.00,123.00 168.00,124.00 168.00,124.00
             168.00,124.00 169.00,123.00 169.00,123.00
             169.00,123.00 168.00,123.00 168.00,123.00 Z
           M 46.00,126.00
           C 46.00,126.00 46.00,127.00 46.00,127.00
             46.00,127.00 47.00,126.00 47.00,126.00
             47.00,126.00 46.00,126.00 46.00,126.00 Z
           M 134.00,128.00
           C 134.00,128.00 134.00,129.00 134.00,129.00
             134.00,129.00 135.00,128.00 135.00,128.00
             135.00,128.00 134.00,128.00 134.00,128.00 Z
           M 77.00,129.00
           C 77.00,129.00 77.00,130.00 77.00,130.00
             77.00,130.00 78.00,129.00 78.00,129.00
             78.00,129.00 77.00,129.00 77.00,129.00 Z" />
</svg>
